<svg width="640" height="800" viewBox="0 0 640 800" fill="none" xmlns="http://www.w3.org/2000/svg">
<path d="M371.999 0L491.601 205.966L457.436 205.965V205.966H491.601L583.529 365.12C596.187 387.031 596.187 414.011 583.529 435.922L501.99 577.13L373.33 800H0V0H371.999ZM640 800H639.955V0H640V800Z" fill="black"/>
<path d="M124.699 731.302L102.822 694.202C101.654 692.223 99.4955 691 97.1678 691H53.4148C51.0791 691 48.9205 692.223 47.7523 694.202L25.8758 731.302C24.7081 733.282 24.7081 735.719 25.8758 737.698L37.4665 757.352L47.7523 774.798C48.9205 776.778 51.0791 778 53.4148 778H97.1678C99.4955 778 101.654 776.778 102.822 774.798L113.108 757.352L124.699 737.698C125.867 735.719 125.867 733.282 124.699 731.302Z" fill="white"/>
<path d="M112.521 773.659V774.668H113.165C113.448 774.668 113.665 774.621 113.802 774.542C113.947 774.463 114.019 774.321 114.019 774.132C114.019 773.966 113.955 773.848 113.826 773.769C113.705 773.698 113.544 773.659 113.351 773.659H112.521ZM111.949 776.719V773.154H113.335C114.164 773.154 114.583 773.485 114.583 774.155C114.583 774.329 114.559 774.471 114.511 774.589C114.462 774.707 114.398 774.802 114.309 774.881C114.221 774.96 114.124 775.023 114.011 775.07C113.899 775.11 113.778 775.141 113.649 775.157L114.696 776.719H114.003L112.964 775.173H112.521V776.719H111.949ZM115.638 774.936C115.638 774.589 115.574 774.266 115.437 773.966C115.308 773.659 115.131 773.39 114.905 773.169C114.68 772.941 114.414 772.767 114.108 772.633C113.802 772.499 113.48 772.428 113.133 772.428C112.787 772.428 112.465 772.499 112.159 772.633C111.852 772.767 111.587 772.941 111.361 773.169C111.135 773.39 110.958 773.659 110.83 773.966C110.693 774.266 110.628 774.589 110.628 774.936C110.628 775.283 110.693 775.607 110.83 775.907C110.958 776.214 111.135 776.474 111.361 776.703C111.587 776.932 111.852 777.105 112.159 777.239C112.465 777.374 112.787 777.437 113.133 777.437C113.48 777.437 113.802 777.374 114.108 777.239C114.414 777.105 114.68 776.932 114.905 776.703C115.131 776.474 115.308 776.214 115.437 775.907C115.574 775.607 115.638 775.283 115.638 774.936ZM110.008 774.936C110.008 774.51 110.089 774.116 110.258 773.745C110.419 773.374 110.644 773.043 110.926 772.767C111.208 772.491 111.538 772.278 111.917 772.113C112.295 771.955 112.706 771.876 113.133 771.876C113.568 771.876 113.971 771.955 114.35 772.113C114.736 772.278 115.066 772.491 115.349 772.767C115.63 773.043 115.848 773.374 116.017 773.745C116.178 774.116 116.259 774.51 116.259 774.936C116.259 775.362 116.178 775.757 116.017 776.127C115.848 776.498 115.63 776.821 115.349 777.098C115.066 777.374 114.736 777.594 114.35 777.76C113.971 777.918 113.568 777.997 113.133 777.997C112.706 777.997 112.295 777.918 111.917 777.76C111.538 777.594 111.208 777.374 110.926 777.098C110.644 776.821 110.419 776.498 110.258 776.127C110.089 775.757 110.008 775.362 110.008 774.936Z" fill="white"/>
<path d="M124.699 731.302L116.217 716.924H112.496V751.958H116.29L124.699 737.698C125.867 735.719 125.867 733.282 124.699 731.302Z" fill="#FBC421"/>
<path d="M34.3557 716.923L25.8744 731.301C24.7144 733.281 24.7144 735.717 25.8744 737.697L34.2834 751.957H37.8999V716.923H34.3557Z" fill="#FBC421"/>
<path d="M102.822 694.2C101.654 692.22 99.4952 691.006 97.1675 691.006H53.4145C51.0785 691.006 48.9199 692.22 47.752 694.2L37.5386 711.52H113.035L102.822 694.2Z" fill="#FBC421"/>
<path d="M113.107 757.356H37.4658L47.7516 774.802C48.9195 776.781 51.0781 777.996 53.4141 777.996H97.1671C99.4948 777.996 101.653 776.781 102.821 774.802L113.107 757.356Z" fill="#FBC421"/>
<path d="M43.4155 716.836H48.6028L53.5163 737.255V716.836H58.3167V752.043H53.1294L48.4014 732.271V752.043H43.4155V716.836Z" fill="#2B2F84"/>
<path d="M70.1884 739.556L68.6337 724.91L67.0874 739.556H70.1884ZM75.0455 739.556L76.7369 752.048H71.4933L70.72 744.579H66.5638L65.7745 752.048H60.5469L62.2383 739.611L65.0979 716.833H72.2103L75.0455 739.556Z" fill="#2B2F84"/>
<path d="M102.805 739.556L101.25 724.91L99.7036 739.556H102.805ZM107.661 739.556L109.353 752.048H104.11L103.336 744.579H99.18L98.3907 752.048H93.1631L94.8545 739.611L97.7141 716.833H104.826L107.661 739.556Z" fill="#2B2F84"/>
<path d="M84.1531 721.842V734.548H84.749C85.466 734.548 85.9652 734.501 86.231 734.406C87.1734 734.035 87.9144 733.286 87.9144 732.166V724.248C87.9144 722.647 86.8916 721.842 85.3853 721.842H84.1531ZM78.9658 716.834L85.9168 716.85C90.5242 716.85 92.8279 719.318 92.8279 724.248V732.166C92.8279 735.802 91.1765 738.144 87.866 739.201C87.0687 739.454 86.239 739.58 84.725 739.58H84.1531V752.049H78.9658V716.834Z" fill="#2B2F84"/>
<path d="M144.419 761.654L147.519 744.106L150.674 761.654H144.419ZM140.821 737.132L132.352 776.655H141.817L143.09 769.459H152.113L153.386 776.655H162.852L154.161 737.132H140.821Z" fill="white"/>
<path d="M227.736 758.941C227.57 767.244 226.628 769.625 223.418 769.625C220.263 769.625 219.322 767.244 219.156 758.941L219.101 756.893L219.156 754.845C219.377 746.542 220.318 744.162 223.418 744.162C226.573 744.162 227.514 746.542 227.736 754.845L227.791 756.893L227.736 758.941ZM179.072 737.132V763.425C179.072 768.407 177.798 769.625 175.474 769.625C172.983 769.625 171.875 767.743 171.875 763.425V737.132H162.41V763.425C162.41 774.441 166.285 777.429 175.474 777.429C185.271 777.429 188.593 773.61 188.593 763.425V744.937H194.634V776.655H204.1V744.937H210.816C210.151 747.505 209.792 750.759 209.635 754.845L209.579 756.893L209.635 758.941C210.078 773.278 213.233 777.429 223.418 777.429C233.769 777.429 236.814 773.333 237.201 758.941L237.256 756.893L237.201 754.845C236.869 740.508 233.714 736.357 223.418 736.357C217.473 736.357 213.964 737.757 211.96 741.782V737.132H179.072Z" fill="white"/>
<path d="M259.897 754.292H257.129V744.937H259.897C262.443 744.937 264.104 746.099 264.104 749.642C264.104 752.465 263.107 754.292 259.897 754.292ZM273.569 749.642C273.569 742.114 270.303 737.132 259.897 737.132H247.664V776.655H257.129V762.096H259.897C268.089 762.096 273.569 759.163 273.569 749.642Z" fill="#FBC421"/>
<path d="M313.21 752.963H309.501V744.937H313.21C315.756 744.937 317.362 745.988 317.362 749.144C317.362 751.468 316.421 752.963 313.21 752.963ZM282.156 761.654L285.256 744.106L288.411 761.654H282.156ZM309.501 776.655V760.768H311.882L317.196 776.655H327.103L320.351 759.716C324.392 758.277 326.829 755.067 326.829 749.144C326.829 747.628 326.68 746.219 326.355 744.937H332.925V776.655H342.388V744.937H348.864C348.616 745.908 348.484 746.945 348.484 748.036C348.484 754.125 351.363 757.613 359.112 760.934C363.376 762.761 365.422 764.587 365.422 766.691C365.422 768.296 364.26 769.403 362.157 769.403C359.722 769.403 357.287 767.244 355.072 762.927L347.766 767.078C351.031 774.385 355.295 777.429 361.991 777.429C369.964 777.429 375 773.223 375 766.801C375 759.163 371.403 756.007 364.704 753.074C359.61 750.86 357.785 749.088 357.785 747.317C357.785 745.767 359.058 744.66 360.941 744.66C363.211 744.66 365.588 746.653 367.529 750.583L374.445 746.653C372.01 740.01 368.027 736.412 361.327 736.412C356.593 736.412 352.793 738.222 350.588 741.246V737.132H324.78V741.474C322.791 738.737 319.181 737.132 313.21 737.132H300.036V774.141L291.898 737.132H278.558L270.088 776.655H279.554L280.827 769.459H289.85L291.123 776.655H309.501Z" fill="#FBC421"/>
<path fill-rule="evenodd" clip-rule="evenodd" d="M136.64 726.568L141.406 725.752C141.406 725.752 141.338 725.911 141.244 726.024C141.188 726.092 140.374 726.375 139.881 726.511C139.486 726.619 139.256 726.755 139.296 727.038C139.307 727.118 139.339 727.191 139.409 727.248C139.443 727.271 139.461 727.271 139.585 727.248C141.847 726.812 144.113 726.358 146.376 725.973C147.542 725.78 155.537 724.755 157.29 724.579C160.304 724.273 165.359 723.843 167.927 723.667C169.739 723.548 177.341 723.231 178.914 723.214C185.769 723.134 196.157 723.542 203.055 724.024C207.134 724.313 218.707 725.293 223.647 726.086C227.231 726.664 233.622 727.701 234.107 727.73C234.767 727.769 235.177 727.724 235.211 727.129C235.217 727.01 235.191 726.919 235.098 726.721C235.018 726.551 234.888 726.302 234.888 726.302C234.888 726.302 236.073 726.222 236.608 726.086C236.971 725.996 237.091 725.695 236.85 725.355C236.789 725.27 236.711 725.203 236.608 725.129C236.3 724.925 235.906 724.778 235.957 724.596C236.037 724.324 236.619 724.483 236.977 724.449C237.245 724.421 237.466 724.296 237.306 724.092C237.155 723.894 236.4 723.695 236.185 723.639C232.323 722.573 222.345 721.293 219.945 720.987C216.567 720.562 212.311 720.08 209.47 719.802C207.618 719.627 194.542 718.692 192.158 718.567C184.191 718.159 169.663 717.808 160.051 718.324C155.353 718.579 143.636 719.689 140.855 720.097C138.766 720.398 136.701 720.777 134.627 721.128C134.503 721.151 134.482 721.157 134.425 721.185C134.216 721.281 134.17 721.519 134.278 721.621C134.434 721.774 135.048 721.865 135.236 722.029C135.357 722.137 135.308 722.239 135.171 722.318C134.927 722.466 133.348 722.704 133.125 722.84C132.936 722.959 132.856 723.253 133.125 723.406C133.479 723.61 134.672 723.95 134.672 723.95C134.672 723.95 134.569 724.069 134.456 724.171C134.3 724.313 132.981 724.625 132.589 724.84C132.38 724.953 132.203 725.446 132.54 725.616C132.608 725.656 132.714 725.69 132.806 725.712C132.929 725.746 132.956 725.746 133.08 725.724C142.378 723.996 142.979 723.735 150.079 722.891C152.135 722.647 158.591 722.024 159.905 721.95C160.547 721.91 170.381 721.338 172.894 721.587C173.291 721.633 173.725 721.684 173.725 721.684C173.725 721.684 166.839 721.916 161.935 722.205C160.603 722.284 152.564 723.049 151.005 723.248C145.608 723.922 145.312 724.052 138.646 725.259C138.085 725.361 136.397 725.814 136.275 725.894C136.054 726.041 135.965 726.33 136.307 726.528C136.347 726.551 136.39 726.568 136.435 726.579C136.495 726.591 136.516 726.591 136.64 726.568Z" fill="#D30026"/>
<path d="M136.64 726.568L141.406 725.752C141.406 725.752 141.338 725.911 141.244 726.024C141.188 726.092 140.374 726.375 139.881 726.511C139.486 726.619 139.256 726.755 139.296 727.038C139.307 727.118 139.339 727.191 139.409 727.248C139.443 727.271 139.461 727.271 139.585 727.248C141.847 726.812 144.113 726.358 146.376 725.973C147.542 725.78 155.537 724.755 157.29 724.579C160.304 724.273 165.359 723.843 167.927 723.667C169.739 723.548 177.341 723.231 178.914 723.214C185.769 723.134 196.157 723.542 203.055 724.024C207.134 724.313 218.707 725.293 223.647 726.086C227.231 726.664 233.622 727.701 234.107 727.73C234.767 727.769 235.177 727.724 235.211 727.129C235.217 727.01 235.191 726.919 235.098 726.721C235.018 726.551 234.888 726.302 234.888 726.302C234.888 726.302 236.073 726.222 236.608 726.086C236.971 725.996 237.091 725.695 236.85 725.355C236.789 725.27 236.711 725.203 236.608 725.129C236.3 724.925 235.906 724.778 235.957 724.596C236.037 724.324 236.619 724.483 236.977 724.449C237.245 724.421 237.466 724.296 237.306 724.092C237.155 723.894 236.4 723.695 236.185 723.639C232.323 722.573 222.345 721.293 219.945 720.987C216.567 720.562 212.311 720.08 209.47 719.802C207.618 719.627 194.542 718.692 192.158 718.567C184.191 718.159 169.663 717.808 160.051 718.324C155.353 718.579 143.636 719.689 140.855 720.097C138.766 720.398 136.701 720.777 134.627 721.128C134.503 721.151 134.482 721.157 134.425 721.185C134.216 721.281 134.17 721.519 134.278 721.621C134.434 721.774 135.048 721.865 135.236 722.029C135.357 722.137 135.308 722.239 135.171 722.318C134.927 722.466 133.348 722.704 133.125 722.84C132.936 722.959 132.856 723.253 133.125 723.406C133.479 723.61 134.672 723.95 134.672 723.95C134.672 723.95 134.569 724.069 134.456 724.171C134.3 724.313 132.981 724.625 132.589 724.84C132.38 724.953 132.203 725.446 132.54 725.616C132.608 725.656 132.714 725.69 132.806 725.712C132.929 725.746 132.956 725.746 133.08 725.724C142.378 723.996 142.979 723.735 150.079 722.891C152.135 722.647 158.591 722.024 159.905 721.95C160.547 721.91 170.381 721.338 172.894 721.587C173.291 721.633 173.725 721.684 173.725 721.684C173.725 721.684 166.839 721.916 161.935 722.205C160.603 722.284 152.564 723.049 151.005 723.248C145.608 723.922 145.312 724.052 138.646 725.259C138.085 725.361 136.397 725.814 136.275 725.894C136.054 726.041 135.965 726.33 136.307 726.528C136.347 726.551 136.39 726.568 136.435 726.579C136.495 726.591 136.516 726.591 136.64 726.568Z" stroke="#D30026" stroke-width="0.133333"/>
<path fill-rule="evenodd" clip-rule="evenodd" d="M153.404 709.088C152.799 709.507 152.152 709.938 151.464 710.368C150.775 710.799 150.103 711.195 149.444 711.552C148.786 711.915 148.174 712.204 147.606 712.436C147.039 712.663 146.574 712.782 146.211 712.793C146.045 712.793 145.806 712.776 145.496 712.742C145.186 712.703 144.842 712.635 144.464 712.538C144.086 712.436 143.696 712.306 143.295 712.136C142.894 711.972 142.516 711.756 142.16 711.496C141.805 711.241 141.499 710.929 141.242 710.572C140.985 710.215 140.811 709.796 140.72 709.309C140.569 708.521 140.621 707.711 140.879 706.872C141.136 706.039 141.536 705.212 142.081 704.39C142.625 703.569 143.291 702.764 144.078 701.982C144.864 701.195 145.719 700.452 146.642 699.755C147.565 699.058 148.529 698.412 149.535 697.817C150.541 697.228 151.54 696.718 152.53 696.299C153.521 695.88 154.478 695.551 155.401 695.307C156.324 695.069 157.155 694.945 157.897 694.945C158.82 694.945 159.602 695.069 160.245 695.319C160.888 695.562 161.406 695.851 161.8 696.169C162.193 696.492 162.48 696.809 162.662 697.115C162.843 697.427 162.934 697.647 162.934 697.784C162.889 698.378 162.745 698.911 162.503 699.393C162.261 699.874 161.966 700.305 161.618 700.685C161.27 701.059 160.9 701.393 160.506 701.682C160.113 701.976 159.75 702.231 159.417 702.452C159.296 702.538 159.183 702.611 159.076 702.673C158.971 702.736 158.88 702.798 158.804 702.86C158.456 703.11 158.12 703.195 157.795 703.121C157.469 703.047 157.182 702.906 156.932 702.702C156.683 702.498 156.49 702.277 156.354 702.028C156.218 701.778 156.164 701.614 156.195 701.529C156.225 701.467 156.278 701.404 156.354 701.353C156.43 701.297 156.512 701.251 156.603 701.212C156.754 701.161 156.936 701.087 157.147 700.991C157.359 700.889 157.605 700.713 157.885 700.452C158.165 700.192 158.483 699.823 158.838 699.342C159.194 698.86 159.591 698.197 160.029 697.358L160.075 697.375L160.143 697.154C160.113 697.2 160.022 697.24 159.871 697.262C159.613 697.302 159.198 697.415 158.623 697.608C158.048 697.801 157.375 698.056 156.603 698.378C155.832 698.696 154.992 699.081 154.085 699.523C153.177 699.971 152.261 700.475 151.339 701.047C150.416 701.614 149.52 702.231 148.65 702.906C147.78 703.58 147.005 704.305 146.324 705.076C145.643 705.847 145.08 706.668 144.634 707.529C144.188 708.396 143.926 709.303 143.851 710.255C143.836 710.38 143.874 710.521 143.964 710.685C144.055 710.844 144.154 710.929 144.26 710.94C144.864 710.895 145.549 710.736 146.313 710.47C147.077 710.204 147.848 709.887 148.627 709.513C149.406 709.144 150.167 708.753 150.908 708.34C151.649 707.926 152.307 707.541 152.882 707.178L151.566 707.495C151.354 707.546 151.169 707.592 151.01 707.631C150.851 707.677 150.711 707.711 150.59 707.733C150.393 707.773 150.159 707.716 149.887 707.569C149.615 707.422 149.376 707.235 149.172 707.014C148.968 706.793 148.828 706.555 148.752 706.311C148.677 706.062 148.737 705.852 148.934 705.677H148.911C149.214 705.433 149.693 705.201 150.352 704.985C151.01 704.764 151.759 704.583 152.599 704.43C153.438 704.271 154.33 704.147 155.276 704.056C156.221 703.965 157.14 703.92 158.033 703.92C159.016 703.92 159.92 703.982 160.744 704.113C161.569 704.243 162.223 704.453 162.707 704.753C163.1 704.997 163.308 705.223 163.331 705.427C163.354 705.631 163.282 705.807 163.116 705.948C162.949 706.09 162.741 706.192 162.491 706.254C162.242 706.317 162.041 706.334 161.89 706.311C161.331 706.209 160.71 706.158 160.029 706.158C159.909 706.158 159.791 706.164 159.678 706.169C159.565 706.175 159.447 706.181 159.326 706.181C158.615 707.093 158.007 707.949 157.499 708.748C156.993 709.541 156.566 710.266 156.218 710.912C155.87 711.564 155.59 712.136 155.378 712.629C155.166 713.122 154.999 713.536 154.879 713.87C154.758 714.216 154.618 714.488 154.459 714.686C154.3 714.884 154.115 714.98 153.903 714.98C153.767 714.958 153.612 714.907 153.438 714.828C153.264 714.742 153.094 714.635 152.927 714.493C152.761 714.352 152.606 714.182 152.462 713.983C152.318 713.785 152.201 713.564 152.111 713.315C152.035 713.082 151.993 712.822 151.986 712.538C151.978 712.249 152.012 711.949 152.087 711.626L153.404 709.088Z" fill="#F7B500"/>
<path fill-rule="evenodd" clip-rule="evenodd" d="M195.966 695.095C196.118 695.078 196.329 695.106 196.602 695.174C196.874 695.242 197.158 695.339 197.453 695.452C197.748 695.571 198.032 695.707 198.304 695.86C198.576 696.019 198.792 696.178 198.95 696.342C199.11 696.512 199.193 696.676 199.2 696.835C199.208 696.994 199.091 697.135 198.848 697.26C198.395 697.481 197.813 697.906 197.101 698.53C196.39 699.153 195.615 699.895 194.775 700.757C193.935 701.613 193.058 702.553 192.143 703.574C191.228 704.593 190.331 705.602 189.454 706.606C190.316 706.333 191.16 705.971 191.984 705.512C192.808 705.053 193.614 704.543 194.401 703.97C195.188 703.403 195.948 702.808 196.681 702.185C197.415 701.562 198.114 700.944 198.78 700.337C199.431 699.731 200.081 699.147 200.732 698.586C201.382 698.025 202.026 697.515 202.661 697.056C203.296 696.603 203.928 696.217 204.556 695.906C205.184 695.6 205.815 695.395 206.451 695.299C206.693 695.259 206.954 695.231 207.233 695.214C207.513 695.197 207.782 695.186 208.039 695.186C208.674 695.186 209.227 695.254 209.695 695.395C210.165 695.543 210.437 695.735 210.513 695.985C210.588 696.166 210.516 696.342 210.297 696.501C210.077 696.659 209.688 696.795 209.128 696.909C208.705 696.994 208.27 697.169 207.824 697.43C207.377 697.691 206.919 698.008 206.451 698.393C205.981 698.773 205.498 699.21 204.998 699.691C204.499 700.173 203.992 700.672 203.478 701.193C202.751 701.919 201.961 702.672 201.106 703.454C200.252 704.231 199.329 704.979 198.338 705.699C197.347 706.413 196.292 707.07 195.172 707.66C194.053 708.255 192.866 708.725 191.61 709.071C191.942 709.728 192.29 710.312 192.654 710.822C193.017 711.338 193.368 711.785 193.709 712.176C194.049 712.567 194.367 712.896 194.662 713.168C194.956 713.44 195.202 713.656 195.399 713.814C195.747 714.115 195.982 714.347 196.103 714.523C196.224 714.693 196.141 714.846 195.853 714.982C195.747 715.021 195.543 715.016 195.24 714.965C194.938 714.914 194.583 714.823 194.174 714.676C193.765 714.534 193.334 714.347 192.88 714.103C192.427 713.865 192.003 713.571 191.61 713.225C191.02 712.681 190.498 712.091 190.044 711.451C189.59 710.816 189.212 710.187 188.909 709.57C188.834 709.581 188.762 709.592 188.694 709.598C188.626 709.604 188.554 709.609 188.478 709.609C188.327 709.62 188.164 709.626 187.99 709.626C187.817 709.626 187.661 709.626 187.525 709.626C187.404 709.626 187.295 709.626 187.196 709.626C187.097 709.626 186.995 709.62 186.889 709.609C186.088 710.561 185.403 711.377 184.836 712.063C184.269 712.749 183.894 713.208 183.713 713.446C183.591 713.559 183.399 713.622 183.134 713.639C182.87 713.661 182.601 713.627 182.328 713.537C182.056 713.452 181.822 713.321 181.625 713.14C181.429 712.959 181.345 712.726 181.375 712.443C181.391 712.358 181.61 712.012 182.034 711.406C182.457 710.799 183.017 710.034 183.713 709.105C182.835 708.838 182.09 708.487 181.477 708.062C180.865 707.631 180.35 707.178 179.934 706.696C179.518 706.215 179.193 705.733 178.958 705.24C178.724 704.752 178.546 704.316 178.425 703.936C178.319 703.613 178.247 703.347 178.21 703.137C178.172 702.927 178.153 702.791 178.153 702.729C178.138 702.559 178.199 702.378 178.335 702.185C178.471 701.992 178.637 701.873 178.834 701.834C179.03 701.788 179.246 701.856 179.481 702.038C179.715 702.213 179.931 702.587 180.128 703.154C180.173 703.33 180.282 703.607 180.456 703.993C180.63 704.373 180.91 704.775 181.296 705.194C181.682 705.614 182.196 706.005 182.839 706.356C183.482 706.708 184.303 706.934 185.301 707.03C185.952 706.192 186.64 705.313 187.366 704.401C188.092 703.483 188.818 702.587 189.545 701.709C190.271 700.83 190.978 699.997 191.666 699.198C192.355 698.399 192.986 697.702 193.561 697.101C194.136 696.506 194.632 696.025 195.048 695.656C195.464 695.294 195.77 695.106 195.966 695.095Z" fill="#F7B500"/>
<path fill-rule="evenodd" clip-rule="evenodd" d="M167.988 703.861C167.854 703.563 167.761 703.238 167.71 702.882C167.659 702.526 167.625 702.139 167.609 701.725C167.631 701.658 167.651 701.591 167.667 701.529C167.682 701.467 167.689 701.391 167.687 701.311C167.689 701.151 167.755 700.982 167.884 700.808C168.014 700.635 168.183 700.461 168.393 700.296C168.603 700.127 168.848 699.967 169.13 699.816C169.412 699.66 169.71 699.526 170.024 699.411C170.337 699.295 170.659 699.206 170.99 699.139C171.321 699.073 171.645 699.037 171.963 699.037C172.375 699.037 172.712 699.099 172.972 699.22C173.232 699.344 173.436 699.491 173.584 699.664C173.732 699.838 173.832 700.021 173.883 700.207C173.935 700.394 173.958 700.559 173.951 700.697C173.938 700.986 173.88 701.218 173.777 701.4C173.673 701.582 173.539 701.729 173.375 701.836C173.212 701.943 173.034 702.019 172.842 702.059C172.65 702.103 172.463 702.121 172.28 702.121C172.125 702.121 171.992 702.094 171.881 702.041C171.771 701.983 171.706 701.925 171.688 701.858C171.751 701.752 171.842 701.64 171.964 701.52C172.086 701.405 172.211 701.28 172.34 701.155C172.469 701.031 172.591 700.911 172.706 700.79C172.82 700.675 172.902 700.559 172.952 700.448C172.9 700.43 172.838 700.412 172.767 700.394C172.695 700.377 172.608 700.363 172.507 700.363C172.054 700.363 171.669 700.394 171.353 700.452C171.038 700.51 170.777 700.63 170.573 700.808C170.368 700.986 170.218 701.244 170.12 701.574C170.023 701.907 169.966 702.348 169.949 702.9C169.948 703.002 169.956 703.082 169.971 703.14C169.986 703.202 169.992 703.265 169.99 703.331C169.987 703.349 169.987 703.363 169.989 703.376C169.991 703.385 169.991 703.398 169.988 703.416C169.999 703.487 170.025 703.549 170.068 703.607C170.111 703.661 170.159 703.719 170.211 703.781C170.263 703.843 170.315 703.91 170.364 703.986C170.415 704.066 170.456 704.155 170.488 704.261L170.967 705.192C171.047 705.387 171.161 705.565 171.308 705.721C171.455 705.877 171.607 706.01 171.763 706.131C171.918 706.251 172.068 706.353 172.211 706.442C172.354 706.531 172.462 706.611 172.533 706.682L172.835 706.981C172.881 706.896 172.934 706.811 172.993 706.722C173.053 706.633 173.107 706.544 173.153 706.451C173.123 706.335 173.071 706.22 172.999 706.104C172.927 705.993 172.845 705.881 172.751 705.774C172.658 705.668 172.559 705.565 172.454 705.467C172.35 705.37 172.252 705.285 172.162 705.205C172.134 705.205 172.089 705.183 172.025 705.129C171.961 705.08 171.883 705.023 171.791 704.951C171.699 704.885 171.6 704.813 171.492 704.738C171.384 704.662 171.276 704.6 171.169 704.542C171.223 704.448 171.288 704.382 171.365 704.342C171.442 704.297 171.522 704.27 171.604 704.261H171.767C171.88 704.27 171.998 704.279 172.119 704.279C172.241 704.279 172.36 704.279 172.474 704.279C172.562 704.279 172.648 704.266 172.733 704.244C172.817 704.221 172.909 704.195 173.007 704.164C173.107 704.137 173.214 704.106 173.329 704.083C173.444 704.057 173.573 704.039 173.717 704.03L174.882 703.897C174.985 703.883 175.085 703.879 175.183 703.879C175.281 703.879 175.378 703.879 175.473 703.879C175.626 703.892 175.778 703.919 175.928 703.959C176.078 703.999 176.21 704.052 176.327 704.115C176.443 704.181 176.536 704.253 176.605 704.337C176.675 704.417 176.71 704.511 176.709 704.609C176.707 704.671 176.688 704.724 176.651 704.769C176.615 704.809 176.571 704.849 176.52 704.876C176.469 704.902 176.41 704.925 176.344 704.938C176.277 704.951 176.21 704.956 176.143 704.956C176.082 704.956 176.029 704.951 175.983 704.942C175.937 704.929 175.883 704.925 175.823 704.925C175.721 704.925 175.616 704.929 175.505 704.947C175.395 704.96 175.285 704.973 175.174 704.991C175.067 705.036 174.959 705.067 174.851 705.085C174.744 705.107 174.637 705.12 174.531 705.129C174.425 705.134 174.317 705.143 174.208 705.151C174.099 705.161 173.991 705.178 173.886 705.205C173.902 705.232 173.915 705.267 173.923 705.303C173.932 705.338 173.937 705.374 173.939 705.405C173.936 705.427 173.937 705.445 173.943 705.454C173.936 705.499 173.954 705.534 173.994 705.556C174.034 705.583 174.08 705.61 174.131 705.632C174.181 705.659 174.228 705.686 174.27 705.721C174.313 705.752 174.334 705.797 174.333 705.855L174.326 705.904C174.328 705.935 174.333 705.97 174.342 706.01C174.349 706.05 174.365 706.086 174.387 706.117C174.385 706.179 174.383 706.233 174.379 706.282C174.375 706.335 174.373 706.384 174.373 706.433C174.371 706.495 174.37 706.549 174.371 706.593C174.371 706.642 174.375 706.687 174.382 706.731C174.345 706.945 174.288 707.172 174.212 707.403C174.135 707.635 174.033 707.866 173.907 708.089C174.14 708.311 174.376 708.48 174.618 708.591C174.858 708.707 175.084 708.787 175.294 708.836C175.503 708.885 175.681 708.912 175.83 708.916C175.979 708.916 176.08 708.921 176.134 708.921C176.242 708.921 176.324 708.916 176.38 708.903C176.436 708.894 176.477 708.881 176.506 708.872C176.535 708.859 176.557 708.85 176.572 708.836C176.587 708.827 176.611 708.818 176.645 708.818C176.719 708.818 176.773 708.845 176.807 708.894C176.84 708.943 176.859 709.001 176.864 709.068C176.827 709.134 176.777 709.201 176.714 709.268C176.65 709.335 176.582 709.366 176.507 709.366C176.503 709.401 176.467 709.45 176.4 709.517C176.333 709.584 176.229 709.651 176.088 709.717C175.947 709.78 175.771 709.842 175.561 709.891C175.351 709.94 175.105 709.962 174.82 709.962C174.758 709.927 174.709 709.904 174.673 709.9C174.636 709.891 174.601 709.886 174.568 709.882C174.535 709.878 174.497 709.86 174.453 709.842C174.408 709.82 174.344 709.771 174.259 709.7C174.173 709.731 174.087 709.722 174 709.664C173.913 709.611 173.825 709.539 173.735 709.459C173.645 709.375 173.555 709.299 173.463 709.228C173.372 709.157 173.279 709.117 173.184 709.117C173.09 709.117 172.995 709.161 172.902 709.25C172.808 709.339 172.712 709.433 172.614 709.535C172.515 709.633 172.416 709.722 172.318 709.793C172.22 709.869 172.122 709.891 172.024 709.864C171.804 709.993 171.571 710.096 171.326 710.18C171.081 710.265 170.827 710.327 170.563 710.376C170.299 710.42 170.033 710.452 169.763 710.47C169.494 710.487 169.227 710.496 168.963 710.496C168.531 710.496 168.122 710.443 167.738 710.336C167.353 710.234 167.001 710.091 166.681 709.918C166.36 709.744 166.072 709.544 165.816 709.321C165.56 709.099 165.343 708.872 165.166 708.64C164.988 708.413 164.854 708.186 164.763 707.969C164.673 707.746 164.629 707.55 164.633 707.377C164.704 706.874 164.942 706.362 165.347 705.837C165.438 705.717 165.561 705.565 165.714 705.392C165.867 705.218 166.05 705.04 166.265 704.858C166.481 704.675 166.731 704.497 167.016 704.319C167.301 704.141 167.625 703.99 167.988 703.861ZM171.923 708.778C171.971 708.729 172.007 708.676 172.031 708.627C172.055 708.574 172.078 708.516 172.101 708.454C171.849 708.271 171.577 708.066 171.284 707.839C170.992 707.608 170.714 707.385 170.451 707.168C170.187 706.949 169.961 706.749 169.773 706.576C169.585 706.398 169.469 706.268 169.427 706.184C169.408 706.228 169.388 706.268 169.37 706.304C169.351 706.34 169.338 706.384 169.331 706.433L168.981 706.691C168.935 706.771 168.871 706.852 168.789 706.932C168.708 707.007 168.616 707.092 168.516 707.181C168.369 707.31 168.244 707.457 168.14 707.617C168.036 707.777 167.951 707.937 167.885 708.097C167.818 708.258 167.773 708.413 167.75 708.556C167.726 708.698 167.717 708.823 167.723 708.93C167.74 709.09 167.779 709.197 167.838 709.259C167.897 709.321 167.981 709.375 168.09 709.419L168.523 709.584C168.7 709.628 168.883 709.655 169.074 709.668C169.265 709.682 169.467 709.682 169.678 709.664C169.857 709.651 170.045 709.619 170.243 709.579C170.442 709.539 170.641 709.481 170.84 709.41C171.04 709.339 171.231 709.25 171.415 709.148C171.598 709.045 171.768 708.921 171.923 708.778Z" fill="#F7B500"/>
<path fill-rule="evenodd" clip-rule="evenodd" d="M221.866 695.093C222.017 695.076 222.229 695.104 222.5 695.172C222.773 695.24 223.056 695.337 223.353 695.45C223.647 695.569 223.93 695.705 224.203 695.858C224.475 696.017 224.691 696.176 224.85 696.34C225.009 696.51 225.092 696.674 225.099 696.833C225.107 696.992 224.989 697.134 224.748 697.258C224.294 697.479 223.711 697.905 223 698.528C222.288 699.152 221.513 699.894 220.673 700.756C219.834 701.612 218.956 702.553 218.04 703.573C217.125 704.593 216.228 705.602 215.351 706.606C216.213 706.334 217.056 705.971 217.881 705.512C218.706 705.053 219.512 704.542 220.299 703.97C221.086 703.403 221.847 702.808 222.58 702.184C223.315 701.561 224.015 700.943 224.68 700.336C225.33 699.73 225.981 699.146 226.631 698.585C227.282 698.024 227.927 697.514 228.561 697.054C229.197 696.601 229.829 696.215 230.456 695.904C231.085 695.597 231.717 695.393 232.353 695.297C232.594 695.257 232.855 695.229 233.136 695.212C233.416 695.195 233.684 695.184 233.942 695.184C234.578 695.184 235.129 695.252 235.598 695.393C236.067 695.541 236.34 695.734 236.416 695.983C236.491 696.164 236.42 696.34 236.201 696.499C235.98 696.657 235.591 696.794 235.031 696.907C234.607 696.992 234.172 697.168 233.725 697.428C233.279 697.689 232.822 698.007 232.353 698.392C231.884 698.772 231.399 699.208 230.899 699.69C230.4 700.172 229.893 700.671 229.379 701.192C228.653 701.918 227.861 702.672 227.006 703.454C226.152 704.231 225.229 704.979 224.237 705.699C223.247 706.413 222.191 707.071 221.071 707.66C219.95 708.255 218.763 708.726 217.507 709.072C217.839 709.729 218.188 710.313 218.551 710.823C218.914 711.339 219.266 711.787 219.606 712.178C219.947 712.569 220.265 712.898 220.56 713.17C220.855 713.442 221.102 713.657 221.298 713.816C221.645 714.117 221.88 714.349 222.002 714.525C222.123 714.695 222.04 714.848 221.751 714.984C221.645 715.023 221.442 715.018 221.138 714.967C220.836 714.916 220.48 714.825 220.072 714.678C219.663 714.536 219.232 714.349 218.778 714.105C218.324 713.867 217.9 713.572 217.507 713.227C216.916 712.682 216.394 712.093 215.941 711.452C215.487 710.817 215.108 710.188 214.805 709.57C214.73 709.582 214.658 709.593 214.59 709.599C214.522 709.604 214.45 709.61 214.374 709.61C214.223 709.621 214.06 709.627 213.886 709.627C213.712 709.627 213.557 709.627 213.421 709.627C213.3 709.627 213.19 709.627 213.092 709.627C212.993 709.627 212.891 709.621 212.785 709.61C211.983 710.562 211.298 711.379 210.731 712.065C210.163 712.75 209.789 713.21 209.607 713.448C209.486 713.561 209.293 713.623 209.028 713.64C208.763 713.663 208.494 713.629 208.222 713.538C207.95 713.453 207.716 713.323 207.519 713.142C207.322 712.96 207.239 712.728 207.269 712.444C207.284 712.359 207.504 712.013 207.927 711.407C208.351 710.8 208.911 710.035 209.607 709.105C208.73 708.839 207.984 708.488 207.371 708.063C206.758 707.632 206.243 707.178 205.827 706.696C205.411 706.215 205.086 705.733 204.851 705.24C204.617 704.752 204.439 704.316 204.318 703.936C204.212 703.613 204.14 703.346 204.103 703.137C204.064 702.927 204.046 702.791 204.046 702.728C204.031 702.558 204.091 702.377 204.227 702.184C204.363 701.991 204.53 701.873 204.727 701.833C204.923 701.787 205.139 701.856 205.373 702.037C205.608 702.213 205.823 702.587 206.021 703.154C206.066 703.329 206.175 703.607 206.349 703.993C206.524 704.372 206.804 704.775 207.19 705.194C207.576 705.614 208.09 706.005 208.733 706.356C209.376 706.708 210.197 706.935 211.196 707.031C211.847 706.192 212.536 705.313 213.262 704.401C213.988 703.482 214.714 702.587 215.441 701.708C216.167 700.829 216.875 699.996 217.563 699.197C218.252 698.398 218.884 697.701 219.459 697.1C220.034 696.504 220.529 696.023 220.946 695.654C221.362 695.291 221.668 695.104 221.866 695.093Z" fill="#F7B500"/>
</svg>
