<svg width="640" height="800" viewBox="0 0 640 800" fill="none" xmlns="http://www.w3.org/2000/svg">
<path d="M640 327.602L367.263 800H0V0H640V327.602Z" fill="black"/>
<path d="M124.699 62.3018L102.822 25.2023C101.654 23.2225 99.4955 22 97.1678 22H53.4148C51.0791 22 48.9205 23.2225 47.7523 25.2023L25.8758 62.3018C24.7081 64.2815 24.7081 66.7188 25.8758 68.6982L37.4665 88.3521L47.7523 105.798C48.9205 107.778 51.0791 109 53.4148 109H97.1678C99.4955 109 101.654 107.778 102.822 105.798L113.108 88.3521L124.699 68.6982C125.867 66.7188 125.867 64.2815 124.699 62.3018Z" fill="white"/>
<path d="M112.521 104.659V105.668H113.165C113.448 105.668 113.665 105.621 113.802 105.542C113.947 105.463 114.019 105.321 114.019 105.132C114.019 104.966 113.955 104.848 113.826 104.769C113.705 104.698 113.544 104.659 113.351 104.659H112.521ZM111.949 107.719V104.154H113.335C114.164 104.154 114.583 104.485 114.583 105.155C114.583 105.329 114.559 105.471 114.511 105.589C114.462 105.707 114.398 105.802 114.309 105.881C114.221 105.96 114.124 106.023 114.011 106.07C113.899 106.11 113.778 106.141 113.649 106.157L114.696 107.719H114.003L112.964 106.173H112.521V107.719H111.949ZM115.638 105.936C115.638 105.589 115.574 105.266 115.437 104.966C115.308 104.659 115.131 104.39 114.905 104.169C114.68 103.941 114.414 103.767 114.108 103.633C113.802 103.499 113.48 103.428 113.133 103.428C112.787 103.428 112.465 103.499 112.159 103.633C111.852 103.767 111.587 103.941 111.361 104.169C111.135 104.39 110.958 104.659 110.83 104.966C110.693 105.266 110.628 105.589 110.628 105.936C110.628 106.283 110.693 106.607 110.83 106.907C110.958 107.214 111.135 107.474 111.361 107.703C111.587 107.932 111.852 108.105 112.159 108.239C112.465 108.374 112.787 108.437 113.133 108.437C113.48 108.437 113.802 108.374 114.108 108.239C114.414 108.105 114.68 107.932 114.905 107.703C115.131 107.474 115.308 107.214 115.437 106.907C115.574 106.607 115.638 106.283 115.638 105.936ZM110.008 105.936C110.008 105.51 110.089 105.116 110.258 104.745C110.419 104.374 110.644 104.043 110.926 103.767C111.208 103.491 111.538 103.278 111.917 103.113C112.295 102.955 112.706 102.876 113.133 102.876C113.568 102.876 113.971 102.955 114.35 103.113C114.736 103.278 115.066 103.491 115.349 103.767C115.63 104.043 115.848 104.374 116.017 104.745C116.178 105.116 116.259 105.51 116.259 105.936C116.259 106.362 116.178 106.757 116.017 107.127C115.848 107.498 115.63 107.821 115.349 108.098C115.066 108.374 114.736 108.594 114.35 108.76C113.971 108.918 113.568 108.997 113.133 108.997C112.706 108.997 112.295 108.918 111.917 108.76C111.538 108.594 111.208 108.374 110.926 108.098C110.644 107.821 110.419 107.498 110.258 107.127C110.089 106.757 110.008 106.362 110.008 105.936Z" fill="white"/>
<path d="M124.699 62.302L116.217 47.9245H112.496V82.958H116.29L124.699 68.6984C125.867 66.719 125.867 64.2817 124.699 62.302Z" fill="#FBC421"/>
<path d="M34.3562 47.923L25.8749 62.3008C24.7149 64.2806 24.7149 66.7175 25.8749 68.6973L34.2839 82.9565H37.9004V47.923H34.3562Z" fill="#FBC421"/>
<path d="M102.822 25.1997C101.653 23.2202 99.4947 22.0055 97.167 22.0055H53.414C51.078 22.0055 48.9194 23.2202 47.7515 25.1997L37.5381 42.5195H113.035L102.822 25.1997Z" fill="#FBC421"/>
<path d="M113.107 88.356H37.4658L47.7516 105.802C48.9195 107.781 51.0781 108.996 53.4141 108.996H97.1671C99.4948 108.996 101.653 107.781 102.821 105.802L113.107 88.356Z" fill="#FBC421"/>
<path d="M43.415 47.8357H48.6023L53.5158 68.255V47.8357H58.3162V83.043H53.1289L48.4009 63.2705V83.043H43.415V47.8357Z" fill="#2B2F84"/>
<path d="M70.1884 70.5556L68.6337 55.9097L67.0874 70.5556H70.1884ZM75.0455 70.5556L76.7369 83.0483H71.4933L70.72 75.5793H66.5638L65.7745 83.0483H60.5469L62.2383 70.6108L65.0979 47.8332H72.2103L75.0455 70.5556Z" fill="#2B2F84"/>
<path d="M102.805 70.5556L101.25 55.9097L99.7036 70.5556H102.805ZM107.661 70.5556L109.353 83.0483H104.11L103.336 75.5793H99.18L98.3907 83.0483H93.1631L94.8545 70.6108L97.7141 47.8332H104.826L107.661 70.5556Z" fill="#2B2F84"/>
<path d="M84.1531 52.8421V65.5481H84.749C85.466 65.5481 85.9652 65.5007 86.231 65.406C87.1734 65.0354 87.9144 64.286 87.9144 63.166V55.2476C87.9144 53.6467 86.8916 52.8421 85.3853 52.8421H84.1531ZM78.9658 47.8341L85.9168 47.8497C90.5242 47.8497 92.8279 50.3183 92.8279 55.2476V63.166C92.8279 66.8019 91.1765 69.1445 87.866 70.2011C87.0687 70.4535 86.239 70.5796 84.725 70.5796H84.1531V83.0488H78.9658V47.8341Z" fill="#2B2F84"/>
<path d="M144.419 92.6535L147.519 75.1061L150.674 92.6535H144.419ZM140.821 68.1315L132.352 107.654H141.817L143.09 100.459H152.113L153.386 107.654H162.852L154.161 68.1315H140.821Z" fill="white"/>
<path d="M227.736 89.9409C227.57 98.2442 226.628 100.624 223.418 100.624C220.263 100.624 219.322 98.2442 219.156 89.9409L219.101 87.8929L219.156 85.8449C219.377 77.5419 220.318 75.1616 223.418 75.1616C226.573 75.1616 227.514 77.5419 227.736 85.8449L227.791 87.8929L227.736 89.9409ZM179.072 68.1315V94.4248C179.072 99.4066 177.798 100.624 175.474 100.624C172.983 100.624 171.875 98.7424 171.875 94.4248V68.1315H162.41V94.4248C162.41 105.44 166.285 108.429 175.474 108.429C185.271 108.429 188.593 104.61 188.593 94.4248V75.9366H194.634V107.654H204.1V75.9366H210.816C210.151 78.5045 209.792 81.7589 209.635 85.8449L209.579 87.8929L209.635 89.9409C210.078 104.278 213.233 108.429 223.418 108.429C233.769 108.429 236.814 104.333 237.201 89.9409L237.256 87.8929L237.201 85.8449C236.869 71.5082 233.714 67.3566 223.418 67.3566C217.473 67.3566 213.964 68.7571 211.96 72.7813V68.1315H179.072Z" fill="white"/>
<path d="M259.897 85.2915H257.129V75.9366H259.897C262.443 75.9366 264.104 77.0989 264.104 80.6416C264.104 83.4646 263.107 85.2915 259.897 85.2915ZM273.569 80.6416C273.569 73.1133 270.303 68.1315 259.897 68.1315H247.664V107.654H257.129V93.0962H259.897C268.089 93.0962 273.569 90.1625 273.569 80.6416Z" fill="#FBC421"/>
<path d="M313.21 83.9628H309.501V75.9366H313.21C315.756 75.9366 317.362 76.9882 317.362 80.1434C317.362 82.4681 316.421 83.9628 313.21 83.9628ZM282.156 92.6535L285.256 75.1061L288.411 92.6535H282.156ZM309.501 107.654V91.7678H311.882L317.196 107.654H327.103L320.351 90.7162C324.392 89.2768 326.829 86.0664 326.829 80.1434C326.829 78.6274 326.68 77.2185 326.355 75.9366H332.925V107.654H342.388V75.9366H348.864C348.616 76.9083 348.484 77.9446 348.484 79.0362C348.484 85.1251 351.363 88.6126 359.112 91.9338C363.376 93.7607 365.422 95.5872 365.422 97.6908C365.422 99.2958 364.26 100.403 362.157 100.403C359.722 100.403 357.287 98.2442 355.072 93.9266L347.766 98.0782C351.031 105.385 355.295 108.429 361.991 108.429C369.964 108.429 375 104.222 375 97.8012C375 90.1624 371.403 87.0072 364.704 84.0735C359.61 81.8595 357.785 80.0882 357.785 78.3168C357.785 76.7667 359.058 75.6598 360.941 75.6598C363.211 75.6598 365.588 77.6523 367.529 81.5825L374.445 77.6523C372.01 71.01 368.027 67.4118 361.327 67.4118C356.593 67.4118 352.793 69.2221 350.588 72.2459V68.1315H324.78V72.4738C322.791 69.7365 319.181 68.1315 313.21 68.1315H300.036V105.141L291.898 68.1315H278.558L270.088 107.654H279.554L280.827 100.459H289.85L291.123 107.654H309.501Z" fill="#FBC421"/>
<path fill-rule="evenodd" clip-rule="evenodd" d="M136.64 57.5675L141.406 56.7516C141.406 56.7516 141.338 56.9103 141.244 57.0236C141.188 57.0916 140.374 57.3749 139.881 57.5109C139.486 57.6185 139.256 57.7546 139.296 58.0378C139.307 58.1172 139.339 58.1908 139.409 58.2475C139.443 58.2702 139.461 58.2702 139.585 58.2475C141.847 57.8112 144.113 57.3579 146.376 56.9726C147.542 56.78 155.537 55.7544 157.29 55.5787C160.304 55.2727 165.359 54.8421 167.927 54.6664C169.739 54.5475 177.341 54.2301 178.914 54.2132C185.769 54.1338 196.157 54.5417 203.055 55.0234C207.134 55.3124 218.707 56.2927 223.647 57.086C227.231 57.6639 233.622 58.7008 234.107 58.7291C234.767 58.7688 235.177 58.7235 235.211 58.1285C235.217 58.0095 235.191 57.9189 235.098 57.7205C235.018 57.5506 234.888 57.3012 234.888 57.3012C234.888 57.3012 236.073 57.2219 236.608 57.086C236.971 56.9953 237.091 56.695 236.85 56.355C236.789 56.27 236.711 56.202 236.608 56.1283C236.3 55.9244 235.906 55.777 235.957 55.5957C236.037 55.3237 236.619 55.4824 236.977 55.4484C237.245 55.4201 237.466 55.2954 237.306 55.0914C237.155 54.8931 236.4 54.6947 236.185 54.6381C232.323 53.5728 222.345 52.2923 219.945 51.9862C216.567 51.5613 212.311 51.0797 209.47 50.802C207.618 50.6264 194.542 49.6915 192.158 49.5668C184.191 49.1589 169.663 48.8075 160.051 49.3231C155.353 49.5781 143.636 50.6887 140.855 51.0968C138.766 51.3971 136.701 51.7767 134.627 52.1279C134.503 52.1506 134.482 52.1563 134.425 52.1846C134.216 52.281 134.17 52.5189 134.278 52.6209C134.434 52.7739 135.048 52.8646 135.236 53.0289C135.357 53.1366 135.308 53.2385 135.171 53.3178C134.927 53.4652 133.348 53.7032 133.125 53.8391C132.936 53.9582 132.856 54.2529 133.125 54.4058C133.479 54.6098 134.672 54.9498 134.672 54.9498C134.672 54.9498 134.569 55.0687 134.456 55.1707C134.3 55.3124 132.981 55.6241 132.589 55.8393C132.38 55.9527 132.203 56.4457 132.54 56.6157C132.608 56.6553 132.714 56.6893 132.806 56.712C132.929 56.746 132.956 56.746 133.08 56.7233C142.378 54.9951 142.979 54.7344 150.079 53.8901C152.135 53.6466 158.591 53.0232 159.905 52.9496C160.547 52.9099 170.381 52.3376 172.894 52.587C173.291 52.6323 173.725 52.6832 173.725 52.6832C173.725 52.6832 166.839 52.9156 161.935 53.2046C160.603 53.2839 152.564 54.0488 151.005 54.2472C145.608 54.9214 145.312 55.0518 138.646 56.2587C138.085 56.3606 136.397 56.814 136.275 56.8933C136.054 57.0406 135.965 57.3296 136.307 57.5279C136.347 57.5506 136.39 57.5675 136.435 57.5789C136.495 57.5902 136.516 57.5902 136.64 57.5675Z" fill="#D30026"/>
<path d="M136.64 57.5675L141.406 56.7516C141.406 56.7516 141.338 56.9103 141.244 57.0236C141.188 57.0916 140.374 57.3749 139.881 57.5109C139.486 57.6185 139.256 57.7546 139.296 58.0378C139.307 58.1172 139.339 58.1908 139.409 58.2475C139.443 58.2702 139.461 58.2702 139.585 58.2475C141.847 57.8112 144.113 57.3579 146.376 56.9726C147.542 56.78 155.537 55.7544 157.29 55.5787C160.304 55.2727 165.359 54.8421 167.927 54.6664C169.739 54.5475 177.341 54.2301 178.914 54.2132C185.769 54.1338 196.157 54.5417 203.055 55.0234C207.134 55.3124 218.707 56.2927 223.647 57.086C227.231 57.6639 233.622 58.7008 234.107 58.7291C234.767 58.7688 235.177 58.7235 235.211 58.1285C235.217 58.0095 235.191 57.9189 235.098 57.7205C235.018 57.5506 234.888 57.3012 234.888 57.3012C234.888 57.3012 236.073 57.2219 236.608 57.086C236.971 56.9953 237.091 56.695 236.85 56.355C236.789 56.27 236.711 56.202 236.608 56.1283C236.3 55.9244 235.906 55.777 235.957 55.5957C236.037 55.3237 236.619 55.4824 236.977 55.4484C237.245 55.4201 237.466 55.2954 237.306 55.0914C237.155 54.8931 236.4 54.6947 236.185 54.6381C232.323 53.5728 222.345 52.2923 219.945 51.9862C216.567 51.5613 212.311 51.0797 209.47 50.802C207.618 50.6264 194.542 49.6915 192.158 49.5668C184.191 49.1589 169.663 48.8075 160.051 49.3231C155.353 49.5781 143.636 50.6887 140.855 51.0968C138.766 51.3971 136.701 51.7767 134.627 52.1279C134.503 52.1506 134.482 52.1563 134.425 52.1846C134.216 52.281 134.17 52.5189 134.278 52.6209C134.434 52.7739 135.048 52.8646 135.236 53.0289C135.357 53.1366 135.308 53.2385 135.171 53.3178C134.927 53.4652 133.348 53.7032 133.125 53.8391C132.936 53.9582 132.856 54.2529 133.125 54.4058C133.479 54.6098 134.672 54.9498 134.672 54.9498C134.672 54.9498 134.569 55.0687 134.456 55.1707C134.3 55.3124 132.981 55.6241 132.589 55.8393C132.38 55.9527 132.203 56.4457 132.54 56.6157C132.608 56.6553 132.714 56.6893 132.806 56.712C132.929 56.746 132.956 56.746 133.08 56.7233C142.378 54.9951 142.979 54.7344 150.079 53.8901C152.135 53.6466 158.591 53.0232 159.905 52.9496C160.547 52.9099 170.381 52.3376 172.894 52.587C173.291 52.6323 173.725 52.6832 173.725 52.6832C173.725 52.6832 166.839 52.9156 161.935 53.2046C160.603 53.2839 152.564 54.0488 151.005 54.2472C145.608 54.9214 145.312 55.0518 138.646 56.2587C138.085 56.3606 136.397 56.814 136.275 56.8933C136.054 57.0406 135.965 57.3296 136.307 57.5279C136.347 57.5506 136.39 57.5675 136.435 57.5789C136.495 57.5902 136.516 57.5902 136.64 57.5675Z" stroke="#D30026" stroke-width="0.133333"/>
<path fill-rule="evenodd" clip-rule="evenodd" d="M153.404 40.0872C152.799 40.5064 152.152 40.9371 151.464 41.3677C150.775 41.7984 150.103 42.195 149.444 42.5519C148.786 42.9147 148.174 43.2036 147.606 43.436C147.039 43.6625 146.574 43.7816 146.211 43.7929C146.045 43.7929 145.806 43.7759 145.496 43.7419C145.186 43.7023 144.842 43.6342 144.464 43.5379C144.086 43.436 143.696 43.3056 143.295 43.1355C142.894 42.9713 142.516 42.7559 142.16 42.4953C141.805 42.2403 141.499 41.9287 141.242 41.5717C140.985 41.2146 140.811 40.7954 140.72 40.3082C140.569 39.5206 140.621 38.7103 140.879 37.8717C141.136 37.0387 141.536 36.2114 142.081 35.3898C142.625 34.5682 143.291 33.7636 144.078 32.9816C144.864 32.1941 145.719 31.4518 146.642 30.7549C147.565 30.0579 148.529 29.412 149.535 28.817C150.541 28.2277 151.54 27.7177 152.53 27.2985C153.521 26.8791 154.478 26.5505 155.401 26.3068C156.324 26.0688 157.155 25.9441 157.897 25.9441C158.82 25.9441 159.602 26.0688 160.245 26.3182C160.888 26.5618 161.406 26.8508 161.8 27.1681C162.193 27.4911 162.48 27.8084 162.662 28.1143C162.843 28.4261 162.934 28.647 162.934 28.783C162.889 29.378 162.745 29.9106 162.503 30.3921C162.261 30.8738 161.966 31.3045 161.618 31.6841C161.27 32.058 160.9 32.3925 160.506 32.6813C160.113 32.9759 159.75 33.2309 159.417 33.4519C159.296 33.537 159.183 33.6107 159.076 33.673C158.971 33.7353 158.88 33.7977 158.804 33.86C158.456 34.1093 158.12 34.1943 157.795 34.1207C157.469 34.0469 157.182 33.9053 156.932 33.7013C156.683 33.4973 156.49 33.2764 156.354 33.027C156.218 32.7777 156.164 32.6133 156.195 32.5284C156.225 32.4661 156.278 32.4036 156.354 32.3527C156.43 32.296 156.512 32.2507 156.603 32.2111C156.754 32.1601 156.936 32.0865 157.147 31.9901C157.359 31.8881 157.605 31.7124 157.885 31.4518C158.165 31.1911 158.483 30.8228 158.838 30.3412C159.194 29.8595 159.591 29.1966 160.029 28.358L160.075 28.375L160.143 28.154C160.113 28.1994 160.022 28.2391 159.871 28.2617C159.613 28.3014 159.198 28.4146 158.623 28.6073C158.048 28.8 157.375 29.055 156.603 29.378C155.832 29.6953 154.992 30.0805 154.085 30.5225C153.177 30.9701 152.261 31.4744 151.339 32.0467C150.416 32.6133 149.52 33.2309 148.65 33.9053C147.78 34.5795 147.005 35.3049 146.324 36.0754C145.643 36.846 145.08 37.6676 144.634 38.5289C144.188 39.3958 143.926 40.3024 143.851 41.2544C143.836 41.379 143.874 41.5208 143.964 41.685C144.055 41.8437 144.154 41.9287 144.26 41.94C144.864 41.8947 145.549 41.736 146.313 41.4696C147.077 41.2035 147.848 40.8862 148.627 40.5121C149.406 40.1438 150.167 39.7528 150.908 39.3392C151.649 38.9255 152.307 38.5402 152.882 38.1776L151.566 38.4949C151.354 38.5459 151.169 38.5912 151.01 38.631C150.851 38.6763 150.711 38.7103 150.59 38.7329C150.393 38.7726 150.159 38.7159 149.887 38.5686C149.615 38.4213 149.376 38.2343 149.172 38.0133C148.968 37.7924 148.828 37.5544 148.752 37.3107C148.677 37.0614 148.737 36.8517 148.934 36.6761H148.911C149.214 36.4325 149.693 36.2001 150.352 35.9848C151.01 35.7638 151.759 35.5825 152.599 35.4295C153.438 35.2708 154.33 35.1462 155.276 35.0555C156.221 34.9648 157.14 34.9195 158.033 34.9195C159.016 34.9195 159.92 34.9819 160.744 35.1122C161.569 35.2426 162.223 35.4521 162.707 35.7524C163.1 35.9961 163.308 36.2228 163.331 36.4268C163.354 36.6307 163.282 36.8064 163.116 36.948C162.949 37.0897 162.741 37.1918 162.491 37.2539C162.242 37.3164 162.041 37.3334 161.89 37.3107C161.331 37.2086 160.71 37.1577 160.029 37.1577C159.909 37.1577 159.791 37.1633 159.678 37.169C159.565 37.1747 159.447 37.1803 159.326 37.1803C158.615 38.0925 158.007 38.9483 157.499 39.7471C156.993 40.5404 156.566 41.2658 156.218 41.9117C155.87 42.5632 155.59 43.1355 155.378 43.6285C155.166 44.1215 154.999 44.5351 154.879 44.8694C154.758 45.2151 154.618 45.4871 154.459 45.6853C154.3 45.8837 154.115 45.98 153.903 45.98C153.767 45.9573 153.612 45.9064 153.438 45.8271C153.264 45.742 153.094 45.6344 152.927 45.4928C152.761 45.3511 152.606 45.1812 152.462 44.9828C152.318 44.7844 152.201 44.5634 152.111 44.3142C152.035 44.0819 151.993 43.8212 151.986 43.5379C151.978 43.2489 152.012 42.9486 152.087 42.6255L153.404 40.0872Z" fill="#F7B500"/>
<path fill-rule="evenodd" clip-rule="evenodd" d="M195.966 26.0947C196.118 26.0777 196.329 26.1059 196.602 26.174C196.874 26.242 197.158 26.3384 197.453 26.4516C197.748 26.5707 198.032 26.7068 198.304 26.8597C198.576 27.0184 198.792 27.1771 198.95 27.3415C199.11 27.5114 199.193 27.6758 199.2 27.8345C199.208 27.9932 199.091 28.1348 198.848 28.2596C198.395 28.4806 197.813 28.9056 197.101 29.529C196.39 30.1524 195.615 30.8949 194.775 31.7563C193.935 32.612 193.058 33.5529 192.143 34.573C191.228 35.593 190.331 36.6018 189.454 37.6051C190.316 37.333 191.16 36.9702 191.984 36.5112C192.808 36.0522 193.614 35.542 194.401 34.9696C195.188 34.403 195.948 33.8079 196.681 33.1845C197.415 32.5611 198.114 31.9433 198.78 31.3369C199.431 30.7305 200.081 30.1468 200.732 29.5856C201.382 29.0247 202.026 28.5145 202.661 28.0555C203.296 27.6022 203.928 27.2168 204.556 26.9051C205.184 26.599 205.815 26.395 206.451 26.2986C206.693 26.2589 206.954 26.2306 207.233 26.2136C207.513 26.1966 207.782 26.1853 208.039 26.1853C208.674 26.1853 209.227 26.2533 209.695 26.395C210.165 26.5424 210.437 26.735 210.513 26.9844C210.588 27.1658 210.516 27.3415 210.297 27.5001C210.077 27.6588 209.688 27.7949 209.128 27.9081C208.705 27.9932 208.27 28.1689 207.824 28.4296C207.377 28.6903 206.919 29.0077 206.451 29.3929C205.981 29.7727 205.498 30.2092 204.998 30.6909C204.499 31.1725 203.992 31.6712 203.478 32.1927C202.751 32.9182 201.961 33.6718 201.106 34.4539C200.252 35.2304 199.329 35.9784 198.338 36.6982C197.347 37.4124 196.292 38.0698 195.172 38.6592C194.053 39.2541 192.866 39.7246 191.61 40.0702C191.942 40.7276 192.29 41.3114 192.654 41.8215C193.017 42.3372 193.368 42.785 193.709 43.1759C194.049 43.567 194.367 43.8957 194.662 44.1677C194.956 44.4399 195.202 44.6552 195.399 44.8139C195.747 45.1142 195.982 45.3466 196.103 45.5223C196.224 45.6923 196.141 45.8452 195.853 45.9813C195.747 46.021 195.543 46.0153 195.24 45.9643C194.938 45.9133 194.583 45.8226 194.174 45.6753C193.765 45.5336 193.334 45.3466 192.88 45.1029C192.427 44.8649 192.003 44.5701 191.61 44.2245C191.02 43.6804 190.498 43.091 190.044 42.4506C189.59 41.8158 189.212 41.1868 188.909 40.569C188.834 40.5804 188.762 40.5917 188.694 40.5974C188.626 40.603 188.554 40.6087 188.478 40.6087C188.327 40.62 188.164 40.6257 187.99 40.6257C187.817 40.6257 187.661 40.6257 187.525 40.6257C187.404 40.6257 187.295 40.6257 187.196 40.6257C187.097 40.6257 186.995 40.62 186.889 40.6087C186.088 41.5609 185.403 42.3768 184.836 43.0627C184.269 43.7484 183.894 44.2074 183.713 44.4454C183.591 44.5588 183.399 44.6212 183.134 44.6382C182.87 44.6609 182.601 44.6269 182.328 44.5361C182.056 44.451 181.822 44.3208 181.625 44.1394C181.429 43.958 181.345 43.7257 181.375 43.4424C181.391 43.3573 181.61 43.0117 182.034 42.4053C182.457 41.7989 183.017 41.0337 183.713 40.1042C182.835 39.8379 182.09 39.4866 181.477 39.0616C180.865 38.6309 180.35 38.1774 179.934 37.6957C179.518 37.214 179.193 36.7322 178.958 36.2392C178.724 35.7517 178.546 35.3153 178.425 34.9358C178.319 34.6127 178.247 34.3463 178.21 34.1366C178.172 33.927 178.153 33.7909 178.153 33.7286C178.138 33.5586 178.199 33.3772 178.335 33.1845C178.471 32.9918 178.637 32.8727 178.834 32.8331C179.03 32.7878 179.246 32.8557 179.481 33.0371C179.715 33.2128 179.931 33.5869 180.128 34.1536C180.173 34.3292 180.282 34.607 180.456 34.9924C180.63 35.3721 180.91 35.7745 181.296 36.1939C181.682 36.6131 182.196 37.0042 182.839 37.3556C183.482 37.707 184.303 37.9337 185.301 38.03C185.952 37.1912 186.64 36.3128 187.366 35.4004C188.092 34.4823 188.818 33.5869 189.545 32.7085C190.271 31.8299 190.978 30.9968 191.666 30.1979C192.355 29.3986 192.986 28.7016 193.561 28.1008C194.136 27.5057 194.632 27.0241 195.048 26.6557C195.464 26.2931 195.77 26.1059 195.966 26.0947Z" fill="#F7B500"/>
<path fill-rule="evenodd" clip-rule="evenodd" d="M167.988 34.8605C167.854 34.5624 167.761 34.2374 167.71 33.8815C167.659 33.5254 167.625 33.1383 167.609 32.7244C167.631 32.6577 167.651 32.5909 167.667 32.5286C167.682 32.4664 167.689 32.3907 167.687 32.3105C167.689 32.1504 167.755 31.9812 167.884 31.8077C168.014 31.6341 168.183 31.4606 168.393 31.2959C168.603 31.1268 168.848 30.9666 169.13 30.8153C169.412 30.6596 169.71 30.526 170.024 30.4103C170.337 30.2947 170.659 30.2057 170.99 30.1389C171.321 30.0721 171.645 30.0365 171.963 30.0365C172.375 30.0365 172.712 30.0988 172.972 30.219C173.232 30.3436 173.436 30.4904 173.584 30.664C173.732 30.8376 173.832 31.02 173.883 31.2069C173.935 31.3938 173.958 31.5585 173.951 31.6964C173.938 31.9857 173.88 32.2172 173.777 32.3996C173.673 32.5819 173.539 32.7289 173.375 32.8356C173.212 32.9425 173.034 33.0182 172.842 33.0582C172.65 33.1027 172.463 33.1205 172.28 33.1205C172.125 33.1205 171.992 33.0938 171.881 33.0404C171.771 32.9826 171.706 32.9246 171.688 32.8578C171.751 32.7511 171.842 32.6399 171.964 32.5198C172.086 32.4041 172.211 32.2793 172.34 32.1549C172.469 32.0301 172.591 31.91 172.706 31.7899C172.82 31.6742 172.902 31.5585 172.952 31.4472C172.9 31.4294 172.838 31.4117 172.767 31.3938C172.695 31.3761 172.608 31.3627 172.507 31.3627C172.054 31.3627 171.669 31.3938 171.353 31.4516C171.038 31.5095 170.777 31.6296 170.573 31.8077C170.368 31.9857 170.218 32.2439 170.12 32.5731C170.023 32.9069 169.966 33.3475 169.949 33.8993C169.948 34.0017 169.956 34.0817 169.971 34.1395C169.986 34.2019 169.992 34.2641 169.99 34.3309C169.987 34.3488 169.987 34.3621 169.989 34.3753C169.991 34.3843 169.991 34.3977 169.988 34.4154C169.999 34.4867 170.025 34.549 170.068 34.6068C170.111 34.6602 170.159 34.718 170.211 34.7805C170.263 34.8426 170.315 34.9094 170.364 34.9851C170.415 35.0652 170.456 35.1543 170.488 35.261L170.967 36.1911C171.047 36.3868 171.161 36.5649 171.308 36.7207C171.455 36.8765 171.607 37.0099 171.763 37.13C171.918 37.2503 172.068 37.3525 172.211 37.4415C172.354 37.5305 172.462 37.6107 172.533 37.6819L172.835 37.9801C172.881 37.8955 172.934 37.8109 172.993 37.7219C173.053 37.6329 173.107 37.5439 173.153 37.4505C173.123 37.3348 173.071 37.2191 172.999 37.1033C172.927 36.9921 172.845 36.8809 172.751 36.774C172.658 36.6672 172.559 36.5649 172.454 36.467C172.35 36.3691 172.252 36.2845 172.162 36.2044C172.134 36.2044 172.089 36.1822 172.025 36.1288C171.961 36.0799 171.883 36.0221 171.791 35.9508C171.699 35.8841 171.6 35.8128 171.492 35.7371C171.384 35.6615 171.276 35.5992 171.169 35.5414C171.223 35.4479 171.288 35.3812 171.365 35.3412C171.442 35.2966 171.522 35.2699 171.604 35.261H171.767C171.88 35.2699 171.998 35.2789 172.119 35.2789C172.241 35.2789 172.36 35.2789 172.474 35.2789C172.562 35.2789 172.648 35.2655 172.733 35.2433C172.817 35.2209 172.909 35.1943 173.007 35.1631C173.107 35.1364 173.214 35.1053 173.329 35.083C173.444 35.0564 173.573 35.0385 173.717 35.0297L174.882 34.8961C174.985 34.8827 175.085 34.8784 175.183 34.8784C175.281 34.8784 175.378 34.8784 175.473 34.8784C175.626 34.8917 175.778 34.9184 175.928 34.9584C176.078 34.9984 176.21 35.0519 176.327 35.1142C176.443 35.1808 176.536 35.2521 176.605 35.3366C176.675 35.4168 176.71 35.5102 176.709 35.6082C176.707 35.6704 176.688 35.7238 176.651 35.7684C176.615 35.8083 176.571 35.8484 176.52 35.8751C176.469 35.9018 176.41 35.924 176.344 35.9374C176.277 35.9508 176.21 35.9553 176.143 35.9553C176.082 35.9553 176.029 35.9508 175.983 35.9419C175.937 35.9285 175.883 35.924 175.823 35.924C175.721 35.924 175.616 35.9285 175.505 35.9463C175.395 35.9598 175.285 35.973 175.174 35.9908C175.067 36.0353 174.959 36.0665 174.851 36.0842C174.744 36.1066 174.637 36.1199 174.531 36.1288C174.425 36.1333 174.317 36.1422 174.208 36.151C174.099 36.16 173.991 36.1777 173.886 36.2044C173.902 36.2312 173.915 36.2667 173.923 36.3023C173.932 36.3379 173.937 36.3736 173.939 36.4047C173.936 36.4269 173.937 36.4448 173.943 36.4536C173.936 36.4981 173.954 36.5338 173.994 36.556C174.034 36.5827 174.08 36.6095 174.131 36.6317C174.181 36.6584 174.228 36.6851 174.27 36.7207C174.313 36.7518 174.334 36.7963 174.333 36.8541L174.326 36.9031C174.328 36.9343 174.333 36.9699 174.342 37.0099C174.349 37.0499 174.365 37.0856 174.387 37.1167C174.385 37.179 174.383 37.2324 174.379 37.2814C174.375 37.3348 174.373 37.3837 174.373 37.4327C174.371 37.495 174.37 37.5484 174.371 37.593C174.371 37.6418 174.375 37.6864 174.382 37.7309C174.345 37.9444 174.288 38.1714 174.212 38.4028C174.135 38.6342 174.033 38.8656 173.907 39.0881C174.14 39.3106 174.376 39.4797 174.618 39.591C174.858 39.7067 175.084 39.7869 175.294 39.8357C175.503 39.8847 175.681 39.9115 175.83 39.9158C175.979 39.9158 176.08 39.9203 176.134 39.9203C176.242 39.9203 176.324 39.9158 176.38 39.9025C176.436 39.8936 176.477 39.8802 176.506 39.8714C176.535 39.858 176.557 39.8492 176.572 39.8357C176.587 39.8268 176.611 39.8179 176.645 39.8179C176.719 39.8179 176.773 39.8447 176.807 39.8936C176.84 39.9425 176.859 40.0003 176.864 40.0671C176.827 40.1339 176.777 40.2007 176.714 40.2674C176.65 40.3342 176.582 40.3653 176.507 40.3653C176.503 40.401 176.467 40.4499 176.4 40.5166C176.333 40.5834 176.229 40.6502 176.088 40.7168C175.947 40.7791 175.771 40.8416 175.561 40.8905C175.351 40.9394 175.105 40.9617 174.82 40.9617C174.758 40.9261 174.709 40.9039 174.673 40.8994C174.636 40.8905 174.601 40.886 174.568 40.8815C174.535 40.8771 174.497 40.8593 174.453 40.8416C174.408 40.8192 174.344 40.7703 174.259 40.6991C174.173 40.7302 174.087 40.7213 174 40.6635C173.913 40.6101 173.825 40.5389 173.735 40.4588C173.645 40.3743 173.555 40.2986 173.463 40.2273C173.372 40.1562 173.279 40.1161 173.184 40.1161C173.09 40.1161 172.995 40.1607 172.902 40.2497C172.808 40.3387 172.712 40.4321 172.614 40.5344C172.515 40.6323 172.416 40.7213 172.318 40.7925C172.22 40.8683 172.122 40.8905 172.024 40.8638C171.804 40.9927 171.571 41.0951 171.326 41.1798C171.081 41.2643 170.827 41.3266 170.563 41.3755C170.299 41.4199 170.033 41.4512 169.763 41.469C169.494 41.4867 169.227 41.4956 168.963 41.4956C168.531 41.4956 168.122 41.4423 167.738 41.3354C167.353 41.2331 167.001 41.0907 166.681 40.9172C166.36 40.7435 166.072 40.5433 165.816 40.3208C165.56 40.0984 165.343 39.8714 165.166 39.6399C164.988 39.4129 164.854 39.186 164.763 38.968C164.673 38.7455 164.629 38.5497 164.633 38.3761C164.704 37.8732 164.942 37.3615 165.347 36.8364C165.438 36.7162 165.561 36.5649 165.714 36.3913C165.867 36.2178 166.05 36.0398 166.265 35.8574C166.481 35.6749 166.731 35.497 167.016 35.3188C167.301 35.1409 167.625 34.9896 167.988 34.8605ZM171.923 39.7779C171.971 39.7289 172.007 39.6755 172.031 39.6266C172.055 39.5733 172.078 39.5153 172.101 39.453C171.849 39.2706 171.577 39.0659 171.284 38.8389C170.992 38.6076 170.714 38.385 170.451 38.167C170.187 37.9489 169.961 37.7487 169.773 37.5751C169.585 37.3971 169.469 37.268 169.427 37.1835C169.408 37.2279 169.388 37.268 169.37 37.3036C169.351 37.3393 169.338 37.3837 169.331 37.4327L168.981 37.6907C168.935 37.7709 168.871 37.851 168.789 37.931C168.708 38.0067 168.616 38.0914 168.516 38.1802C168.369 38.3093 168.244 38.4561 168.14 38.6164C168.036 38.7766 167.951 38.9368 167.885 39.097C167.818 39.2573 167.773 39.4129 167.75 39.5554C167.726 39.6977 167.717 39.8225 167.723 39.9292C167.74 40.0894 167.779 40.1962 167.838 40.2585C167.897 40.3208 167.981 40.3743 168.09 40.4187L168.523 40.5834C168.7 40.628 168.883 40.6545 169.074 40.6679C169.265 40.6812 169.467 40.6812 169.678 40.6635C169.857 40.6502 170.045 40.6189 170.243 40.5789C170.442 40.5389 170.641 40.481 170.84 40.4098C171.04 40.3387 171.231 40.2497 171.415 40.1473C171.598 40.0449 171.768 39.9203 171.923 39.7779Z" fill="#F7B500"/>
<path fill-rule="evenodd" clip-rule="evenodd" d="M221.866 26.0926C222.017 26.0755 222.229 26.1038 222.5 26.1719C222.773 26.2398 223.056 26.3363 223.353 26.4497C223.647 26.5687 223.93 26.7047 224.203 26.8577C224.475 27.0164 224.691 27.1752 224.85 27.3395C225.009 27.5096 225.092 27.674 225.099 27.8327C225.107 27.9914 224.989 28.1331 224.748 28.2579C224.294 28.4789 223.711 28.9041 223 29.5276C222.288 30.1512 221.513 30.8938 220.673 31.7554C219.834 32.6112 218.956 33.5522 218.04 34.5726C217.125 35.5929 216.228 36.6019 215.351 37.6051C216.213 37.3332 217.056 36.9704 217.881 36.5113C218.706 36.0521 219.512 35.5419 220.299 34.9694C221.086 34.4025 221.847 33.8074 222.58 33.1838C223.315 32.5603 224.015 31.9424 224.68 31.3358C225.33 30.7293 225.981 30.1455 226.631 29.5843C227.282 29.0232 227.927 28.513 228.561 28.0538C229.197 27.6003 229.829 27.2149 230.456 26.9032C231.085 26.5969 231.717 26.3929 232.353 26.2966C232.594 26.257 232.855 26.2285 233.136 26.2115C233.416 26.1945 233.684 26.1832 233.942 26.1832C234.578 26.1832 235.129 26.2513 235.598 26.3929C236.067 26.5403 236.34 26.7331 236.416 26.9825C236.491 27.1638 236.42 27.3395 236.201 27.4983C235.98 27.657 235.591 27.793 235.031 27.9065C234.607 27.9914 234.172 28.1671 233.725 28.4279C233.279 28.6887 232.822 29.0062 232.353 29.3916C231.884 29.7714 231.399 30.2078 230.899 30.6896C230.4 31.1714 229.893 31.6704 229.379 32.1919C228.653 32.9174 227.861 33.6713 227.006 34.4536C226.152 35.2302 225.229 35.9783 224.237 36.6983C223.247 37.4126 222.191 38.0701 221.071 38.6595C219.95 39.2548 218.763 39.7253 217.507 40.071C217.839 40.7286 218.188 41.3125 218.551 41.8226C218.914 42.3384 219.266 42.7862 219.606 43.1773C219.947 43.5685 220.265 43.8973 220.56 44.1694C220.855 44.4414 221.102 44.6569 221.298 44.8156C221.645 45.116 221.88 45.3484 222.002 45.5241C222.123 45.6941 222.04 45.8472 221.751 45.9833C221.645 46.0229 221.442 46.0172 221.138 45.9663C220.836 45.9153 220.48 45.8245 220.072 45.6772C219.663 45.5354 219.232 45.3484 218.778 45.1047C218.324 44.8666 217.9 44.5718 217.507 44.226C216.916 43.6819 216.394 43.0923 215.941 42.4518C215.487 41.8169 215.108 41.1877 214.805 40.5698C214.73 40.5812 214.658 40.5925 214.59 40.5981C214.522 40.6038 214.45 40.6096 214.374 40.6096C214.223 40.6208 214.06 40.6265 213.886 40.6265C213.712 40.6265 213.557 40.6265 213.421 40.6265C213.3 40.6265 213.19 40.6265 213.092 40.6265C212.993 40.6265 212.891 40.6208 212.785 40.6096C211.983 41.5618 211.298 42.378 210.731 43.064C210.163 43.7499 209.789 44.209 209.607 44.4472C209.486 44.5605 209.293 44.6229 209.028 44.6399C208.763 44.6625 208.494 44.6286 208.222 44.5378C207.95 44.4529 207.716 44.3224 207.519 44.1411C207.322 43.9596 207.239 43.7272 207.269 43.4438C207.284 43.3588 207.504 43.0129 207.927 42.4065C208.351 41.7999 208.911 41.0347 209.607 40.105C208.73 39.8387 207.984 39.4871 207.371 39.0621C206.758 38.6312 206.243 38.1777 205.827 37.6959C205.411 37.2141 205.086 36.7323 204.851 36.2391C204.617 35.7516 204.439 35.3151 204.318 34.9354C204.212 34.6123 204.14 34.3458 204.103 34.1361C204.064 33.9264 204.046 33.7904 204.046 33.7279C204.031 33.5579 204.091 33.3765 204.227 33.1838C204.363 32.991 204.53 32.872 204.727 32.8324C204.923 32.7869 205.139 32.8551 205.373 33.0364C205.608 33.2121 205.823 33.5862 206.021 34.1531C206.066 34.3288 206.175 34.6066 206.349 34.992C206.524 35.3718 206.804 35.7743 207.19 36.1938C207.576 36.6132 208.09 37.0044 208.733 37.3558C209.376 37.7072 210.197 37.9341 211.196 38.0303C211.847 37.1914 212.536 36.3127 213.262 35.4002C213.988 34.4819 214.714 33.5862 215.441 32.7077C216.167 31.829 216.875 30.9957 217.563 30.1965C218.252 29.3972 218.884 28.7001 219.459 28.0992C220.034 27.5039 220.529 27.0221 220.946 26.6537C221.362 26.291 221.668 26.1038 221.866 26.0926Z" fill="#F7B500"/>
</svg>
