<svg width="640" height="306" viewBox="0 0 640 306" fill="none" xmlns="http://www.w3.org/2000/svg">
<path d="M269.778 155.778C301.143 173.873 339.747 173.793 371.113 155.684L640 0.441406V305.782H0V0L269.778 155.778Z" fill="black"/>
<path d="M124.699 237.302L102.822 200.202C101.654 198.223 99.4955 197 97.1678 197H53.4148C51.0791 197 48.9205 198.223 47.7523 200.202L25.8758 237.302C24.7081 239.282 24.7081 241.719 25.8758 243.698L37.4665 263.352L47.7523 280.798C48.9205 282.778 51.0791 284 53.4148 284H97.1678C99.4955 284 101.654 282.778 102.822 280.798L113.108 263.352L124.699 243.698C125.867 241.719 125.867 239.282 124.699 237.302Z" fill="white"/>
<path d="M112.521 279.659V280.668H113.165C113.448 280.668 113.665 280.621 113.802 280.542C113.947 280.463 114.019 280.321 114.019 280.132C114.019 279.966 113.955 279.848 113.826 279.769C113.705 279.698 113.544 279.659 113.351 279.659H112.521ZM111.949 282.719V279.154H113.335C114.164 279.154 114.583 279.485 114.583 280.155C114.583 280.329 114.559 280.471 114.511 280.589C114.462 280.707 114.398 280.802 114.309 280.881C114.221 280.96 114.124 281.023 114.011 281.07C113.899 281.11 113.778 281.141 113.649 281.157L114.696 282.719H114.003L112.964 281.173H112.521V282.719H111.949ZM115.638 280.936C115.638 280.589 115.574 280.266 115.437 279.966C115.308 279.659 115.131 279.39 114.905 279.169C114.68 278.941 114.414 278.767 114.108 278.633C113.802 278.499 113.48 278.428 113.133 278.428C112.787 278.428 112.465 278.499 112.159 278.633C111.852 278.767 111.587 278.941 111.361 279.169C111.135 279.39 110.958 279.659 110.83 279.966C110.693 280.266 110.628 280.589 110.628 280.936C110.628 281.283 110.693 281.607 110.83 281.907C110.958 282.214 111.135 282.474 111.361 282.703C111.587 282.932 111.852 283.105 112.159 283.239C112.465 283.374 112.787 283.437 113.133 283.437C113.48 283.437 113.802 283.374 114.108 283.239C114.414 283.105 114.68 282.932 114.905 282.703C115.131 282.474 115.308 282.214 115.437 281.907C115.574 281.607 115.638 281.283 115.638 280.936ZM110.008 280.936C110.008 280.51 110.089 280.116 110.258 279.745C110.419 279.374 110.644 279.043 110.926 278.767C111.208 278.491 111.538 278.278 111.917 278.113C112.295 277.955 112.706 277.876 113.133 277.876C113.568 277.876 113.971 277.955 114.35 278.113C114.736 278.278 115.066 278.491 115.349 278.767C115.63 279.043 115.848 279.374 116.017 279.745C116.178 280.116 116.259 280.51 116.259 280.936C116.259 281.362 116.178 281.757 116.017 282.127C115.848 282.498 115.63 282.821 115.349 283.098C115.066 283.374 114.736 283.594 114.35 283.76C113.971 283.918 113.568 283.997 113.133 283.997C112.706 283.997 112.295 283.918 111.917 283.76C111.538 283.594 111.208 283.374 110.926 283.098C110.644 282.821 110.419 282.498 110.258 282.127C110.089 281.757 110.008 281.362 110.008 280.936Z" fill="white"/>
<path d="M124.699 237.302L116.217 222.924H112.496V257.958H116.29L124.699 243.698C125.867 241.719 125.867 239.282 124.699 237.302Z" fill="#FBC421"/>
<path d="M34.3557 222.923L25.8744 237.301C24.7144 239.281 24.7144 241.717 25.8744 243.697L34.2834 257.957H37.8999V222.923H34.3557Z" fill="#FBC421"/>
<path d="M102.822 200.2C101.654 198.22 99.4952 197.006 97.1675 197.006H53.4145C51.0785 197.006 48.9199 198.22 47.752 200.2L37.5386 217.52H113.035L102.822 200.2Z" fill="#FBC421"/>
<path d="M113.107 263.356H37.4658L47.7516 280.802C48.9195 282.781 51.0781 283.996 53.4141 283.996H97.1671C99.4948 283.996 101.653 282.781 102.821 280.802L113.107 263.356Z" fill="#FBC421"/>
<path d="M43.4155 222.836H48.6028L53.5163 243.255V222.836H58.3167V258.043H53.1294L48.4014 238.271V258.043H43.4155V222.836Z" fill="#2B2F84"/>
<path d="M70.1884 245.556L68.6337 230.91L67.0874 245.556H70.1884ZM75.0455 245.556L76.7369 258.048H71.4933L70.72 250.579H66.5638L65.7745 258.048H60.5469L62.2383 245.611L65.0979 222.833H72.2103L75.0455 245.556Z" fill="#2B2F84"/>
<path d="M102.805 245.556L101.25 230.91L99.7036 245.556H102.805ZM107.661 245.556L109.353 258.048H104.11L103.336 250.579H99.18L98.3907 258.048H93.1631L94.8545 245.611L97.7141 222.833H104.826L107.661 245.556Z" fill="#2B2F84"/>
<path d="M84.1531 227.842V240.548H84.749C85.466 240.548 85.9652 240.501 86.231 240.406C87.1734 240.035 87.9144 239.286 87.9144 238.166V230.248C87.9144 228.647 86.8916 227.842 85.3853 227.842H84.1531ZM78.9658 222.834L85.9168 222.85C90.5242 222.85 92.8279 225.318 92.8279 230.248V238.166C92.8279 241.802 91.1765 244.144 87.866 245.201C87.0687 245.454 86.239 245.58 84.725 245.58H84.1531V258.049H78.9658V222.834Z" fill="#2B2F84"/>
<path d="M144.419 267.653L147.519 250.106L150.674 267.653H144.419ZM140.821 243.132L132.352 282.654H141.817L143.09 275.459H152.113L153.386 282.654H162.852L154.161 243.132H140.821Z" fill="white"/>
<path d="M227.736 264.941C227.57 273.244 226.628 275.624 223.418 275.624C220.263 275.624 219.322 273.244 219.156 264.941L219.101 262.893L219.156 260.845C219.377 252.542 220.318 250.162 223.418 250.162C226.573 250.162 227.514 252.542 227.736 260.845L227.791 262.893L227.736 264.941ZM179.072 243.132V269.425C179.072 274.407 177.798 275.624 175.474 275.624C172.983 275.624 171.875 273.742 171.875 269.425V243.132H162.41V269.425C162.41 280.44 166.285 283.429 175.474 283.429C185.271 283.429 188.593 279.61 188.593 269.425V250.937H194.634V282.654H204.1V250.937H210.816C210.151 253.504 209.792 256.759 209.635 260.845L209.579 262.893L209.635 264.941C210.078 279.278 213.233 283.429 223.418 283.429C233.769 283.429 236.814 279.333 237.201 264.941L237.256 262.893L237.201 260.845C236.869 246.508 233.714 242.357 223.418 242.357C217.473 242.357 213.964 243.757 211.96 247.781V243.132H179.072Z" fill="white"/>
<path d="M259.897 260.291H257.129V250.937H259.897C262.443 250.937 264.104 252.099 264.104 255.642C264.104 258.465 263.107 260.291 259.897 260.291ZM273.569 255.642C273.569 248.113 270.303 243.132 259.897 243.132H247.664V282.654H257.129V268.096H259.897C268.089 268.096 273.569 265.162 273.569 255.642Z" fill="#FBC421"/>
<path d="M313.21 258.963H309.501V250.937H313.21C315.756 250.937 317.362 251.988 317.362 255.143C317.362 257.468 316.421 258.963 313.21 258.963ZM282.156 267.653L285.256 250.106L288.411 267.653H282.156ZM309.501 282.654V266.768H311.882L317.196 282.654H327.103L320.351 265.716C324.392 264.277 326.829 261.066 326.829 255.143C326.829 253.627 326.68 252.218 326.355 250.937H332.925V282.654H342.388V250.937H348.864C348.616 251.908 348.484 252.945 348.484 254.036C348.484 260.125 351.363 263.613 359.112 266.934C363.376 268.761 365.422 270.587 365.422 272.691C365.422 274.296 364.26 275.403 362.157 275.403C359.722 275.403 357.287 273.244 355.072 268.927L347.766 273.078C351.031 280.385 355.295 283.429 361.991 283.429C369.964 283.429 375 279.222 375 272.801C375 265.162 371.403 262.007 364.704 259.074C359.61 256.86 357.785 255.088 357.785 253.317C357.785 251.767 359.058 250.66 360.941 250.66C363.211 250.66 365.588 252.652 367.529 256.582L374.445 252.652C372.01 246.01 368.027 242.412 361.327 242.412C356.593 242.412 352.793 244.222 350.588 247.246V243.132H324.78V247.474C322.791 244.737 319.181 243.132 313.21 243.132H300.036V280.141L291.898 243.132H278.558L270.088 282.654H279.554L280.827 275.459H289.85L291.123 282.654H309.501Z" fill="#FBC421"/>
<path fill-rule="evenodd" clip-rule="evenodd" d="M136.64 232.568L141.406 231.752C141.406 231.752 141.338 231.91 141.244 232.024C141.188 232.092 140.374 232.375 139.881 232.511C139.486 232.619 139.256 232.755 139.296 233.038C139.307 233.117 139.339 233.191 139.409 233.247C139.443 233.27 139.461 233.27 139.585 233.247C141.847 232.811 144.113 232.358 146.376 231.973C147.542 231.78 155.537 230.754 157.29 230.579C160.304 230.273 165.359 229.842 167.927 229.666C169.739 229.548 177.341 229.23 178.914 229.213C185.769 229.134 196.157 229.542 203.055 230.023C207.134 230.312 218.707 231.293 223.647 232.086C227.231 232.664 233.622 233.701 234.107 233.729C234.767 233.769 235.177 233.723 235.211 233.129C235.217 233.01 235.191 232.919 235.098 232.721C235.018 232.551 234.888 232.301 234.888 232.301C234.888 232.301 236.073 232.222 236.608 232.086C236.971 231.995 237.091 231.695 236.85 231.355C236.789 231.27 236.711 231.202 236.608 231.128C236.3 230.924 235.906 230.777 235.957 230.596C236.037 230.324 236.619 230.482 236.977 230.448C237.245 230.42 237.466 230.295 237.306 230.091C237.155 229.893 236.4 229.695 236.185 229.638C232.323 228.573 222.345 227.292 219.945 226.986C216.567 226.561 212.311 226.08 209.47 225.802C207.618 225.626 194.542 224.692 192.158 224.567C184.191 224.159 169.663 223.807 160.051 224.323C155.353 224.578 143.636 225.689 140.855 226.097C138.766 226.397 136.701 226.777 134.627 227.128C134.503 227.151 134.482 227.156 134.425 227.185C134.216 227.281 134.17 227.519 134.278 227.621C134.434 227.774 135.048 227.865 135.236 228.029C135.357 228.137 135.308 228.239 135.171 228.318C134.927 228.465 133.348 228.703 133.125 228.839C132.936 228.958 132.856 229.253 133.125 229.406C133.479 229.61 134.672 229.95 134.672 229.95C134.672 229.95 134.569 230.069 134.456 230.171C134.3 230.312 132.981 230.624 132.589 230.839C132.38 230.953 132.203 231.446 132.54 231.616C132.608 231.655 132.714 231.689 132.806 231.712C132.929 231.746 132.956 231.746 133.08 231.723C142.378 229.995 142.979 229.734 150.079 228.89C152.135 228.647 158.591 228.023 159.905 227.95C160.547 227.91 170.381 227.338 172.894 227.587C173.291 227.632 173.725 227.683 173.725 227.683C173.725 227.683 166.839 227.916 161.935 228.205C160.603 228.284 152.564 229.049 151.005 229.247C145.608 229.921 145.312 230.052 138.646 231.259C138.085 231.361 136.397 231.814 136.275 231.893C136.054 232.041 135.965 232.33 136.307 232.528C136.347 232.551 136.39 232.568 136.435 232.579C136.495 232.59 136.516 232.59 136.64 232.568Z" fill="#D30026"/>
<path d="M136.64 232.568L141.406 231.752C141.406 231.752 141.338 231.91 141.244 232.024C141.188 232.092 140.374 232.375 139.881 232.511C139.486 232.619 139.256 232.755 139.296 233.038C139.307 233.117 139.339 233.191 139.409 233.247C139.443 233.27 139.461 233.27 139.585 233.247C141.847 232.811 144.113 232.358 146.376 231.973C147.542 231.78 155.537 230.754 157.29 230.579C160.304 230.273 165.359 229.842 167.927 229.666C169.739 229.548 177.341 229.23 178.914 229.213C185.769 229.134 196.157 229.542 203.055 230.023C207.134 230.312 218.707 231.293 223.647 232.086C227.231 232.664 233.622 233.701 234.107 233.729C234.767 233.769 235.177 233.723 235.211 233.129C235.217 233.01 235.191 232.919 235.098 232.721C235.018 232.551 234.888 232.301 234.888 232.301C234.888 232.301 236.073 232.222 236.608 232.086C236.971 231.995 237.091 231.695 236.85 231.355C236.789 231.27 236.711 231.202 236.608 231.128C236.3 230.924 235.906 230.777 235.957 230.596C236.037 230.324 236.619 230.482 236.977 230.448C237.245 230.42 237.466 230.295 237.306 230.091C237.155 229.893 236.4 229.695 236.185 229.638C232.323 228.573 222.345 227.292 219.945 226.986C216.567 226.561 212.311 226.08 209.47 225.802C207.618 225.626 194.542 224.692 192.158 224.567C184.191 224.159 169.663 223.807 160.051 224.323C155.353 224.578 143.636 225.689 140.855 226.097C138.766 226.397 136.701 226.777 134.627 227.128C134.503 227.151 134.482 227.156 134.425 227.185C134.216 227.281 134.17 227.519 134.278 227.621C134.434 227.774 135.048 227.865 135.236 228.029C135.357 228.137 135.308 228.239 135.171 228.318C134.927 228.465 133.348 228.703 133.125 228.839C132.936 228.958 132.856 229.253 133.125 229.406C133.479 229.61 134.672 229.95 134.672 229.95C134.672 229.95 134.569 230.069 134.456 230.171C134.3 230.312 132.981 230.624 132.589 230.839C132.38 230.953 132.203 231.446 132.54 231.616C132.608 231.655 132.714 231.689 132.806 231.712C132.929 231.746 132.956 231.746 133.08 231.723C142.378 229.995 142.979 229.734 150.079 228.89C152.135 228.647 158.591 228.023 159.905 227.95C160.547 227.91 170.381 227.338 172.894 227.587C173.291 227.632 173.725 227.683 173.725 227.683C173.725 227.683 166.839 227.916 161.935 228.205C160.603 228.284 152.564 229.049 151.005 229.247C145.608 229.921 145.312 230.052 138.646 231.259C138.085 231.361 136.397 231.814 136.275 231.893C136.054 232.041 135.965 232.33 136.307 232.528C136.347 232.551 136.39 232.568 136.435 232.579C136.495 232.59 136.516 232.59 136.64 232.568Z" stroke="#D30026" stroke-width="0.133333"/>
<path fill-rule="evenodd" clip-rule="evenodd" d="M153.404 215.087C152.799 215.506 152.152 215.937 151.464 216.368C150.775 216.798 150.103 217.195 149.444 217.552C148.786 217.915 148.174 218.204 147.606 218.436C147.039 218.663 146.574 218.782 146.211 218.793C146.045 218.793 145.806 218.776 145.496 218.742C145.186 218.702 144.842 218.634 144.464 218.538C144.086 218.436 143.696 218.306 143.295 218.136C142.894 217.971 142.516 217.756 142.16 217.495C141.805 217.24 141.499 216.929 141.242 216.572C140.985 216.215 140.811 215.795 140.72 215.308C140.569 214.521 140.621 213.71 140.879 212.872C141.136 212.039 141.536 211.211 142.081 210.39C142.625 209.568 143.291 208.764 144.078 207.982C144.864 207.194 145.719 206.452 146.642 205.755C147.565 205.058 148.529 204.412 149.535 203.817C150.541 203.228 151.54 202.718 152.53 202.299C153.521 201.879 154.478 201.551 155.401 201.307C156.324 201.069 157.155 200.944 157.897 200.944C158.82 200.944 159.602 201.069 160.245 201.318C160.888 201.562 161.406 201.851 161.8 202.168C162.193 202.491 162.48 202.808 162.662 203.114C162.843 203.426 162.934 203.647 162.934 203.783C162.889 204.378 162.745 204.911 162.503 205.392C162.261 205.874 161.966 206.305 161.618 206.684C161.27 207.058 160.9 207.392 160.506 207.681C160.113 207.976 159.75 208.231 159.417 208.452C159.296 208.537 159.183 208.611 159.076 208.673C158.971 208.735 158.88 208.798 158.804 208.86C158.456 209.109 158.12 209.194 157.795 209.121C157.469 209.047 157.182 208.905 156.932 208.701C156.683 208.497 156.49 208.276 156.354 208.027C156.218 207.778 156.164 207.613 156.195 207.528C156.225 207.466 156.278 207.404 156.354 207.353C156.43 207.296 156.512 207.251 156.603 207.211C156.754 207.16 156.936 207.087 157.147 206.99C157.359 206.888 157.605 206.712 157.885 206.452C158.165 206.191 158.483 205.823 158.838 205.341C159.194 204.859 159.591 204.197 160.029 203.358L160.075 203.375L160.143 203.154C160.113 203.199 160.022 203.239 159.871 203.262C159.613 203.301 159.198 203.415 158.623 203.607C158.048 203.8 157.375 204.055 156.603 204.378C155.832 204.695 154.992 205.081 154.085 205.523C153.177 205.97 152.261 206.474 151.339 207.047C150.416 207.613 149.52 208.231 148.65 208.905C147.78 209.58 147.005 210.305 146.324 211.075C145.643 211.846 145.08 212.668 144.634 213.529C144.188 214.396 143.926 215.302 143.851 216.254C143.836 216.379 143.874 216.521 143.964 216.685C144.055 216.844 144.154 216.929 144.26 216.94C144.864 216.895 145.549 216.736 146.313 216.47C147.077 216.203 147.848 215.886 148.627 215.512C149.406 215.144 150.167 214.753 150.908 214.339C151.649 213.925 152.307 213.54 152.882 213.178L151.566 213.495C151.354 213.546 151.169 213.591 151.01 213.631C150.851 213.676 150.711 213.71 150.59 213.733C150.393 213.773 150.159 213.716 149.887 213.569C149.615 213.421 149.376 213.234 149.172 213.013C148.968 212.792 148.828 212.554 148.752 212.311C148.677 212.061 148.737 211.852 148.934 211.676H148.911C149.214 211.432 149.693 211.2 150.352 210.985C151.01 210.764 151.759 210.583 152.599 210.429C153.438 210.271 154.33 210.146 155.276 210.056C156.221 209.965 157.14 209.919 158.033 209.919C159.016 209.919 159.92 209.982 160.744 210.112C161.569 210.243 162.223 210.452 162.707 210.752C163.1 210.996 163.308 211.223 163.331 211.427C163.354 211.631 163.282 211.806 163.116 211.948C162.949 212.09 162.741 212.192 162.491 212.254C162.242 212.316 162.041 212.333 161.89 212.311C161.331 212.209 160.71 212.158 160.029 212.158C159.909 212.158 159.791 212.163 159.678 212.169C159.565 212.175 159.447 212.18 159.326 212.18C158.615 213.093 158.007 213.948 157.499 214.747C156.993 215.54 156.566 216.266 156.218 216.912C155.87 217.563 155.59 218.136 155.378 218.629C155.166 219.122 154.999 219.535 154.879 219.869C154.758 220.215 154.618 220.487 154.459 220.685C154.3 220.884 154.115 220.98 153.903 220.98C153.767 220.957 153.612 220.906 153.438 220.827C153.264 220.742 153.094 220.634 152.927 220.493C152.761 220.351 152.606 220.181 152.462 219.983C152.318 219.784 152.201 219.563 152.111 219.314C152.035 219.082 151.993 218.821 151.986 218.538C151.978 218.249 152.012 217.949 152.087 217.626L153.404 215.087Z" fill="#F7B500"/>
<path fill-rule="evenodd" clip-rule="evenodd" d="M195.966 201.095C196.118 201.078 196.329 201.106 196.602 201.174C196.874 201.242 197.158 201.338 197.453 201.452C197.748 201.571 198.032 201.707 198.304 201.86C198.576 202.018 198.792 202.177 198.95 202.342C199.11 202.511 199.193 202.676 199.2 202.835C199.208 202.993 199.091 203.135 198.848 203.26C198.395 203.481 197.813 203.906 197.101 204.529C196.39 205.152 195.615 205.895 194.775 206.756C193.935 207.612 193.058 208.553 192.143 209.573C191.228 210.593 190.331 211.602 189.454 212.605C190.316 212.333 191.16 211.97 191.984 211.511C192.808 211.052 193.614 210.542 194.401 209.97C195.188 209.403 195.948 208.808 196.681 208.184C197.415 207.561 198.114 206.943 198.78 206.337C199.431 205.731 200.081 205.147 200.732 204.586C201.382 204.025 202.026 203.515 202.661 203.056C203.296 202.602 203.928 202.217 204.556 201.905C205.184 201.599 205.815 201.395 206.451 201.299C206.693 201.259 206.954 201.231 207.233 201.214C207.513 201.197 207.782 201.185 208.039 201.185C208.674 201.185 209.227 201.253 209.695 201.395C210.165 201.542 210.437 201.735 210.513 201.984C210.588 202.166 210.516 202.342 210.297 202.5C210.077 202.659 209.688 202.795 209.128 202.908C208.705 202.993 208.27 203.169 207.824 203.43C207.377 203.69 206.919 204.008 206.451 204.393C205.981 204.773 205.498 205.209 204.998 205.691C204.499 206.173 203.992 206.671 203.478 207.193C202.751 207.918 201.961 208.672 201.106 209.454C200.252 210.23 199.329 210.978 198.338 211.698C197.347 212.412 196.292 213.07 195.172 213.659C194.053 214.254 192.866 214.725 191.61 215.07C191.942 215.728 192.29 216.311 192.654 216.822C193.017 217.337 193.368 217.785 193.709 218.176C194.049 218.567 194.367 218.896 194.662 219.168C194.956 219.44 195.202 219.655 195.399 219.814C195.747 220.114 195.982 220.347 196.103 220.522C196.224 220.692 196.141 220.845 195.853 220.981C195.747 221.021 195.543 221.015 195.24 220.964C194.938 220.913 194.583 220.823 194.174 220.675C193.765 220.534 193.334 220.347 192.88 220.103C192.427 219.865 192.003 219.57 191.61 219.225C191.02 218.68 190.498 218.091 190.044 217.451C189.59 216.816 189.212 216.187 188.909 215.569C188.834 215.58 188.762 215.592 188.694 215.597C188.626 215.603 188.554 215.609 188.478 215.609C188.327 215.62 188.164 215.626 187.99 215.626C187.817 215.626 187.661 215.626 187.525 215.626C187.404 215.626 187.295 215.626 187.196 215.626C187.097 215.626 186.995 215.62 186.889 215.609C186.088 216.561 185.403 217.377 184.836 218.063C184.269 218.748 183.894 219.207 183.713 219.445C183.591 219.559 183.399 219.621 183.134 219.638C182.87 219.661 182.601 219.627 182.328 219.536C182.056 219.451 181.822 219.321 181.625 219.139C181.429 218.958 181.345 218.726 181.375 218.442C181.391 218.357 181.61 218.012 182.034 217.405C182.457 216.799 183.017 216.034 183.713 215.104C182.835 214.838 182.09 214.487 181.477 214.062C180.865 213.631 180.35 213.177 179.934 212.696C179.518 212.214 179.193 211.732 178.958 211.239C178.724 210.752 178.546 210.315 178.425 209.936C178.319 209.613 178.247 209.346 178.21 209.137C178.172 208.927 178.153 208.791 178.153 208.729C178.138 208.559 178.199 208.377 178.335 208.184C178.471 207.992 178.637 207.873 178.834 207.833C179.03 207.788 179.246 207.856 179.481 208.037C179.715 208.213 179.931 208.587 180.128 209.154C180.173 209.329 180.282 209.607 180.456 209.992C180.63 210.372 180.91 210.775 181.296 211.194C181.682 211.613 182.196 212.004 182.839 212.356C183.482 212.707 184.303 212.934 185.301 213.03C185.952 212.191 186.64 211.313 187.366 210.4C188.092 209.482 188.818 208.587 189.545 207.708C190.271 206.83 190.978 205.997 191.666 205.198C192.355 204.399 192.986 203.702 193.561 203.101C194.136 202.506 194.632 202.024 195.048 201.656C195.464 201.293 195.77 201.106 195.966 201.095Z" fill="#F7B500"/>
<path fill-rule="evenodd" clip-rule="evenodd" d="M167.988 209.86C167.854 209.562 167.761 209.237 167.71 208.881C167.659 208.525 167.625 208.138 167.609 207.724C167.631 207.658 167.651 207.591 167.667 207.529C167.682 207.466 167.689 207.391 167.687 207.311C167.689 207.15 167.755 206.981 167.884 206.808C168.014 206.634 168.183 206.461 168.393 206.296C168.603 206.127 168.848 205.967 169.13 205.815C169.412 205.66 169.71 205.526 170.024 205.41C170.337 205.295 170.659 205.206 170.99 205.139C171.321 205.072 171.645 205.036 171.963 205.036C172.375 205.036 172.712 205.099 172.972 205.219C173.232 205.344 173.436 205.49 173.584 205.664C173.732 205.838 173.832 206.02 173.883 206.207C173.935 206.394 173.958 206.558 173.951 206.696C173.938 206.986 173.88 207.217 173.777 207.4C173.673 207.582 173.539 207.729 173.375 207.836C173.212 207.943 173.034 208.018 172.842 208.058C172.65 208.103 172.463 208.121 172.28 208.121C172.125 208.121 171.992 208.094 171.881 208.04C171.771 207.983 171.706 207.925 171.688 207.858C171.751 207.751 171.842 207.64 171.964 207.52C172.086 207.404 172.211 207.279 172.34 207.155C172.469 207.03 172.591 206.91 172.706 206.79C172.82 206.674 172.902 206.558 172.952 206.447C172.9 206.429 172.838 206.412 172.767 206.394C172.695 206.376 172.608 206.363 172.507 206.363C172.054 206.363 171.669 206.394 171.353 206.452C171.038 206.51 170.777 206.63 170.573 206.808C170.368 206.986 170.218 207.244 170.12 207.573C170.023 207.907 169.966 208.348 169.949 208.899C169.948 209.002 169.956 209.082 169.971 209.14C169.986 209.202 169.992 209.264 169.99 209.331C169.987 209.349 169.987 209.362 169.989 209.375C169.991 209.384 169.991 209.398 169.988 209.415C169.999 209.487 170.025 209.549 170.068 209.607C170.111 209.66 170.159 209.718 170.211 209.78C170.263 209.843 170.315 209.909 170.364 209.985C170.415 210.065 170.456 210.154 170.488 210.261L170.967 211.191C171.047 211.387 171.161 211.565 171.308 211.721C171.455 211.876 171.607 212.01 171.763 212.13C171.918 212.25 172.068 212.353 172.211 212.442C172.354 212.531 172.462 212.611 172.533 212.682L172.835 212.98C172.881 212.895 172.934 212.811 172.993 212.722C173.053 212.633 173.107 212.544 173.153 212.451C173.123 212.335 173.071 212.219 172.999 212.103C172.927 211.992 172.845 211.881 172.751 211.774C172.658 211.667 172.559 211.565 172.454 211.467C172.35 211.369 172.252 211.284 172.162 211.204C172.134 211.204 172.089 211.182 172.025 211.129C171.961 211.08 171.883 211.022 171.791 210.951C171.699 210.884 171.6 210.813 171.492 210.737C171.384 210.661 171.276 210.599 171.169 210.541C171.223 210.448 171.288 210.381 171.365 210.341C171.442 210.297 171.522 210.27 171.604 210.261H171.767C171.88 210.27 171.998 210.279 172.119 210.279C172.241 210.279 172.36 210.279 172.474 210.279C172.562 210.279 172.648 210.265 172.733 210.243C172.817 210.221 172.909 210.194 173.007 210.163C173.107 210.136 173.214 210.105 173.329 210.083C173.444 210.056 173.573 210.039 173.717 210.03L174.882 209.896C174.985 209.883 175.085 209.878 175.183 209.878C175.281 209.878 175.378 209.878 175.473 209.878C175.626 209.892 175.778 209.918 175.928 209.958C176.078 209.998 176.21 210.052 176.327 210.114C176.443 210.181 176.536 210.252 176.605 210.337C176.675 210.417 176.71 210.51 176.709 210.608C176.707 210.67 176.688 210.724 176.651 210.768C176.615 210.808 176.571 210.848 176.52 210.875C176.469 210.902 176.41 210.924 176.344 210.937C176.277 210.951 176.21 210.955 176.143 210.955C176.082 210.955 176.029 210.951 175.983 210.942C175.937 210.929 175.883 210.924 175.823 210.924C175.721 210.924 175.616 210.929 175.505 210.946C175.395 210.96 175.285 210.973 175.174 210.991C175.067 211.035 174.959 211.066 174.851 211.084C174.744 211.107 174.637 211.12 174.531 211.129C174.425 211.133 174.317 211.142 174.208 211.151C174.099 211.16 173.991 211.178 173.886 211.204C173.902 211.231 173.915 211.267 173.923 211.302C173.932 211.338 173.937 211.374 173.939 211.405C173.936 211.427 173.937 211.445 173.943 211.454C173.936 211.498 173.954 211.534 173.994 211.556C174.034 211.583 174.08 211.609 174.131 211.632C174.181 211.658 174.228 211.685 174.27 211.721C174.313 211.752 174.334 211.796 174.333 211.854L174.326 211.903C174.328 211.934 174.333 211.97 174.342 212.01C174.349 212.05 174.365 212.086 174.387 212.117C174.385 212.179 174.383 212.232 174.379 212.281C174.375 212.335 174.373 212.384 174.373 212.433C174.371 212.495 174.37 212.548 174.371 212.593C174.371 212.642 174.375 212.686 174.382 212.731C174.345 212.944 174.288 213.171 174.212 213.403C174.135 213.634 174.033 213.866 173.907 214.088C174.14 214.311 174.376 214.48 174.618 214.591C174.858 214.707 175.084 214.787 175.294 214.836C175.503 214.885 175.681 214.911 175.83 214.916C175.979 214.916 176.08 214.92 176.134 214.92C176.242 214.92 176.324 214.916 176.38 214.902C176.436 214.894 176.477 214.88 176.506 214.871C176.535 214.858 176.557 214.849 176.572 214.836C176.587 214.827 176.611 214.818 176.645 214.818C176.719 214.818 176.773 214.845 176.807 214.894C176.84 214.943 176.859 215 176.864 215.067C176.827 215.134 176.777 215.201 176.714 215.267C176.65 215.334 176.582 215.365 176.507 215.365C176.503 215.401 176.467 215.45 176.4 215.517C176.333 215.583 176.229 215.65 176.088 215.717C175.947 215.779 175.771 215.842 175.561 215.89C175.351 215.939 175.105 215.962 174.82 215.962C174.758 215.926 174.709 215.904 174.673 215.899C174.636 215.89 174.601 215.886 174.568 215.881C174.535 215.877 174.497 215.859 174.453 215.842C174.408 215.819 174.344 215.77 174.259 215.699C174.173 215.73 174.087 215.721 174 215.664C173.913 215.61 173.825 215.539 173.735 215.459C173.645 215.374 173.555 215.299 173.463 215.227C173.372 215.156 173.279 215.116 173.184 215.116C173.09 215.116 172.995 215.161 172.902 215.25C172.808 215.339 172.712 215.432 172.614 215.534C172.515 215.632 172.416 215.721 172.318 215.792C172.22 215.868 172.122 215.89 172.024 215.864C171.804 215.993 171.571 216.095 171.326 216.18C171.081 216.264 170.827 216.327 170.563 216.376C170.299 216.42 170.033 216.451 169.763 216.469C169.494 216.487 169.227 216.496 168.963 216.496C168.531 216.496 168.122 216.442 167.738 216.335C167.353 216.233 167.001 216.091 166.681 215.917C166.36 215.744 166.072 215.543 165.816 215.321C165.56 215.098 165.343 214.871 165.166 214.64C164.988 214.413 164.854 214.186 164.763 213.968C164.673 213.746 164.629 213.55 164.633 213.376C164.704 212.873 164.942 212.362 165.347 211.836C165.438 211.716 165.561 211.565 165.714 211.391C165.867 211.218 166.05 211.04 166.265 210.857C166.481 210.675 166.731 210.497 167.016 210.319C167.301 210.141 167.625 209.99 167.988 209.86ZM171.923 214.778C171.971 214.729 172.007 214.675 172.031 214.627C172.055 214.573 172.078 214.515 172.101 214.453C171.849 214.271 171.577 214.066 171.284 213.839C170.992 213.608 170.714 213.385 170.451 213.167C170.187 212.949 169.961 212.749 169.773 212.575C169.585 212.397 169.469 212.268 169.427 212.183C169.408 212.228 169.388 212.268 169.37 212.304C169.351 212.339 169.338 212.384 169.331 212.433L168.981 212.691C168.935 212.771 168.871 212.851 168.789 212.931C168.708 213.007 168.616 213.091 168.516 213.18C168.369 213.309 168.244 213.456 168.14 213.616C168.036 213.777 167.951 213.937 167.885 214.097C167.818 214.257 167.773 214.413 167.75 214.555C167.726 214.698 167.717 214.822 167.723 214.929C167.74 215.089 167.779 215.196 167.838 215.259C167.897 215.321 167.981 215.374 168.09 215.419L168.523 215.583C168.7 215.628 168.883 215.655 169.074 215.668C169.265 215.681 169.467 215.681 169.678 215.664C169.857 215.65 170.045 215.619 170.243 215.579C170.442 215.539 170.641 215.481 170.84 215.41C171.04 215.339 171.231 215.25 171.415 215.147C171.598 215.045 171.768 214.92 171.923 214.778Z" fill="#F7B500"/>
<path fill-rule="evenodd" clip-rule="evenodd" d="M221.866 201.093C222.017 201.075 222.229 201.104 222.5 201.172C222.773 201.24 223.056 201.336 223.353 201.45C223.647 201.569 223.93 201.705 224.203 201.858C224.475 202.016 224.691 202.175 224.85 202.34C225.009 202.51 225.092 202.674 225.099 202.833C225.107 202.991 224.989 203.133 224.748 203.258C224.294 203.479 223.711 203.904 223 204.528C222.288 205.151 221.513 205.894 220.673 206.755C219.834 207.611 218.956 208.552 218.04 209.573C217.125 210.593 216.228 211.602 215.351 212.605C216.213 212.333 217.056 211.97 217.881 211.511C218.706 211.052 219.512 210.542 220.299 209.969C221.086 209.402 221.847 208.807 222.58 208.184C223.315 207.56 224.015 206.942 224.68 206.336C225.33 205.729 225.981 205.146 226.631 204.584C227.282 204.023 227.927 203.513 228.561 203.054C229.197 202.6 229.829 202.215 230.456 201.903C231.085 201.597 231.717 201.393 232.353 201.297C232.594 201.257 232.855 201.229 233.136 201.212C233.416 201.195 233.684 201.183 233.942 201.183C234.578 201.183 235.129 201.251 235.598 201.393C236.067 201.54 236.34 201.733 236.416 201.982C236.491 202.164 236.42 202.34 236.201 202.498C235.98 202.657 235.591 202.793 235.031 202.906C234.607 202.991 234.172 203.167 233.725 203.428C233.279 203.689 232.822 204.006 232.353 204.392C231.884 204.771 231.399 205.208 230.899 205.69C230.4 206.171 229.893 206.67 229.379 207.192C228.653 207.917 227.861 208.671 227.006 209.454C226.152 210.23 225.229 210.978 224.237 211.698C223.247 212.413 222.191 213.07 221.071 213.66C219.95 214.255 218.763 214.725 217.507 215.071C217.839 215.729 218.188 216.312 218.551 216.823C218.914 217.338 219.266 217.786 219.606 218.177C219.947 218.568 220.265 218.897 220.56 219.169C220.855 219.441 221.102 219.657 221.298 219.816C221.645 220.116 221.88 220.348 222.002 220.524C222.123 220.694 222.04 220.847 221.751 220.983C221.645 221.023 221.442 221.017 221.138 220.966C220.836 220.915 220.48 220.825 220.072 220.677C219.663 220.535 219.232 220.348 218.778 220.105C218.324 219.867 217.9 219.572 217.507 219.226C216.916 218.682 216.394 218.092 215.941 217.452C215.487 216.817 215.108 216.188 214.805 215.57C214.73 215.581 214.658 215.592 214.59 215.598C214.522 215.604 214.45 215.61 214.374 215.61C214.223 215.621 214.06 215.626 213.886 215.626C213.712 215.626 213.557 215.626 213.421 215.626C213.3 215.626 213.19 215.626 213.092 215.626C212.993 215.626 212.891 215.621 212.785 215.61C211.983 216.562 211.298 217.378 210.731 218.064C210.163 218.75 209.789 219.209 209.607 219.447C209.486 219.56 209.293 219.623 209.028 219.64C208.763 219.663 208.494 219.629 208.222 219.538C207.95 219.453 207.716 219.322 207.519 219.141C207.322 218.96 207.239 218.727 207.269 218.444C207.284 218.359 207.504 218.013 207.927 217.406C208.351 216.8 208.911 216.035 209.607 215.105C208.73 214.839 207.984 214.487 207.371 214.062C206.758 213.631 206.243 213.178 205.827 212.696C205.411 212.214 205.086 211.732 204.851 211.239C204.617 210.752 204.439 210.315 204.318 209.935C204.212 209.612 204.14 209.346 204.103 209.136C204.064 208.926 204.046 208.79 204.046 208.728C204.031 208.558 204.091 208.377 204.227 208.184C204.363 207.991 204.53 207.872 204.727 207.832C204.923 207.787 205.139 207.855 205.373 208.036C205.608 208.212 205.823 208.586 206.021 209.153C206.066 209.329 206.175 209.607 206.349 209.992C206.524 210.372 206.804 210.774 207.19 211.194C207.576 211.613 208.09 212.004 208.733 212.356C209.376 212.707 210.197 212.934 211.196 213.03C211.847 212.191 212.536 211.313 213.262 210.4C213.988 209.482 214.714 208.586 215.441 207.708C216.167 206.829 216.875 205.996 217.563 205.196C218.252 204.397 218.884 203.7 219.459 203.099C220.034 202.504 220.529 202.022 220.946 201.654C221.362 201.291 221.668 201.104 221.866 201.093Z" fill="#F7B500"/>
</svg>
