<svg width="640" height="336" viewBox="0 0 640 336" fill="none" xmlns="http://www.w3.org/2000/svg">
<path d="M0 335.747L640.001 214.221V0H0V335.747Z" fill="#1D3489"/>
<path d="M124.699 62.3018L102.822 25.2023C101.654 23.2225 99.4955 22 97.1678 22H53.4148C51.0791 22 48.9205 23.2225 47.7523 25.2023L25.8758 62.3018C24.7081 64.2815 24.7081 66.7188 25.8758 68.6982L37.4665 88.3521L47.7523 105.798C48.9205 107.778 51.0791 109 53.4148 109H97.1678C99.4955 109 101.654 107.778 102.822 105.798L113.108 88.3521L124.699 68.6982C125.867 66.7188 125.867 64.2815 124.699 62.3018Z" fill="white"/>
<path d="M112.521 104.659V105.669H113.165C113.448 105.669 113.665 105.621 113.802 105.542C113.947 105.464 114.019 105.322 114.019 105.132C114.019 104.967 113.955 104.848 113.826 104.769C113.705 104.699 113.544 104.659 113.351 104.659H112.521ZM111.949 107.719V104.154H113.335C114.164 104.154 114.583 104.485 114.583 105.156C114.583 105.329 114.559 105.472 114.511 105.59C114.462 105.708 114.398 105.803 114.309 105.882C114.221 105.96 114.124 106.023 114.011 106.071C113.899 106.11 113.778 106.142 113.649 106.158L114.696 107.719H114.003L112.964 106.173H112.521V107.719H111.949ZM115.638 105.937C115.638 105.59 115.574 105.266 115.437 104.967C115.308 104.659 115.131 104.391 114.905 104.17C114.68 103.941 114.414 103.768 114.108 103.634C113.802 103.499 113.48 103.429 113.133 103.429C112.787 103.429 112.465 103.499 112.159 103.634C111.852 103.768 111.587 103.941 111.361 104.17C111.135 104.391 110.958 104.659 110.83 104.967C110.693 105.266 110.628 105.59 110.628 105.937C110.628 106.284 110.693 106.607 110.83 106.907C110.958 107.215 111.135 107.475 111.361 107.704C111.587 107.932 111.852 108.106 112.159 108.24C112.465 108.374 112.787 108.437 113.133 108.437C113.48 108.437 113.802 108.374 114.108 108.24C114.414 108.106 114.68 107.932 114.905 107.704C115.131 107.475 115.308 107.215 115.437 106.907C115.574 106.607 115.638 106.284 115.638 105.937ZM110.008 105.937C110.008 105.511 110.089 105.117 110.258 104.746C110.419 104.375 110.644 104.044 110.926 103.768C111.208 103.492 111.538 103.279 111.917 103.113C112.295 102.955 112.706 102.876 113.133 102.876C113.568 102.876 113.971 102.955 114.35 103.113C114.736 103.279 115.066 103.492 115.349 103.768C115.63 104.044 115.848 104.375 116.017 104.746C116.178 105.117 116.259 105.511 116.259 105.937C116.259 106.363 116.178 106.757 116.017 107.128C115.848 107.498 115.63 107.822 115.349 108.098C115.066 108.374 114.736 108.595 114.35 108.761C113.971 108.918 113.568 108.997 113.133 108.997C112.706 108.997 112.295 108.918 111.917 108.761C111.538 108.595 111.208 108.374 110.926 108.098C110.644 107.822 110.419 107.498 110.258 107.128C110.089 106.757 110.008 106.363 110.008 105.937Z" fill="white"/>
<path d="M124.699 62.302L116.217 47.9245H112.496V82.958H116.29L124.699 68.6984C125.867 66.719 125.867 64.2817 124.699 62.302Z" fill="#FBC421"/>
<path d="M34.3562 47.9225L25.8749 62.3003C24.7149 64.2801 24.7149 66.717 25.8749 68.6968L34.2839 82.9561H37.9004V47.9225H34.3562Z" fill="#FBC421"/>
<path d="M102.822 25.1997C101.653 23.2202 99.4947 22.0055 97.167 22.0055H53.414C51.078 22.0055 48.9194 23.2202 47.7515 25.1997L37.5381 42.5195H113.035L102.822 25.1997Z" fill="#FBC421"/>
<path d="M113.107 88.356H37.4658L47.7516 105.802C48.9195 107.781 51.0781 108.996 53.4141 108.996H97.1671C99.4948 108.996 101.653 107.781 102.821 105.802L113.107 88.356Z" fill="#FBC421"/>
<path d="M43.415 47.8357H48.6023L53.5158 68.255V47.8357H58.3162V83.043H53.1289L48.4009 63.2705V83.043H43.415V47.8357Z" fill="#2B2F84"/>
<path d="M70.1884 70.5551L68.6337 55.9092L67.0874 70.5551H70.1884ZM75.0455 70.5551L76.7369 83.0479H71.4933L70.72 75.5788H66.5638L65.7745 83.0479H60.5469L62.2383 70.6103L65.0979 47.8327H72.2103L75.0455 70.5551Z" fill="#2B2F84"/>
<path d="M102.805 70.5551L101.25 55.9092L99.7036 70.5551H102.805ZM107.661 70.5551L109.353 83.0479H104.11L103.336 75.5788H99.18L98.3907 83.0479H93.1631L94.8545 70.6103L97.7141 47.8327H104.826L107.661 70.5551Z" fill="#2B2F84"/>
<path d="M84.1531 52.8421V65.5481H84.749C85.466 65.5481 85.9652 65.5007 86.231 65.406C87.1734 65.0354 87.9144 64.286 87.9144 63.166V55.2476C87.9144 53.6467 86.8916 52.8421 85.3853 52.8421H84.1531ZM78.9658 47.8341L85.9168 47.8497C90.5242 47.8497 92.8279 50.3183 92.8279 55.2476V63.166C92.8279 66.8019 91.1765 69.1445 87.866 70.2011C87.0687 70.4535 86.239 70.5796 84.725 70.5796H84.1531V83.0488H78.9658V47.8341Z" fill="#2B2F84"/>
<path d="M144.419 92.6532L147.519 75.1058L150.674 92.6532H144.419ZM140.821 68.1312L132.352 107.654H141.817L143.09 100.458H152.113L153.386 107.654H162.852L154.161 68.1312H140.821Z" fill="white"/>
<path d="M227.736 89.9411C227.57 98.2444 226.628 100.625 223.418 100.625C220.263 100.625 219.322 98.2444 219.156 89.9411L219.101 87.8931L219.156 85.845C219.377 77.5421 220.318 75.1618 223.418 75.1618C226.573 75.1618 227.514 77.5421 227.736 85.845L227.791 87.8931L227.736 89.9411ZM179.072 68.1317V94.425C179.072 99.4068 177.798 100.625 175.474 100.625C172.983 100.625 171.875 98.7426 171.875 94.425V68.1317H162.41V94.425C162.41 105.44 166.285 108.429 175.474 108.429C185.271 108.429 188.593 104.61 188.593 94.425V75.9367H194.634V107.654H204.1V75.9367H210.816C210.151 78.5047 209.792 81.7591 209.635 85.845L209.579 87.8931L209.635 89.9411C210.078 104.278 213.233 108.429 223.418 108.429C233.769 108.429 236.814 104.333 237.201 89.9411L237.256 87.8931L237.201 85.845C236.869 71.5084 233.714 67.3568 223.418 67.3568C217.473 67.3568 213.964 68.7572 211.96 72.7815V68.1317H179.072Z" fill="white"/>
<path d="M259.897 85.2911H257.129V75.9363H259.897C262.443 75.9363 264.104 77.0986 264.104 80.6413C264.104 83.4643 263.107 85.2911 259.897 85.2911ZM273.569 80.6413C273.569 73.113 270.303 68.1312 259.897 68.1312H247.664V107.654H257.129V93.0959H259.897C268.089 93.0959 273.569 90.1621 273.569 80.6413Z" fill="#FBC421"/>
<path d="M313.21 83.963H309.501V75.9367H313.21C315.756 75.9367 317.362 76.9884 317.362 80.1436C317.362 82.4683 316.421 83.963 313.21 83.963ZM282.156 92.6537L285.256 75.1063L288.411 92.6537H282.156ZM309.501 107.654V91.768H311.882L317.196 107.654H327.103L320.351 90.7164C324.392 89.277 326.829 86.0665 326.829 80.1436C326.829 78.6276 326.68 77.2187 326.355 75.9367H332.925V107.654H342.388V75.9367H348.864C348.616 76.9084 348.484 77.9448 348.484 79.0364C348.484 85.1253 351.363 88.6128 359.112 91.934C363.376 93.7608 365.422 95.5874 365.422 97.691C365.422 99.296 364.26 100.403 362.157 100.403C359.722 100.403 357.287 98.2444 355.072 93.9268L347.766 98.0784C351.031 105.385 355.295 108.429 361.991 108.429C369.964 108.429 375 104.223 375 97.8014C375 90.1626 371.403 87.0074 364.704 84.0737C359.61 81.8597 357.785 80.0884 357.785 78.317C357.785 76.7669 359.058 75.66 360.941 75.66C363.211 75.66 365.588 77.6525 367.529 81.5827L374.445 77.6525C372.01 71.0102 368.027 67.412 361.327 67.412C356.593 67.412 352.793 69.2223 350.588 72.2461V68.1317H324.78V72.474C322.791 69.7367 319.181 68.1317 313.21 68.1317H300.036V105.141L291.898 68.1317H278.558L270.088 107.654H279.554L280.827 100.459H289.85L291.123 107.654H309.501Z" fill="#FBC421"/>
<path fill-rule="evenodd" clip-rule="evenodd" d="M136.64 57.5832L141.406 56.7673C141.406 56.7673 141.338 56.9259 141.244 57.0392C141.188 57.1072 140.374 57.3905 139.881 57.5266C139.486 57.6342 139.256 57.7702 139.296 58.0535C139.307 58.1328 139.339 58.2065 139.409 58.2631C139.443 58.2858 139.461 58.2858 139.585 58.2631C141.847 57.8269 144.113 57.3735 146.376 56.9882C147.542 56.7956 155.537 55.77 157.29 55.5943C160.304 55.2883 165.359 54.8578 167.927 54.6821C169.739 54.5631 177.341 54.2457 178.914 54.2288C185.769 54.1494 196.157 54.5573 203.055 55.039C207.134 55.328 218.707 56.3083 223.647 57.1016C227.231 57.6795 233.622 58.7165 234.107 58.7448C234.767 58.7844 235.177 58.7391 235.211 58.1442C235.217 58.0252 235.191 57.9345 235.098 57.7362C235.018 57.5662 234.888 57.3168 234.888 57.3168C234.888 57.3168 236.073 57.2375 236.608 57.1016C236.971 57.0109 237.091 56.7106 236.85 56.3706C236.789 56.2856 236.711 56.2177 236.608 56.144C236.3 55.94 235.906 55.7927 235.957 55.6113C236.037 55.3393 236.619 55.498 236.977 55.464C237.245 55.4357 237.466 55.311 237.306 55.107C237.155 54.9087 236.4 54.7104 236.185 54.6537C232.323 53.5885 222.345 52.308 219.945 52.0018C216.567 51.5769 212.311 51.0953 209.47 50.8176C207.618 50.6421 194.542 49.7072 192.158 49.5824C184.191 49.1745 169.663 48.8231 160.051 49.3388C155.353 49.5938 143.636 50.7044 140.855 51.1124C138.766 51.4127 136.701 51.7923 134.627 52.1436C134.503 52.1662 134.482 52.1719 134.425 52.2002C134.216 52.2966 134.17 52.5345 134.278 52.6366C134.434 52.7895 135.048 52.8802 135.236 53.0445C135.357 53.1522 135.308 53.2542 135.171 53.3335C134.927 53.4808 133.348 53.7189 133.125 53.8548C132.936 53.9738 132.856 54.2685 133.125 54.4214C133.479 54.6254 134.672 54.9654 134.672 54.9654C134.672 54.9654 134.569 55.0844 134.456 55.1863C134.3 55.328 132.981 55.6397 132.589 55.8549C132.38 55.9683 132.203 56.4613 132.54 56.6313C132.608 56.6709 132.714 56.7049 132.806 56.7276C132.929 56.7616 132.956 56.7616 133.08 56.7389C142.378 55.0107 142.979 54.75 150.079 53.9057C152.135 53.6622 158.591 53.0388 159.905 52.9652C160.547 52.9255 170.381 52.3533 172.894 52.6026C173.291 52.6479 173.725 52.6989 173.725 52.6989C173.725 52.6989 166.839 52.9312 161.935 53.2202C160.603 53.2995 152.564 54.0645 151.005 54.2628C145.608 54.937 145.312 55.0674 138.646 56.2743C138.085 56.3763 136.397 56.8296 136.275 56.9089C136.054 57.0563 135.965 57.3452 136.307 57.5435C136.347 57.5662 136.39 57.5832 136.435 57.5945C136.495 57.6059 136.516 57.6059 136.64 57.5832Z" fill="#D30026"/>
<path d="M136.64 57.5832L141.406 56.7673C141.406 56.7673 141.338 56.9259 141.244 57.0392C141.188 57.1072 140.374 57.3905 139.881 57.5266C139.486 57.6342 139.256 57.7702 139.296 58.0535C139.307 58.1328 139.339 58.2065 139.409 58.2631C139.443 58.2858 139.461 58.2858 139.585 58.2631C141.847 57.8269 144.113 57.3735 146.376 56.9882C147.542 56.7956 155.537 55.77 157.29 55.5943C160.304 55.2883 165.359 54.8578 167.927 54.6821C169.739 54.5631 177.341 54.2457 178.914 54.2288C185.769 54.1494 196.157 54.5573 203.055 55.039C207.134 55.328 218.707 56.3083 223.647 57.1016C227.231 57.6795 233.622 58.7165 234.107 58.7448C234.767 58.7844 235.177 58.7391 235.211 58.1442C235.217 58.0252 235.191 57.9345 235.098 57.7362C235.018 57.5662 234.888 57.3168 234.888 57.3168C234.888 57.3168 236.073 57.2375 236.608 57.1016C236.971 57.0109 237.091 56.7106 236.85 56.3706C236.789 56.2856 236.711 56.2177 236.608 56.144C236.3 55.94 235.906 55.7927 235.957 55.6113C236.037 55.3393 236.619 55.498 236.977 55.464C237.245 55.4357 237.466 55.311 237.306 55.107C237.155 54.9087 236.4 54.7104 236.185 54.6537C232.323 53.5885 222.345 52.308 219.945 52.0018C216.567 51.5769 212.311 51.0953 209.47 50.8176C207.618 50.6421 194.542 49.7072 192.158 49.5824C184.191 49.1745 169.663 48.8231 160.051 49.3388C155.353 49.5938 143.636 50.7044 140.855 51.1124C138.766 51.4127 136.701 51.7923 134.627 52.1436C134.503 52.1662 134.482 52.1719 134.425 52.2002C134.216 52.2966 134.17 52.5345 134.278 52.6366C134.434 52.7895 135.048 52.8802 135.236 53.0445C135.357 53.1522 135.308 53.2542 135.171 53.3335C134.927 53.4808 133.348 53.7189 133.125 53.8548C132.936 53.9738 132.856 54.2685 133.125 54.4214C133.479 54.6254 134.672 54.9654 134.672 54.9654C134.672 54.9654 134.569 55.0844 134.456 55.1863C134.3 55.328 132.981 55.6397 132.589 55.8549C132.38 55.9683 132.203 56.4613 132.54 56.6313C132.608 56.6709 132.714 56.7049 132.806 56.7276C132.929 56.7616 132.956 56.7616 133.08 56.7389C142.378 55.0107 142.979 54.75 150.079 53.9057C152.135 53.6622 158.591 53.0388 159.905 52.9652C160.547 52.9255 170.381 52.3533 172.894 52.6026C173.291 52.6479 173.725 52.6989 173.725 52.6989C173.725 52.6989 166.839 52.9312 161.935 53.2202C160.603 53.2995 152.564 54.0645 151.005 54.2628C145.608 54.937 145.312 55.0674 138.646 56.2743C138.085 56.3763 136.397 56.8296 136.275 56.9089C136.054 57.0563 135.965 57.3452 136.307 57.5435C136.347 57.5662 136.39 57.5832 136.435 57.5945C136.495 57.6059 136.516 57.6059 136.64 57.5832Z" stroke="#D30026" stroke-width="0.133333"/>
<path fill-rule="evenodd" clip-rule="evenodd" d="M153.404 40.1028C152.799 40.5221 152.152 40.9528 151.464 41.3833C150.775 41.814 150.103 42.2106 149.444 42.5675C148.786 42.9303 148.174 43.2193 147.606 43.4516C147.039 43.6781 146.574 43.7972 146.211 43.8085C146.045 43.8085 145.806 43.7915 145.496 43.7576C145.186 43.7179 144.842 43.6498 144.464 43.5535C144.086 43.4516 143.696 43.3212 143.295 43.1512C142.894 42.9869 142.516 42.7716 142.16 42.5109C141.805 42.2559 141.499 41.9443 141.242 41.5873C140.985 41.2303 140.811 40.811 140.72 40.3238C140.569 39.5362 140.621 38.7259 140.879 37.8873C141.136 37.0544 141.536 36.2271 142.081 35.4055C142.625 34.5838 143.291 33.7792 144.078 32.9972C144.864 32.2097 145.719 31.4674 146.642 30.7705C147.565 30.0735 148.529 29.4276 149.535 28.8326C150.541 28.2434 151.54 27.7334 152.53 27.3141C153.521 26.8948 154.478 26.5661 155.401 26.3225C156.324 26.0845 157.155 25.9597 157.897 25.9597C158.82 25.9597 159.602 26.0845 160.245 26.3338C160.888 26.5775 161.406 26.8664 161.8 27.1837C162.193 27.5067 162.48 27.824 162.662 28.1299C162.843 28.4417 162.934 28.6626 162.934 28.7987C162.889 29.3936 162.745 29.9262 162.503 30.4078C162.261 30.8894 161.966 31.3201 161.618 31.6997C161.27 32.0737 160.9 32.4081 160.506 32.6969C160.113 32.9916 159.75 33.2466 159.417 33.4676C159.296 33.5527 159.183 33.6263 159.076 33.6886C158.971 33.7509 158.88 33.8133 158.804 33.8756C158.456 34.125 158.12 34.2099 157.795 34.1363C157.469 34.0625 157.182 33.9209 156.932 33.7169C156.683 33.5129 156.49 33.292 156.354 33.0427C156.218 32.7933 156.164 32.629 156.195 32.544C156.225 32.4817 156.278 32.4193 156.354 32.3683C156.43 32.3117 156.512 32.2664 156.603 32.2267C156.754 32.1757 156.936 32.1021 157.147 32.0057C157.359 31.9038 157.605 31.7281 157.885 31.4674C158.165 31.2067 158.483 30.8385 158.838 30.3568C159.194 29.8751 159.591 29.2122 160.029 28.3736L160.075 28.3906L160.143 28.1696C160.113 28.215 160.022 28.2547 159.871 28.2773C159.613 28.317 159.198 28.4302 158.623 28.6229C158.048 28.8156 157.375 29.0706 156.603 29.3936C155.832 29.7109 154.992 30.0961 154.085 30.5382C153.177 30.9857 152.261 31.4901 151.339 32.0623C150.416 32.629 149.52 33.2466 148.65 33.9209C147.78 34.5952 147.005 35.3205 146.324 36.091C145.643 36.8617 145.08 37.6833 144.634 38.5445C144.188 39.4115 143.926 40.318 143.851 41.2701C143.836 41.3946 143.874 41.5364 143.964 41.7006C144.055 41.8593 144.154 41.9443 144.26 41.9556C144.864 41.9103 145.549 41.7516 146.313 41.4853C147.077 41.2191 147.848 40.9018 148.627 40.5277C149.406 40.1595 150.167 39.7684 150.908 39.3548C151.649 38.9411 152.307 38.5559 152.882 38.1933L151.566 38.5106C151.354 38.5615 151.169 38.6068 151.01 38.6466C150.851 38.6919 150.711 38.7259 150.59 38.7486C150.393 38.7882 150.159 38.7316 149.887 38.5842C149.615 38.4369 149.376 38.2499 149.172 38.0289C148.968 37.808 148.828 37.57 148.752 37.3263C148.677 37.077 148.737 36.8673 148.934 36.6918H148.911C149.214 36.4481 149.693 36.2157 150.352 36.0004C151.01 35.7794 151.759 35.5981 152.599 35.4451C153.438 35.2864 154.33 35.1618 155.276 35.0712C156.221 34.9804 157.14 34.9351 158.033 34.9351C159.016 34.9351 159.92 34.9975 160.744 35.1278C161.569 35.2582 162.223 35.4677 162.707 35.768C163.1 36.0117 163.308 36.2384 163.331 36.4424C163.354 36.6463 163.282 36.822 163.116 36.9636C162.949 37.1053 162.741 37.2074 162.491 37.2696C162.242 37.332 162.041 37.349 161.89 37.3263C161.331 37.2243 160.71 37.1733 160.029 37.1733C159.909 37.1733 159.791 37.1789 159.678 37.1846C159.565 37.1903 159.447 37.1959 159.326 37.1959C158.615 38.1082 158.007 38.9639 157.499 39.7627C156.993 40.556 156.566 41.2814 156.218 41.9273C155.87 42.5789 155.59 43.1512 155.378 43.6442C155.166 44.1372 154.999 44.5507 154.879 44.885C154.758 45.2308 154.618 45.5027 154.459 45.701C154.3 45.8993 154.115 45.9956 153.903 45.9956C153.767 45.973 153.612 45.922 153.438 45.8427C153.264 45.7576 153.094 45.65 152.927 45.5084C152.761 45.3667 152.606 45.1968 152.462 44.9984C152.318 44.8001 152.201 44.579 152.111 44.3299C152.035 44.0975 151.993 43.8369 151.986 43.5535C151.978 43.2646 152.012 42.9643 152.087 42.6412L153.404 40.1028Z" fill="#F7B500"/>
<path fill-rule="evenodd" clip-rule="evenodd" d="M195.966 26.1094C196.118 26.0924 196.329 26.1205 196.602 26.1886C196.874 26.2566 197.158 26.353 197.453 26.4663C197.748 26.5854 198.032 26.7214 198.304 26.8743C198.576 27.0331 198.792 27.1918 198.95 27.3562C199.11 27.5261 199.193 27.6904 199.2 27.8492C199.208 28.0079 199.091 28.1495 198.848 28.2742C198.395 28.4952 197.813 28.9203 197.101 29.5437C196.39 30.1671 195.615 30.9095 194.775 31.771C193.935 32.6267 193.058 33.5675 192.143 34.5877C191.228 35.6076 190.331 36.6164 189.454 37.6197C190.316 37.3476 191.16 36.9849 191.984 36.5258C192.808 36.0668 193.614 35.5567 194.401 34.9842C195.188 34.4176 195.948 33.8225 196.681 33.1991C197.415 32.5757 198.114 31.958 198.78 31.3516C199.431 30.7452 200.081 30.1614 200.732 29.6003C201.382 29.0393 202.026 28.5292 202.661 28.0702C203.296 27.6168 203.928 27.2314 204.556 26.9198C205.184 26.6137 205.815 26.4097 206.451 26.3132C206.693 26.2736 206.954 26.2453 207.233 26.2283C207.513 26.2113 207.782 26.2 208.039 26.2C208.674 26.2 209.227 26.2679 209.695 26.4097C210.165 26.557 210.437 26.7496 210.513 26.9991C210.588 27.1805 210.516 27.3562 210.297 27.5147C210.077 27.6735 209.688 27.8095 209.128 27.9228C208.705 28.0079 208.27 28.1836 207.824 28.4442C207.377 28.7049 206.919 29.0223 206.451 29.4076C205.981 29.7873 205.498 30.2238 204.998 30.7055C204.499 31.1872 203.992 31.6859 203.478 32.2073C202.751 32.9328 201.961 33.6865 201.106 34.4686C200.252 35.245 199.329 35.993 198.338 36.7129C197.347 37.427 196.292 38.0844 195.172 38.6738C194.053 39.2688 192.866 39.7393 191.61 40.0849C191.942 40.7423 192.29 41.326 192.654 41.8362C193.017 42.3518 193.368 42.7997 193.709 43.1906C194.049 43.5816 194.367 43.9104 194.662 44.1824C194.956 44.4545 195.202 44.6699 195.399 44.8286C195.747 45.1289 195.982 45.3612 196.103 45.5369C196.224 45.707 196.141 45.8599 195.853 45.996C195.747 46.0356 195.543 46.0299 195.24 45.979C194.938 45.928 194.583 45.8372 194.174 45.69C193.765 45.5483 193.334 45.3612 192.88 45.1176C192.427 44.8796 192.003 44.5848 191.61 44.2392C191.02 43.695 190.498 43.1056 190.044 42.4652C189.59 41.8305 189.212 41.2014 188.909 40.5837C188.834 40.595 188.762 40.6063 188.694 40.612C188.626 40.6177 188.554 40.6233 188.478 40.6233C188.327 40.6347 188.164 40.6403 187.99 40.6403C187.817 40.6403 187.661 40.6403 187.525 40.6403C187.404 40.6403 187.295 40.6403 187.196 40.6403C187.097 40.6403 186.995 40.6347 186.889 40.6233C186.088 41.5755 185.403 42.3915 184.836 43.0773C184.269 43.763 183.894 44.222 183.713 44.46C183.591 44.5734 183.399 44.6359 183.134 44.6529C182.87 44.6755 182.601 44.6415 182.328 44.5508C182.056 44.4657 181.822 44.3354 181.625 44.1541C181.429 43.9727 181.345 43.7403 181.375 43.457C181.391 43.3719 181.61 43.0263 182.034 42.4199C182.457 41.8135 183.017 41.0484 183.713 40.1189C182.835 39.8525 182.09 39.5013 181.477 39.0762C180.865 38.6455 180.35 38.192 179.934 37.7103C179.518 37.2287 179.193 36.7468 178.958 36.2538C178.724 35.7664 178.546 35.33 178.425 34.9504C178.319 34.6273 178.247 34.361 178.21 34.1513C178.172 33.9416 178.153 33.8055 178.153 33.7432C178.138 33.5732 178.199 33.3918 178.335 33.1991C178.471 33.0064 178.637 32.8874 178.834 32.8477C179.03 32.8024 179.246 32.8704 179.481 33.0517C179.715 33.2274 179.931 33.6015 180.128 34.1683C180.173 34.3438 180.282 34.6216 180.456 35.007C180.63 35.3868 180.91 35.7892 181.296 36.2085C181.682 36.6278 182.196 37.0188 182.839 37.3703C183.482 37.7217 184.303 37.9484 185.301 38.0446C185.952 37.2059 186.64 36.3275 187.366 35.4151C188.092 34.4969 188.818 33.6015 189.545 32.7231C190.271 31.8446 190.978 31.0115 191.666 30.2125C192.355 29.4133 192.986 28.7162 193.561 28.1155C194.136 27.5204 194.632 27.0387 195.048 26.6703C195.464 26.3077 195.77 26.1205 195.966 26.1094Z" fill="#F7B500"/>
<path fill-rule="evenodd" clip-rule="evenodd" d="M167.988 34.8761C167.854 34.578 167.761 34.253 167.71 33.8971C167.659 33.541 167.625 33.1539 167.609 32.74C167.631 32.6734 167.651 32.6066 167.667 32.5443C167.682 32.482 167.689 32.4063 167.687 32.3262C167.689 32.166 167.755 31.9968 167.884 31.8233C168.014 31.6498 168.183 31.4762 168.393 31.3116C168.603 31.1424 168.848 30.9822 169.13 30.8309C169.412 30.6752 169.71 30.5416 170.024 30.4259C170.337 30.3103 170.659 30.2213 170.99 30.1545C171.321 30.0877 171.645 30.0521 171.963 30.0521C172.375 30.0521 172.712 30.1144 172.972 30.2346C173.232 30.3592 173.436 30.5061 173.584 30.6796C173.732 30.8533 173.832 31.0356 173.883 31.2225C173.935 31.4094 173.958 31.5741 173.951 31.7121C173.938 32.0013 173.88 32.2328 173.777 32.4152C173.673 32.5976 173.539 32.7445 173.375 32.8513C173.212 32.9581 173.034 33.0338 172.842 33.0739C172.65 33.1183 172.463 33.1362 172.28 33.1362C172.125 33.1362 171.992 33.1094 171.881 33.056C171.771 32.9982 171.706 32.9403 171.688 32.8735C171.751 32.7667 171.842 32.6555 171.964 32.5354C172.086 32.4197 172.211 32.2949 172.34 32.1705C172.469 32.0458 172.591 31.9257 172.706 31.8056C172.82 31.6898 172.902 31.5741 172.952 31.4629C172.9 31.445 172.838 31.4273 172.767 31.4094C172.695 31.3917 172.608 31.3784 172.507 31.3784C172.054 31.3784 171.669 31.4094 171.353 31.4672C171.038 31.5252 170.777 31.6453 170.573 31.8233C170.368 32.0013 170.218 32.2595 170.12 32.5887C170.023 32.9226 169.966 33.3631 169.949 33.9149C169.948 34.0173 169.956 34.0973 169.971 34.1551C169.986 34.2176 169.992 34.2797 169.99 34.3465C169.987 34.3644 169.987 34.3777 169.989 34.391C169.991 34.4 169.991 34.4133 169.988 34.431C169.999 34.5023 170.025 34.5646 170.068 34.6224C170.111 34.6759 170.159 34.7337 170.211 34.7961C170.263 34.8583 170.315 34.9251 170.364 35.0007C170.415 35.0809 170.456 35.1699 170.488 35.2766L170.967 36.2067C171.047 36.4025 171.161 36.5805 171.308 36.7363C171.455 36.8921 171.607 37.0256 171.763 37.1457C171.918 37.2659 172.068 37.3681 172.211 37.4572C172.354 37.5462 172.462 37.6263 172.533 37.6975L172.835 37.9957C172.881 37.9111 172.934 37.8266 172.993 37.7376C173.053 37.6485 173.107 37.5595 173.153 37.4662C173.123 37.3504 173.071 37.2347 172.999 37.1189C172.927 37.0077 172.845 36.8965 172.751 36.7896C172.658 36.6829 172.559 36.5805 172.454 36.4826C172.35 36.3847 172.252 36.3001 172.162 36.2201C172.134 36.2201 172.089 36.1979 172.025 36.1444C171.961 36.0955 171.883 36.0377 171.791 35.9664C171.699 35.8997 171.6 35.8284 171.492 35.7528C171.384 35.6771 171.276 35.6148 171.169 35.557C171.223 35.4635 171.288 35.3969 171.365 35.3568C171.442 35.3122 171.522 35.2855 171.604 35.2766H171.767C171.88 35.2855 171.998 35.2945 172.119 35.2945C172.241 35.2945 172.36 35.2945 172.474 35.2945C172.562 35.2945 172.648 35.2811 172.733 35.2589C172.817 35.2365 172.909 35.21 173.007 35.1787C173.107 35.152 173.214 35.1209 173.329 35.0986C173.444 35.072 173.573 35.0542 173.717 35.0453L174.882 34.9117C174.985 34.8983 175.085 34.894 175.183 34.894C175.281 34.894 175.378 34.894 175.473 34.894C175.626 34.9073 175.778 34.9341 175.928 34.974C176.078 35.0141 176.21 35.0675 176.327 35.1298C176.443 35.1965 176.536 35.2678 176.605 35.3523C176.675 35.4324 176.71 35.5258 176.709 35.6238C176.707 35.686 176.688 35.7394 176.651 35.784C176.615 35.8239 176.571 35.864 176.52 35.8907C176.469 35.9174 176.41 35.9397 176.344 35.953C176.277 35.9664 176.21 35.9709 176.143 35.9709C176.082 35.9709 176.029 35.9664 175.983 35.9575C175.937 35.9442 175.883 35.9397 175.823 35.9397C175.721 35.9397 175.616 35.9442 175.505 35.9619C175.395 35.9754 175.285 35.9886 175.174 36.0065C175.067 36.0509 174.959 36.0821 174.851 36.0998C174.744 36.1222 174.637 36.1356 174.531 36.1444C174.425 36.1489 174.317 36.1578 174.208 36.1666C174.099 36.1756 173.991 36.1934 173.886 36.2201C173.902 36.2468 173.915 36.2824 173.923 36.3179C173.932 36.3535 173.937 36.3892 173.939 36.4203C173.936 36.4425 173.937 36.4604 173.943 36.4693C173.936 36.5137 173.954 36.5494 173.994 36.5716C174.034 36.5984 174.08 36.6251 174.131 36.6473C174.181 36.674 174.228 36.7007 174.27 36.7363C174.313 36.7674 174.334 36.812 174.333 36.8698L174.326 36.9187C174.328 36.9499 174.333 36.9855 174.342 37.0256C174.349 37.0655 174.365 37.1012 174.387 37.1323C174.385 37.1946 174.383 37.248 174.379 37.297C174.375 37.3504 174.373 37.3994 174.373 37.4483C174.371 37.5106 174.37 37.564 174.371 37.6086C174.371 37.6574 174.375 37.702 174.382 37.7466C174.345 37.96 174.288 38.187 174.212 38.4185C174.135 38.6498 174.033 38.8813 173.907 39.1037C174.14 39.3262 174.376 39.4954 174.618 39.6066C174.858 39.7223 175.084 39.8025 175.294 39.8513C175.503 39.9004 175.681 39.9271 175.83 39.9314C175.979 39.9314 176.08 39.936 176.134 39.936C176.242 39.936 176.324 39.9314 176.38 39.9181C176.436 39.9092 176.477 39.8959 176.506 39.887C176.535 39.8737 176.557 39.8648 176.572 39.8513C176.587 39.8424 176.611 39.8336 176.645 39.8336C176.719 39.8336 176.773 39.8603 176.807 39.9092C176.84 39.9582 176.859 40.016 176.864 40.0828C176.827 40.1496 176.777 40.2164 176.714 40.283C176.65 40.3498 176.582 40.3809 176.507 40.3809C176.503 40.4166 176.467 40.4655 176.4 40.5322C176.333 40.599 176.229 40.6658 176.088 40.7324C175.947 40.7947 175.771 40.8572 175.561 40.9061C175.351 40.9551 175.105 40.9773 174.82 40.9773C174.758 40.9417 174.709 40.9195 174.673 40.915C174.636 40.9061 174.601 40.9016 174.568 40.8971C174.535 40.8928 174.497 40.8749 174.453 40.8572C174.408 40.8348 174.344 40.7859 174.259 40.7147C174.173 40.7458 174.087 40.7369 174 40.6792C173.913 40.6257 173.825 40.5546 173.735 40.4744C173.645 40.3899 173.555 40.3142 173.463 40.2429C173.372 40.1718 173.279 40.1317 173.184 40.1317C173.09 40.1317 172.995 40.1763 172.902 40.2653C172.808 40.3543 172.712 40.4477 172.614 40.5501C172.515 40.6479 172.416 40.7369 172.318 40.8081C172.22 40.8839 172.122 40.9061 172.024 40.8794C171.804 41.0084 171.571 41.1107 171.326 41.1954C171.081 41.2799 170.827 41.3422 170.563 41.3911C170.299 41.4356 170.033 41.4668 169.763 41.4847C169.494 41.5024 169.227 41.5112 168.963 41.5112C168.531 41.5112 168.122 41.4579 167.738 41.3511C167.353 41.2487 167.001 41.1064 166.681 40.9328C166.36 40.7592 166.072 40.5589 165.816 40.3364C165.56 40.114 165.343 39.887 165.166 39.6555C164.988 39.4286 164.854 39.2016 164.763 38.9836C164.673 38.7612 164.629 38.5653 164.633 38.3917C164.704 37.8889 164.942 37.3771 165.347 36.852C165.438 36.7318 165.561 36.5805 165.714 36.407C165.867 36.2334 166.05 36.0554 166.265 35.873C166.481 35.6905 166.731 35.5126 167.016 35.3344C167.301 35.1565 167.625 35.0052 167.988 34.8761ZM171.923 39.7935C171.971 39.7446 172.007 39.6911 172.031 39.6422C172.055 39.5889 172.078 39.5309 172.101 39.4686C171.849 39.2863 171.577 39.0815 171.284 38.8545C170.992 38.6232 170.714 38.4006 170.451 38.1826C170.187 37.9645 169.961 37.7643 169.773 37.5907C169.585 37.4127 169.469 37.2836 169.427 37.1991C169.408 37.2435 169.388 37.2836 169.37 37.3192C169.351 37.3549 169.338 37.3994 169.331 37.4483L168.981 37.7063C168.935 37.7865 168.871 37.8667 168.789 37.9467C168.708 38.0223 168.616 38.107 168.516 38.1959C168.369 38.3249 168.244 38.4718 168.14 38.6321C168.036 38.7922 167.951 38.9524 167.885 39.1126C167.818 39.2729 167.773 39.4286 167.75 39.571C167.726 39.7133 167.717 39.8381 167.723 39.9448C167.74 40.105 167.779 40.2119 167.838 40.2742C167.897 40.3364 167.981 40.3899 168.09 40.4343L168.523 40.599C168.7 40.6436 168.883 40.6702 169.074 40.6835C169.265 40.6969 169.467 40.6969 169.678 40.6792C169.857 40.6658 170.045 40.6346 170.243 40.5945C170.442 40.5546 170.641 40.4966 170.84 40.4255C171.04 40.3543 171.231 40.2653 171.415 40.1629C171.598 40.0605 171.768 39.9359 171.923 39.7935Z" fill="#F7B500"/>
<path fill-rule="evenodd" clip-rule="evenodd" d="M221.866 26.1072C222.017 26.0901 222.229 26.1184 222.5 26.1865C222.773 26.2545 223.056 26.3509 223.353 26.4643C223.647 26.5834 223.93 26.7193 224.203 26.8724C224.475 27.0311 224.691 27.1898 224.85 27.3542C225.009 27.5242 225.092 27.6886 225.099 27.8473C225.107 28.0061 224.989 28.1478 224.748 28.2725C224.294 28.4935 223.711 28.9187 223 29.5423C222.288 30.1658 221.513 30.9084 220.673 31.77C219.834 32.6259 218.956 33.5669 218.04 34.5873C217.125 35.6076 216.228 36.6165 215.351 37.6198C216.213 37.3478 217.056 36.9851 217.881 36.5259C218.706 36.0667 219.512 35.5566 220.299 34.984C221.086 34.4171 221.847 33.822 222.58 33.1985C223.315 32.5749 224.015 31.957 224.68 31.3505C225.33 30.7439 225.981 30.1602 226.631 29.5989C227.282 29.0378 227.927 28.5277 228.561 28.0685C229.197 27.615 229.829 27.2296 230.456 26.9178C231.085 26.6116 231.717 26.4075 232.353 26.3113C232.594 26.2716 232.855 26.2432 233.136 26.2262C233.416 26.2092 233.684 26.1979 233.942 26.1979C234.578 26.1979 235.129 26.266 235.598 26.4075C236.067 26.5549 236.34 26.7478 236.416 26.9971C236.491 27.1785 236.42 27.3542 236.201 27.5129C235.98 27.6716 235.591 27.8077 235.031 27.9211C234.607 28.0061 234.172 28.1818 233.725 28.4426C233.279 28.7034 232.822 29.0208 232.353 29.4062C231.884 29.7861 231.399 30.2225 230.899 30.7043C230.4 31.1861 229.893 31.6851 229.379 32.2065C228.653 32.932 227.861 33.686 227.006 34.4682C226.152 35.2448 225.229 35.993 224.237 36.7129C223.247 37.4272 222.191 38.0848 221.071 38.6742C219.95 39.2694 218.763 39.7399 217.507 40.0857C217.839 40.7432 218.188 41.3271 218.551 41.8372C218.914 42.353 219.266 42.8009 219.606 43.1919C219.947 43.5831 220.265 43.9119 220.56 44.184C220.855 44.456 221.102 44.6715 221.298 44.8302C221.645 45.1307 221.88 45.363 222.002 45.5387C222.123 45.7088 222.04 45.8618 221.751 45.9979C221.645 46.0376 221.442 46.0319 221.138 45.9809C220.836 45.93 220.48 45.8392 220.072 45.6918C219.663 45.5501 219.232 45.363 218.778 45.1194C218.324 44.8812 217.9 44.5864 217.507 44.2407C216.916 43.6966 216.394 43.107 215.941 42.4665C215.487 41.8316 215.108 41.2024 214.805 40.5845C214.73 40.5958 214.658 40.6071 214.59 40.6128C214.522 40.6185 214.45 40.6243 214.374 40.6243C214.223 40.6355 214.06 40.6411 213.886 40.6411C213.712 40.6411 213.557 40.6411 213.421 40.6411C213.3 40.6411 213.19 40.6411 213.092 40.6411C212.993 40.6411 212.891 40.6355 212.785 40.6243C211.983 41.5764 211.298 42.3927 210.731 43.0787C210.163 43.7645 209.789 44.2237 209.607 44.4618C209.486 44.5751 209.293 44.6375 209.028 44.6545C208.763 44.6772 208.494 44.6432 208.222 44.5525C207.95 44.4675 207.716 44.3371 207.519 44.1557C207.322 43.9742 207.239 43.7419 207.269 43.4584C207.284 43.3735 207.504 43.0276 207.927 42.4211C208.351 41.8146 208.911 41.0493 209.607 40.1197C208.73 39.8533 207.984 39.5018 207.371 39.0767C206.758 38.6459 206.243 38.1924 205.827 37.7106C205.411 37.2287 205.086 36.7469 204.851 36.2538C204.617 35.7663 204.439 35.3298 204.318 34.95C204.212 34.6269 204.14 34.3605 204.103 34.1508C204.064 33.9411 204.046 33.805 204.046 33.7426C204.031 33.5725 204.091 33.3912 204.227 33.1985C204.363 33.0056 204.53 32.8867 204.727 32.8471C204.923 32.8016 205.139 32.8697 205.373 33.0511C205.608 33.2268 205.823 33.6009 206.021 34.1678C206.066 34.3435 206.175 34.6213 206.349 35.0067C206.524 35.3864 206.804 35.7889 207.19 36.2085C207.576 36.6278 208.09 37.019 208.733 37.3705C209.376 37.7219 210.197 37.9487 211.196 38.045C211.847 37.2061 212.536 36.3274 213.262 35.4149C213.988 34.4965 214.714 33.6009 215.441 32.7223C216.167 31.8436 216.875 31.0104 217.563 30.2111C218.252 29.4119 218.884 28.7147 219.459 28.1138C220.034 27.5186 220.529 27.0368 220.946 26.6683C221.362 26.3056 221.668 26.1184 221.866 26.1072Z" fill="#F7B500"/>
</svg>
