<svg width="640" height="306" viewBox="0 0 640 306" fill="none" xmlns="http://www.w3.org/2000/svg">
<path d="M269.778 155.778C301.143 173.873 339.747 173.793 371.113 155.685L640 0.442383V305.783H0V0L269.778 155.778Z" fill="#1D3489"/>
<path d="M124.699 237.303L102.822 200.203C101.654 198.224 99.4955 197.001 97.1678 197.001H53.4148C51.0791 197.001 48.9205 198.224 47.7523 200.203L25.8758 237.303C24.7081 239.283 24.7081 241.72 25.8758 243.699L37.4665 263.353L47.7523 280.799C48.9205 282.779 51.0791 284.001 53.4148 284.001H97.1678C99.4955 284.001 101.654 282.779 102.822 280.799L113.108 263.353L124.699 243.699C125.867 241.72 125.867 239.283 124.699 237.303Z" fill="white"/>
<path d="M112.521 279.66V280.67H113.165C113.448 280.67 113.665 280.622 113.802 280.543C113.947 280.465 114.019 280.323 114.019 280.133C114.019 279.968 113.955 279.849 113.826 279.77C113.705 279.7 113.544 279.66 113.351 279.66H112.521ZM111.949 282.72V279.155H113.335C114.164 279.155 114.583 279.486 114.583 280.157C114.583 280.33 114.559 280.473 114.511 280.591C114.462 280.709 114.398 280.804 114.309 280.883C114.221 280.961 114.124 281.024 114.011 281.072C113.899 281.111 113.778 281.143 113.649 281.159L114.696 282.72H114.003L112.964 281.174H112.521V282.72H111.949ZM115.638 280.938C115.638 280.591 115.574 280.267 115.437 279.968C115.308 279.66 115.131 279.392 114.905 279.171C114.68 278.942 114.414 278.769 114.108 278.635C113.802 278.5 113.48 278.43 113.133 278.43C112.787 278.43 112.465 278.5 112.159 278.635C111.852 278.769 111.587 278.942 111.361 279.171C111.135 279.392 110.958 279.66 110.83 279.968C110.693 280.267 110.628 280.591 110.628 280.938C110.628 281.285 110.693 281.608 110.83 281.908C110.958 282.216 111.135 282.476 111.361 282.705C111.587 282.933 111.852 283.107 112.159 283.241C112.465 283.375 112.787 283.438 113.133 283.438C113.48 283.438 113.802 283.375 114.108 283.241C114.414 283.107 114.68 282.933 114.905 282.705C115.131 282.476 115.308 282.216 115.437 281.908C115.574 281.608 115.638 281.285 115.638 280.938ZM110.008 280.938C110.008 280.512 110.089 280.118 110.258 279.747C110.419 279.376 110.644 279.045 110.926 278.769C111.208 278.493 111.538 278.28 111.917 278.114C112.295 277.956 112.706 277.877 113.133 277.877C113.568 277.877 113.971 277.956 114.35 278.114C114.736 278.28 115.066 278.493 115.349 278.769C115.63 279.045 115.848 279.376 116.017 279.747C116.178 280.118 116.259 280.512 116.259 280.938C116.259 281.364 116.178 281.758 116.017 282.129C115.848 282.499 115.63 282.823 115.349 283.099C115.066 283.375 114.736 283.596 114.35 283.762C113.971 283.919 113.568 283.998 113.133 283.998C112.706 283.998 112.295 283.919 111.917 283.762C111.538 283.596 111.208 283.375 110.926 283.099C110.644 282.823 110.419 282.499 110.258 282.129C110.089 281.758 110.008 281.364 110.008 280.938Z" fill="white"/>
<path d="M124.699 237.303L116.217 222.925H112.496V257.959H116.29L124.699 243.699C125.867 241.72 125.867 239.283 124.699 237.303Z" fill="#FBC421"/>
<path d="M34.3557 222.923L25.8744 237.301C24.7144 239.281 24.7144 241.718 25.8744 243.698L34.2834 257.957H37.8999V222.923H34.3557Z" fill="#FBC421"/>
<path d="M102.822 200.201C101.654 198.221 99.4952 197.007 97.1675 197.007H53.4145C51.0785 197.007 48.9199 198.221 47.752 200.201L37.5386 217.521H113.035L102.822 200.201Z" fill="#FBC421"/>
<path d="M113.107 263.357H37.4658L47.7516 280.803C48.9195 282.782 51.0781 283.997 53.4141 283.997H97.1671C99.4948 283.997 101.653 282.782 102.821 280.803L113.107 263.357Z" fill="#FBC421"/>
<path d="M43.4155 222.837H48.6028L53.5163 243.256V222.837H58.3167V258.044H53.1294L48.4014 238.271V258.044H43.4155V222.837Z" fill="#2B2F84"/>
<path d="M70.1884 245.556L68.6337 230.91L67.0874 245.556H70.1884ZM75.0455 245.556L76.7369 258.049H71.4933L70.72 250.58H66.5638L65.7745 258.049H60.5469L62.2383 245.611L65.0979 222.834H72.2103L75.0455 245.556Z" fill="#2B2F84"/>
<path d="M102.805 245.556L101.25 230.91L99.7036 245.556H102.805ZM107.661 245.556L109.353 258.049H104.11L103.336 250.58H99.18L98.3907 258.049H93.1631L94.8545 245.611L97.7141 222.834H104.826L107.661 245.556Z" fill="#2B2F84"/>
<path d="M84.1531 227.843V240.549H84.749C85.466 240.549 85.9652 240.502 86.231 240.407C87.1734 240.036 87.9144 239.287 87.9144 238.167V230.249C87.9144 228.648 86.8916 227.843 85.3853 227.843H84.1531ZM78.9658 222.835L85.9168 222.851C90.5242 222.851 92.8279 225.319 92.8279 230.249V238.167C92.8279 241.803 91.1765 244.145 87.866 245.202C87.0687 245.455 86.239 245.581 84.725 245.581H84.1531V258.05H78.9658V222.835Z" fill="#2B2F84"/>
<path d="M144.419 267.654L147.519 250.107L150.674 267.654H144.419ZM140.821 243.132L132.352 282.655H141.817L143.09 275.459H152.113L153.386 282.655H162.852L154.161 243.132H140.821Z" fill="white"/>
<path d="M227.736 264.942C227.57 273.245 226.628 275.626 223.418 275.626C220.263 275.626 219.322 273.245 219.156 264.942L219.101 262.894L219.156 260.846C219.377 252.543 220.318 250.163 223.418 250.163C226.573 250.163 227.514 252.543 227.736 260.846L227.791 262.894L227.736 264.942ZM179.072 243.133V269.426C179.072 274.408 177.798 275.626 175.474 275.626C172.983 275.626 171.875 273.744 171.875 269.426V243.133H162.41V269.426C162.41 280.442 166.285 283.43 175.474 283.43C185.271 283.43 188.593 279.611 188.593 269.426V250.938H194.634V282.656H204.1V250.938H210.816C210.151 253.506 209.792 256.76 209.635 260.846L209.579 262.894L209.635 264.942C210.078 279.279 213.233 283.43 223.418 283.43C233.769 283.43 236.814 279.334 237.201 264.942L237.256 262.894L237.201 260.846C236.869 246.509 233.714 242.358 223.418 242.358C217.473 242.358 213.964 243.758 211.96 247.783V243.133H179.072Z" fill="white"/>
<path d="M259.897 260.292H257.129V250.937H259.897C262.443 250.937 264.104 252.1 264.104 255.642C264.104 258.465 263.107 260.292 259.897 260.292ZM273.569 255.642C273.569 248.114 270.303 243.132 259.897 243.132H247.664V282.655H257.129V268.097H259.897C268.089 268.097 273.569 265.163 273.569 255.642Z" fill="#FBC421"/>
<path d="M313.21 258.964H309.501V250.938H313.21C315.756 250.938 317.362 251.989 317.362 255.145C317.362 257.469 316.421 258.964 313.21 258.964ZM282.156 267.655L285.256 250.107L288.411 267.655H282.156ZM309.501 282.656V266.769H311.882L317.196 282.656H327.103L320.351 265.717C324.392 264.278 326.829 261.068 326.829 255.145C326.829 253.629 326.68 252.22 326.355 250.938H332.925V282.656H342.388V250.938H348.864C348.616 251.909 348.484 252.946 348.484 254.037C348.484 260.126 351.363 263.614 359.112 266.935C363.376 268.762 365.422 270.588 365.422 272.692C365.422 274.297 364.26 275.404 362.157 275.404C359.722 275.404 357.287 273.245 355.072 268.928L347.766 273.079C351.031 280.386 355.295 283.43 361.991 283.43C369.964 283.43 375 279.224 375 272.802C375 265.164 371.403 262.008 364.704 259.075C359.61 256.861 357.785 255.089 357.785 253.318C357.785 251.768 359.058 250.661 360.941 250.661C363.211 250.661 365.588 252.654 367.529 256.584L374.445 252.654C372.01 246.011 368.027 242.413 361.327 242.413C356.593 242.413 352.793 244.223 350.588 247.247V243.133H324.78V247.475C322.791 244.738 319.181 243.133 313.21 243.133H300.036V280.142L291.898 243.133H278.558L270.088 282.656H279.554L280.827 275.46H289.85L291.123 282.656H309.501Z" fill="#FBC421"/>
<path fill-rule="evenodd" clip-rule="evenodd" d="M136.64 232.584L141.406 231.768C141.406 231.768 141.338 231.927 141.244 232.04C141.188 232.108 140.374 232.392 139.881 232.528C139.486 232.635 139.256 232.771 139.296 233.054C139.307 233.134 139.339 233.207 139.409 233.264C139.443 233.287 139.461 233.287 139.585 233.264C141.847 232.828 144.113 232.374 146.376 231.989C147.542 231.797 155.537 230.771 157.29 230.595C160.304 230.289 165.359 229.859 167.927 229.683C169.739 229.564 177.341 229.247 178.914 229.23C185.769 229.15 196.157 229.558 203.055 230.04C207.134 230.329 218.707 231.309 223.647 232.103C227.231 232.68 233.622 233.717 234.107 233.746C234.767 233.785 235.177 233.74 235.211 233.145C235.217 233.026 235.191 232.935 235.098 232.737C235.018 232.567 234.888 232.318 234.888 232.318C234.888 232.318 236.073 232.239 236.608 232.103C236.971 232.012 237.091 231.712 236.85 231.372C236.789 231.287 236.711 231.219 236.608 231.145C236.3 230.941 235.906 230.794 235.957 230.612C236.037 230.34 236.619 230.499 236.977 230.465C237.245 230.437 237.466 230.312 237.306 230.108C237.155 229.91 236.4 229.711 236.185 229.655C232.323 228.589 222.345 227.309 219.945 227.003C216.567 226.578 212.311 226.096 209.47 225.819C207.618 225.643 194.542 224.708 192.158 224.583C184.191 224.176 169.663 223.824 160.051 224.34C155.353 224.595 143.636 225.705 140.855 226.113C138.766 226.414 136.701 226.793 134.627 227.145C134.503 227.167 134.482 227.173 134.425 227.201C134.216 227.298 134.17 227.535 134.278 227.638C134.434 227.79 135.048 227.881 135.236 228.045C135.357 228.153 135.308 228.255 135.171 228.334C134.927 228.482 133.348 228.72 133.125 228.856C132.936 228.975 132.856 229.269 133.125 229.422C133.479 229.626 134.672 229.966 134.672 229.966C134.672 229.966 134.569 230.085 134.456 230.187C134.3 230.329 132.981 230.641 132.589 230.856C132.38 230.969 132.203 231.462 132.54 231.632C132.608 231.672 132.714 231.706 132.806 231.729C132.929 231.763 132.956 231.763 133.08 231.74C142.378 230.012 142.979 229.751 150.079 228.907C152.135 228.663 158.591 228.04 159.905 227.966C160.547 227.927 170.381 227.354 172.894 227.604C173.291 227.649 173.725 227.7 173.725 227.7C173.725 227.7 166.839 227.932 161.935 228.221C160.603 228.3 152.564 229.065 151.005 229.264C145.608 229.938 145.312 230.068 138.646 231.275C138.085 231.377 136.397 231.831 136.275 231.91C136.054 232.057 135.965 232.346 136.307 232.545C136.347 232.567 136.39 232.584 136.435 232.595C136.495 232.607 136.516 232.607 136.64 232.584Z" fill="#D30026"/>
<path d="M136.64 232.584L141.406 231.768C141.406 231.768 141.338 231.927 141.244 232.04C141.188 232.108 140.374 232.392 139.881 232.528C139.486 232.635 139.256 232.771 139.296 233.054C139.307 233.134 139.339 233.207 139.409 233.264C139.443 233.287 139.461 233.287 139.585 233.264C141.847 232.828 144.113 232.374 146.376 231.989C147.542 231.797 155.537 230.771 157.29 230.595C160.304 230.289 165.359 229.859 167.927 229.683C169.739 229.564 177.341 229.247 178.914 229.23C185.769 229.15 196.157 229.558 203.055 230.04C207.134 230.329 218.707 231.309 223.647 232.103C227.231 232.68 233.622 233.717 234.107 233.746C234.767 233.785 235.177 233.74 235.211 233.145C235.217 233.026 235.191 232.935 235.098 232.737C235.018 232.567 234.888 232.318 234.888 232.318C234.888 232.318 236.073 232.239 236.608 232.103C236.971 232.012 237.091 231.712 236.85 231.372C236.789 231.287 236.711 231.219 236.608 231.145C236.3 230.941 235.906 230.794 235.957 230.612C236.037 230.34 236.619 230.499 236.977 230.465C237.245 230.437 237.466 230.312 237.306 230.108C237.155 229.91 236.4 229.711 236.185 229.655C232.323 228.589 222.345 227.309 219.945 227.003C216.567 226.578 212.311 226.096 209.47 225.819C207.618 225.643 194.542 224.708 192.158 224.583C184.191 224.176 169.663 223.824 160.051 224.34C155.353 224.595 143.636 225.705 140.855 226.113C138.766 226.414 136.701 226.793 134.627 227.145C134.503 227.167 134.482 227.173 134.425 227.201C134.216 227.298 134.17 227.535 134.278 227.638C134.434 227.79 135.048 227.881 135.236 228.045C135.357 228.153 135.308 228.255 135.171 228.334C134.927 228.482 133.348 228.72 133.125 228.856C132.936 228.975 132.856 229.269 133.125 229.422C133.479 229.626 134.672 229.966 134.672 229.966C134.672 229.966 134.569 230.085 134.456 230.187C134.3 230.329 132.981 230.641 132.589 230.856C132.38 230.969 132.203 231.462 132.54 231.632C132.608 231.672 132.714 231.706 132.806 231.729C132.929 231.763 132.956 231.763 133.08 231.74C142.378 230.012 142.979 229.751 150.079 228.907C152.135 228.663 158.591 228.04 159.905 227.966C160.547 227.927 170.381 227.354 172.894 227.604C173.291 227.649 173.725 227.7 173.725 227.7C173.725 227.7 166.839 227.932 161.935 228.221C160.603 228.3 152.564 229.065 151.005 229.264C145.608 229.938 145.312 230.068 138.646 231.275C138.085 231.377 136.397 231.831 136.275 231.91C136.054 232.057 135.965 232.346 136.307 232.545C136.347 232.567 136.39 232.584 136.435 232.595C136.495 232.607 136.516 232.607 136.64 232.584Z" stroke="#D30026" stroke-width="0.133333"/>
<path fill-rule="evenodd" clip-rule="evenodd" d="M153.404 215.104C152.799 215.523 152.152 215.954 151.464 216.384C150.775 216.815 150.103 217.212 149.444 217.569C148.786 217.931 148.174 218.22 147.606 218.453C147.039 218.679 146.574 218.798 146.211 218.81C146.045 218.81 145.806 218.793 145.496 218.759C145.186 218.719 144.842 218.651 144.464 218.555C144.086 218.453 143.696 218.322 143.295 218.152C142.894 217.988 142.516 217.773 142.16 217.512C141.805 217.257 141.499 216.945 141.242 216.588C140.985 216.231 140.811 215.812 140.72 215.325C140.569 214.537 140.621 213.727 140.879 212.888C141.136 212.055 141.536 211.228 142.081 210.406C142.625 209.585 143.291 208.78 144.078 207.998C144.864 207.211 145.719 206.468 146.642 205.771C147.565 205.074 148.529 204.429 149.535 203.834C150.541 203.244 151.54 202.734 152.53 202.315C153.521 201.896 154.478 201.567 155.401 201.323C156.324 201.085 157.155 200.961 157.897 200.961C158.82 200.961 159.602 201.085 160.245 201.335C160.888 201.578 161.406 201.867 161.8 202.185C162.193 202.508 162.48 202.825 162.662 203.131C162.843 203.443 162.934 203.664 162.934 203.8C162.889 204.395 162.745 204.927 162.503 205.409C162.261 205.89 161.966 206.321 161.618 206.701C161.27 207.075 160.9 207.409 160.506 207.698C160.113 207.993 159.75 208.248 159.417 208.469C159.296 208.554 159.183 208.627 159.076 208.69C158.971 208.752 158.88 208.814 158.804 208.877C158.456 209.126 158.12 209.211 157.795 209.137C157.469 209.063 157.182 208.922 156.932 208.718C156.683 208.514 156.49 208.293 156.354 208.044C156.218 207.794 156.164 207.63 156.195 207.545C156.225 207.483 156.278 207.42 156.354 207.369C156.43 207.313 156.512 207.267 156.603 207.228C156.754 207.177 156.936 207.103 157.147 207.007C157.359 206.905 157.605 206.729 157.885 206.468C158.165 206.208 158.483 205.839 158.838 205.358C159.194 204.876 159.591 204.213 160.029 203.375L160.075 203.392L160.143 203.171C160.113 203.216 160.022 203.256 159.871 203.278C159.613 203.318 159.198 203.431 158.623 203.624C158.048 203.817 157.375 204.072 156.603 204.395C155.832 204.712 154.992 205.097 154.085 205.539C153.177 205.987 152.261 206.491 151.339 207.063C150.416 207.63 149.52 208.248 148.65 208.922C147.78 209.596 147.005 210.321 146.324 211.092C145.643 211.863 145.08 212.684 144.634 213.546C144.188 214.412 143.926 215.319 143.851 216.271C143.836 216.396 143.874 216.537 143.964 216.702C144.055 216.86 144.154 216.945 144.26 216.957C144.864 216.911 145.549 216.753 146.313 216.486C147.077 216.22 147.848 215.903 148.627 215.529C149.406 215.16 150.167 214.769 150.908 214.356C151.649 213.942 152.307 213.557 152.882 213.194L151.566 213.512C151.354 213.563 151.169 213.608 151.01 213.648C150.851 213.693 150.711 213.727 150.59 213.75C150.393 213.789 150.159 213.733 149.887 213.585C149.615 213.438 149.376 213.251 149.172 213.03C148.968 212.809 148.828 212.571 148.752 212.327C148.677 212.078 148.737 211.868 148.934 211.693H148.911C149.214 211.449 149.693 211.217 150.352 211.001C151.01 210.78 151.759 210.599 152.599 210.446C153.438 210.287 154.33 210.163 155.276 210.072C156.221 209.981 157.14 209.936 158.033 209.936C159.016 209.936 159.92 209.999 160.744 210.129C161.569 210.259 162.223 210.469 162.707 210.769C163.1 211.013 163.308 211.239 163.331 211.443C163.354 211.647 163.282 211.823 163.116 211.965C162.949 212.106 162.741 212.208 162.491 212.271C162.242 212.333 162.041 212.35 161.89 212.327C161.331 212.225 160.71 212.174 160.029 212.174C159.909 212.174 159.791 212.18 159.678 212.186C159.565 212.191 159.447 212.197 159.326 212.197C158.615 213.109 158.007 213.965 157.499 214.764C156.993 215.557 156.566 216.282 156.218 216.928C155.87 217.58 155.59 218.152 155.378 218.645C155.166 219.138 154.999 219.552 154.879 219.886C154.758 220.232 154.618 220.504 154.459 220.702C154.3 220.9 154.115 220.997 153.903 220.997C153.767 220.974 153.612 220.923 153.438 220.844C153.264 220.759 153.094 220.651 152.927 220.509C152.761 220.368 152.606 220.198 152.462 219.999C152.318 219.801 152.201 219.58 152.111 219.331C152.035 219.098 151.993 218.838 151.986 218.555C151.978 218.266 152.012 217.965 152.087 217.642L153.404 215.104Z" fill="#F7B500"/>
<path fill-rule="evenodd" clip-rule="evenodd" d="M195.966 201.11C196.118 201.093 196.329 201.122 196.602 201.19C196.874 201.258 197.158 201.354 197.453 201.467C197.748 201.586 198.032 201.722 198.304 201.875C198.576 202.034 198.792 202.193 198.95 202.357C199.11 202.527 199.193 202.691 199.2 202.85C199.208 203.009 199.091 203.15 198.848 203.275C198.395 203.496 197.813 203.921 197.101 204.545C196.39 205.168 195.615 205.911 194.775 206.772C193.935 207.628 193.058 208.569 192.143 209.589C191.228 210.609 190.331 211.617 189.454 212.621C190.316 212.349 191.16 211.986 191.984 211.527C192.808 211.068 193.614 210.558 194.401 209.985C195.188 209.419 195.948 208.824 196.681 208.2C197.415 207.577 198.114 206.959 198.78 206.353C199.431 205.746 200.081 205.162 200.732 204.601C201.382 204.04 202.026 203.53 202.661 203.071C203.296 202.618 203.928 202.232 204.556 201.921C205.184 201.615 205.815 201.411 206.451 201.314C206.693 201.275 206.954 201.246 207.233 201.229C207.513 201.212 207.782 201.201 208.039 201.201C208.674 201.201 209.227 201.269 209.695 201.411C210.165 201.558 210.437 201.751 210.513 202C210.588 202.181 210.516 202.357 210.297 202.516C210.077 202.674 209.688 202.81 209.128 202.924C208.705 203.009 208.27 203.185 207.824 203.445C207.377 203.706 206.919 204.023 206.451 204.409C205.981 204.788 205.498 205.225 204.998 205.706C204.499 206.188 203.992 206.687 203.478 207.208C202.751 207.934 201.961 208.687 201.106 209.47C200.252 210.246 199.329 210.994 198.338 211.714C197.347 212.428 196.292 213.085 195.172 213.675C194.053 214.27 192.866 214.74 191.61 215.086C191.942 215.743 192.29 216.327 192.654 216.837C193.017 217.353 193.368 217.801 193.709 218.192C194.049 218.583 194.367 218.911 194.662 219.183C194.956 219.455 195.202 219.671 195.399 219.83C195.747 220.13 195.982 220.362 196.103 220.538C196.224 220.708 196.141 220.861 195.853 220.997C195.747 221.037 195.543 221.031 195.24 220.98C194.938 220.929 194.583 220.838 194.174 220.691C193.765 220.549 193.334 220.362 192.88 220.119C192.427 219.881 192.003 219.586 191.61 219.24C191.02 218.696 190.498 218.107 190.044 217.466C189.59 216.831 189.212 216.202 188.909 215.585C188.834 215.596 188.762 215.607 188.694 215.613C188.626 215.619 188.554 215.624 188.478 215.624C188.327 215.636 188.164 215.641 187.99 215.641C187.817 215.641 187.661 215.641 187.525 215.641C187.404 215.641 187.295 215.641 187.196 215.641C187.097 215.641 186.995 215.636 186.889 215.624C186.088 216.576 185.403 217.392 184.836 218.078C184.269 218.764 183.894 219.223 183.713 219.461C183.591 219.574 183.399 219.637 183.134 219.654C182.87 219.677 182.601 219.643 182.328 219.552C182.056 219.467 181.822 219.336 181.625 219.155C181.429 218.974 181.345 218.741 181.375 218.458C181.391 218.373 181.61 218.027 182.034 217.421C182.457 216.814 183.017 216.049 183.713 215.12C182.835 214.854 182.09 214.502 181.477 214.077C180.865 213.646 180.35 213.193 179.934 212.711C179.518 212.23 179.193 211.748 178.958 211.255C178.724 210.767 178.546 210.331 178.425 209.951C178.319 209.628 178.247 209.362 178.21 209.152C178.172 208.943 178.153 208.807 178.153 208.744C178.138 208.574 178.199 208.393 178.335 208.2C178.471 208.007 178.637 207.888 178.834 207.849C179.03 207.803 179.246 207.871 179.481 208.053C179.715 208.228 179.931 208.602 180.128 209.169C180.173 209.345 180.282 209.623 180.456 210.008C180.63 210.388 180.91 210.79 181.296 211.21C181.682 211.629 182.196 212.02 182.839 212.371C183.482 212.723 184.303 212.949 185.301 213.046C185.952 212.207 186.64 211.328 187.366 210.416C188.092 209.498 188.818 208.602 189.545 207.724C190.271 206.846 190.978 206.012 191.666 205.213C192.355 204.414 192.986 203.717 193.561 203.116C194.136 202.521 194.632 202.04 195.048 201.671C195.464 201.309 195.77 201.122 195.966 201.11Z" fill="#F7B500"/>
<path fill-rule="evenodd" clip-rule="evenodd" d="M167.988 209.877C167.854 209.579 167.761 209.254 167.71 208.898C167.659 208.542 167.625 208.155 167.609 207.741C167.631 207.674 167.651 207.608 167.667 207.545C167.682 207.483 167.689 207.407 167.687 207.327C167.689 207.167 167.755 206.998 167.884 206.824C168.014 206.651 168.183 206.477 168.393 206.313C168.603 206.143 168.848 205.983 169.13 205.832C169.412 205.676 169.71 205.543 170.024 205.427C170.337 205.311 170.659 205.222 170.99 205.155C171.321 205.089 171.645 205.053 171.963 205.053C172.375 205.053 172.712 205.115 172.972 205.236C173.232 205.36 173.436 205.507 173.584 205.681C173.732 205.854 173.832 206.037 173.883 206.224C173.935 206.41 173.958 206.575 173.951 206.713C173.938 207.002 173.88 207.234 173.777 207.416C173.673 207.599 173.539 207.745 173.375 207.852C173.212 207.959 173.034 208.035 172.842 208.075C172.65 208.119 172.463 208.137 172.28 208.137C172.125 208.137 171.992 208.11 171.881 208.057C171.771 207.999 171.706 207.941 171.688 207.874C171.751 207.768 171.842 207.656 171.964 207.536C172.086 207.421 172.211 207.296 172.34 207.171C172.469 207.047 172.591 206.927 172.706 206.807C172.82 206.691 172.902 206.575 172.952 206.464C172.9 206.446 172.838 206.428 172.767 206.41C172.695 206.393 172.608 206.379 172.507 206.379C172.054 206.379 171.669 206.41 171.353 206.468C171.038 206.526 170.777 206.646 170.573 206.824C170.368 207.002 170.218 207.26 170.12 207.59C170.023 207.924 169.966 208.364 169.949 208.916C169.948 209.018 169.956 209.098 169.971 209.156C169.986 209.219 169.992 209.281 169.99 209.347C169.987 209.365 169.987 209.379 169.989 209.392C169.991 209.401 169.991 209.414 169.988 209.432C169.999 209.503 170.025 209.566 170.068 209.623C170.111 209.677 170.159 209.735 170.211 209.797C170.263 209.859 170.315 209.926 170.364 210.002C170.415 210.082 170.456 210.171 170.488 210.278L170.967 211.208C171.047 211.403 171.161 211.581 171.308 211.737C171.455 211.893 171.607 212.027 171.763 212.147C171.918 212.267 172.068 212.369 172.211 212.458C172.354 212.547 172.462 212.627 172.533 212.698L172.835 212.997C172.881 212.912 172.934 212.828 172.993 212.739C173.053 212.65 173.107 212.561 173.153 212.467C173.123 212.351 173.071 212.236 172.999 212.12C172.927 212.009 172.845 211.897 172.751 211.791C172.658 211.684 172.559 211.581 172.454 211.484C172.35 211.386 172.252 211.301 172.162 211.221C172.134 211.221 172.089 211.199 172.025 211.145C171.961 211.096 171.883 211.039 171.791 210.967C171.699 210.901 171.6 210.829 171.492 210.754C171.384 210.678 171.276 210.616 171.169 210.558C171.223 210.464 171.288 210.398 171.365 210.358C171.442 210.313 171.522 210.286 171.604 210.278H171.767C171.88 210.286 171.998 210.295 172.119 210.295C172.241 210.295 172.36 210.295 172.474 210.295C172.562 210.295 172.648 210.282 172.733 210.26C172.817 210.238 172.909 210.211 173.007 210.18C173.107 210.153 173.214 210.122 173.329 210.1C173.444 210.073 173.573 210.055 173.717 210.046L174.882 209.913C174.985 209.899 175.085 209.895 175.183 209.895C175.281 209.895 175.378 209.895 175.473 209.895C175.626 209.908 175.778 209.935 175.928 209.975C176.078 210.015 176.21 210.068 176.327 210.131C176.443 210.197 176.536 210.269 176.605 210.353C176.675 210.433 176.71 210.527 176.709 210.625C176.707 210.687 176.688 210.74 176.651 210.785C176.615 210.825 176.571 210.865 176.52 210.892C176.469 210.918 176.41 210.941 176.344 210.954C176.277 210.967 176.21 210.972 176.143 210.972C176.082 210.972 176.029 210.967 175.983 210.959C175.937 210.945 175.883 210.941 175.823 210.941C175.721 210.941 175.616 210.945 175.505 210.963C175.395 210.976 175.285 210.99 175.174 211.007C175.067 211.052 174.959 211.083 174.851 211.101C174.744 211.123 174.637 211.137 174.531 211.145C174.425 211.15 174.317 211.159 174.208 211.168C174.099 211.177 173.991 211.194 173.886 211.221C173.902 211.248 173.915 211.283 173.923 211.319C173.932 211.354 173.937 211.39 173.939 211.421C173.936 211.444 173.937 211.461 173.943 211.47C173.936 211.515 173.954 211.55 173.994 211.573C174.034 211.599 174.08 211.626 174.131 211.648C174.181 211.675 174.228 211.702 174.27 211.737C174.313 211.768 174.334 211.813 174.333 211.871L174.326 211.92C174.328 211.951 174.333 211.986 174.342 212.027C174.349 212.066 174.365 212.102 174.387 212.133C174.385 212.196 174.383 212.249 174.379 212.298C174.375 212.351 174.373 212.4 174.373 212.449C174.371 212.512 174.37 212.565 174.371 212.61C174.371 212.658 174.375 212.703 174.382 212.748C174.345 212.961 174.288 213.188 174.212 213.419C174.135 213.651 174.033 213.882 173.907 214.105C174.14 214.327 174.376 214.496 174.618 214.608C174.858 214.723 175.084 214.803 175.294 214.852C175.503 214.901 175.681 214.928 175.83 214.932C175.979 214.932 176.08 214.937 176.134 214.937C176.242 214.937 176.324 214.932 176.38 214.919C176.436 214.91 176.477 214.897 176.506 214.888C176.535 214.875 176.557 214.866 176.572 214.852C176.587 214.843 176.611 214.835 176.645 214.835C176.719 214.835 176.773 214.861 176.807 214.91C176.84 214.959 176.859 215.017 176.864 215.084C176.827 215.151 176.777 215.217 176.714 215.284C176.65 215.351 176.582 215.382 176.507 215.382C176.503 215.418 176.467 215.467 176.4 215.533C176.333 215.6 176.229 215.667 176.088 215.733C175.947 215.796 175.771 215.858 175.561 215.907C175.351 215.956 175.105 215.978 174.82 215.978C174.758 215.943 174.709 215.92 174.673 215.916C174.636 215.907 174.601 215.903 174.568 215.898C174.535 215.894 174.497 215.876 174.453 215.858C174.408 215.836 174.344 215.787 174.259 215.716C174.173 215.747 174.087 215.738 174 215.68C173.913 215.627 173.825 215.556 173.735 215.475C173.645 215.391 173.555 215.315 173.463 215.244C173.372 215.173 173.279 215.133 173.184 215.133C173.09 215.133 172.995 215.177 172.902 215.266C172.808 215.355 172.712 215.449 172.614 215.551C172.515 215.649 172.416 215.738 172.318 215.809C172.22 215.885 172.122 215.907 172.024 215.88C171.804 216.009 171.571 216.112 171.326 216.196C171.081 216.281 170.827 216.343 170.563 216.392C170.299 216.437 170.033 216.468 169.763 216.486C169.494 216.503 169.227 216.512 168.963 216.512C168.531 216.512 168.122 216.459 167.738 216.352C167.353 216.25 167.001 216.107 166.681 215.934C166.36 215.76 166.072 215.56 165.816 215.337C165.56 215.115 165.343 214.888 165.166 214.657C164.988 214.43 164.854 214.203 164.763 213.985C164.673 213.762 164.629 213.566 164.633 213.393C164.704 212.89 164.942 212.378 165.347 211.853C165.438 211.733 165.561 211.581 165.714 211.408C165.867 211.234 166.05 211.056 166.265 210.874C166.481 210.691 166.731 210.514 167.016 210.335C167.301 210.158 167.625 210.006 167.988 209.877ZM171.923 214.794C171.971 214.746 172.007 214.692 172.031 214.643C172.055 214.59 172.078 214.532 172.101 214.47C171.849 214.287 171.577 214.082 171.284 213.856C170.992 213.624 170.714 213.402 170.451 213.184C170.187 212.966 169.961 212.765 169.773 212.592C169.585 212.414 169.469 212.285 169.427 212.2C169.408 212.245 169.388 212.285 169.37 212.32C169.351 212.356 169.338 212.4 169.331 212.449L168.981 212.707C168.935 212.787 168.871 212.868 168.789 212.948C168.708 213.023 168.616 213.108 168.516 213.197C168.369 213.326 168.244 213.473 168.14 213.633C168.036 213.793 167.951 213.953 167.885 214.114C167.818 214.274 167.773 214.43 167.75 214.572C167.726 214.714 167.717 214.839 167.723 214.946C167.74 215.106 167.779 215.213 167.838 215.275C167.897 215.337 167.981 215.391 168.09 215.435L168.523 215.6C168.7 215.645 168.883 215.671 169.074 215.684C169.265 215.698 169.467 215.698 169.678 215.68C169.857 215.667 170.045 215.636 170.243 215.595C170.442 215.556 170.641 215.498 170.84 215.426C171.04 215.355 171.231 215.266 171.415 215.164C171.598 215.062 171.768 214.937 171.923 214.794Z" fill="#F7B500"/>
<path fill-rule="evenodd" clip-rule="evenodd" d="M221.866 201.108C222.017 201.091 222.229 201.119 222.5 201.188C222.773 201.255 223.056 201.352 223.353 201.465C223.647 201.584 223.93 201.72 224.203 201.873C224.475 202.032 224.691 202.191 224.85 202.355C225.009 202.525 225.092 202.69 225.099 202.848C225.107 203.007 224.989 203.149 224.748 203.273C224.294 203.495 223.711 203.92 223 204.543C222.288 205.167 221.513 205.909 220.673 206.771C219.834 207.627 218.956 208.568 218.04 209.588C217.125 210.609 216.228 211.617 215.351 212.621C216.213 212.349 217.056 211.986 217.881 211.527C218.706 211.068 219.512 210.558 220.299 209.985C221.086 209.418 221.847 208.823 222.58 208.199C223.315 207.576 224.015 206.958 224.68 206.351C225.33 205.745 225.981 205.161 226.631 204.6C227.282 204.039 227.927 203.529 228.561 203.069C229.197 202.616 229.829 202.231 230.456 201.919C231.085 201.613 231.717 201.409 232.353 201.312C232.594 201.273 232.855 201.244 233.136 201.227C233.416 201.21 233.684 201.199 233.942 201.199C234.578 201.199 235.129 201.267 235.598 201.409C236.067 201.556 236.34 201.749 236.416 201.998C236.491 202.179 236.42 202.355 236.201 202.514C235.98 202.673 235.591 202.809 235.031 202.922C234.607 203.007 234.172 203.183 233.725 203.444C233.279 203.704 232.822 204.022 232.353 204.407C231.884 204.787 231.399 205.223 230.899 205.705C230.4 206.187 229.893 206.686 229.379 207.207C228.653 207.933 227.861 208.687 227.006 209.469C226.152 210.246 225.229 210.994 224.237 211.714C223.247 212.428 222.191 213.086 221.071 213.675C219.95 214.27 218.763 214.741 217.507 215.087C217.839 215.744 218.188 216.328 218.551 216.838C218.914 217.354 219.266 217.802 219.606 218.193C219.947 218.584 220.265 218.913 220.56 219.185C220.855 219.457 221.102 219.673 221.298 219.831C221.645 220.132 221.88 220.364 222.002 220.54C222.123 220.71 222.04 220.863 221.751 220.999C221.645 221.039 221.442 221.033 221.138 220.982C220.836 220.931 220.48 220.84 220.072 220.693C219.663 220.551 219.232 220.364 218.778 220.12C218.324 219.882 217.9 219.587 217.507 219.242C216.916 218.698 216.394 218.108 215.941 217.467C215.487 216.833 215.108 216.203 214.805 215.585C214.73 215.597 214.658 215.608 214.59 215.614C214.522 215.619 214.45 215.625 214.374 215.625C214.223 215.636 214.06 215.642 213.886 215.642C213.712 215.642 213.557 215.642 213.421 215.642C213.3 215.642 213.19 215.642 213.092 215.642C212.993 215.642 212.891 215.636 212.785 215.625C211.983 216.577 211.298 217.394 210.731 218.08C210.163 218.765 209.789 219.225 209.607 219.463C209.486 219.576 209.293 219.639 209.028 219.656C208.763 219.678 208.494 219.644 208.222 219.553C207.95 219.468 207.716 219.338 207.519 219.157C207.322 218.975 207.239 218.743 207.269 218.459C207.284 218.374 207.504 218.029 207.927 217.422C208.351 216.816 208.911 216.05 209.607 215.121C208.73 214.854 207.984 214.503 207.371 214.078C206.758 213.647 206.243 213.193 205.827 212.712C205.411 212.23 205.086 211.748 204.851 211.255C204.617 210.767 204.439 210.331 204.318 209.951C204.212 209.628 204.14 209.361 204.103 209.152C204.064 208.942 204.046 208.806 204.046 208.744C204.031 208.574 204.091 208.392 204.227 208.199C204.363 208.007 204.53 207.888 204.727 207.848C204.923 207.803 205.139 207.871 205.373 208.052C205.608 208.228 205.823 208.602 206.021 209.169C206.066 209.344 206.175 209.622 206.349 210.008C206.524 210.387 206.804 210.79 207.19 211.209C207.576 211.629 208.09 212.02 208.733 212.371C209.376 212.723 210.197 212.95 211.196 213.046C211.847 212.207 212.536 211.328 213.262 210.416C213.988 209.498 214.714 208.602 215.441 207.723C216.167 206.845 216.875 206.011 217.563 205.212C218.252 204.413 218.884 203.716 219.459 203.115C220.034 202.52 220.529 202.038 220.946 201.669C221.362 201.307 221.668 201.119 221.866 201.108Z" fill="#F7B500"/>
</svg>
