<svg width="640" height="800" viewBox="0 0 640 800" fill="none" xmlns="http://www.w3.org/2000/svg">
<path d="M372 0L491.601 205.966L457.436 205.965V205.966H491.601L583.529 365.12C596.187 387.031 596.187 414.011 583.529 435.922L504.562 572.678L373.33 800H0V0H372ZM640 800H639.955V0H640V800Z" fill="#1D3489"/>
<path d="M124.699 731.302L102.822 694.202C101.654 692.223 99.4955 691 97.1678 691H53.4148C51.0791 691 48.9205 692.223 47.7523 694.202L25.8758 731.302C24.7081 733.282 24.7081 735.719 25.8758 737.698L37.4665 757.352L47.7523 774.798C48.9205 776.778 51.0791 778 53.4148 778H97.1678C99.4955 778 101.654 776.778 102.822 774.798L113.108 757.352L124.699 737.698C125.867 735.719 125.867 733.282 124.699 731.302Z" fill="white"/>
<path d="M112.521 773.659V774.669H113.165C113.448 774.669 113.665 774.621 113.802 774.542C113.947 774.464 114.019 774.322 114.019 774.132C114.019 773.967 113.955 773.848 113.826 773.769C113.705 773.699 113.544 773.659 113.351 773.659H112.521ZM111.949 776.719V773.154H113.335C114.164 773.154 114.583 773.485 114.583 774.156C114.583 774.329 114.559 774.472 114.511 774.59C114.462 774.708 114.398 774.803 114.309 774.882C114.221 774.96 114.124 775.023 114.011 775.071C113.899 775.11 113.778 775.142 113.649 775.158L114.696 776.719H114.003L112.964 775.173H112.521V776.719H111.949ZM115.638 774.937C115.638 774.59 115.574 774.266 115.437 773.967C115.308 773.659 115.131 773.391 114.905 773.17C114.68 772.941 114.414 772.768 114.108 772.634C113.802 772.499 113.48 772.429 113.133 772.429C112.787 772.429 112.465 772.499 112.159 772.634C111.852 772.768 111.587 772.941 111.361 773.17C111.135 773.391 110.958 773.659 110.83 773.967C110.693 774.266 110.628 774.59 110.628 774.937C110.628 775.284 110.693 775.607 110.83 775.907C110.958 776.215 111.135 776.475 111.361 776.704C111.587 776.932 111.852 777.106 112.159 777.24C112.465 777.374 112.787 777.437 113.133 777.437C113.48 777.437 113.802 777.374 114.108 777.24C114.414 777.106 114.68 776.932 114.905 776.704C115.131 776.475 115.308 776.215 115.437 775.907C115.574 775.607 115.638 775.284 115.638 774.937ZM110.008 774.937C110.008 774.511 110.089 774.117 110.258 773.746C110.419 773.375 110.644 773.044 110.926 772.768C111.208 772.492 111.538 772.279 111.917 772.113C112.295 771.955 112.706 771.876 113.133 771.876C113.568 771.876 113.971 771.955 114.35 772.113C114.736 772.279 115.066 772.492 115.349 772.768C115.63 773.044 115.848 773.375 116.017 773.746C116.178 774.117 116.259 774.511 116.259 774.937C116.259 775.363 116.178 775.757 116.017 776.128C115.848 776.498 115.63 776.822 115.349 777.098C115.066 777.374 114.736 777.595 114.35 777.761C113.971 777.918 113.568 777.997 113.133 777.997C112.706 777.997 112.295 777.918 111.917 777.761C111.538 777.595 111.208 777.374 110.926 777.098C110.644 776.822 110.419 776.498 110.258 776.128C110.089 775.757 110.008 775.363 110.008 774.937Z" fill="white"/>
<path d="M124.699 731.302L116.217 716.924H112.496V751.958H116.29L124.699 737.698C125.867 735.719 125.867 733.282 124.699 731.302Z" fill="#FBC421"/>
<path d="M34.3557 716.923L25.8744 731.3C24.7144 733.28 24.7144 735.717 25.8744 737.697L34.2834 751.956H37.8999V716.923H34.3557Z" fill="#FBC421"/>
<path d="M102.822 694.2C101.654 692.22 99.4952 691.006 97.1675 691.006H53.4145C51.0785 691.006 48.9199 692.22 47.752 694.2L37.5386 711.52H113.035L102.822 694.2Z" fill="#FBC421"/>
<path d="M113.107 757.356H37.4658L47.7516 774.802C48.9195 776.781 51.0781 777.996 53.4141 777.996H97.1671C99.4948 777.996 101.653 776.781 102.821 774.802L113.107 757.356Z" fill="#FBC421"/>
<path d="M43.4155 716.836H48.6028L53.5163 737.255V716.836H58.3167V752.043H53.1294L48.4014 732.271V752.043H43.4155V716.836Z" fill="#2B2F84"/>
<path d="M70.1884 739.555L68.6337 724.909L67.0874 739.555H70.1884ZM75.0455 739.555L76.7369 752.048H71.4933L70.72 744.579H66.5638L65.7745 752.048H60.5469L62.2383 739.61L65.0979 716.833H72.2103L75.0455 739.555Z" fill="#2B2F84"/>
<path d="M102.805 739.555L101.25 724.909L99.7036 739.555H102.805ZM107.661 739.555L109.353 752.048H104.11L103.336 744.579H99.18L98.3907 752.048H93.1631L94.8545 739.61L97.7141 716.833H104.826L107.661 739.555Z" fill="#2B2F84"/>
<path d="M84.1531 721.842V734.548H84.749C85.466 734.548 85.9652 734.501 86.231 734.406C87.1734 734.035 87.9144 733.286 87.9144 732.166V724.248C87.9144 722.647 86.8916 721.842 85.3853 721.842H84.1531ZM78.9658 716.834L85.9168 716.85C90.5242 716.85 92.8279 719.318 92.8279 724.248V732.166C92.8279 735.802 91.1765 738.144 87.866 739.201C87.0687 739.454 86.239 739.58 84.725 739.58H84.1531V752.049H78.9658V716.834Z" fill="#2B2F84"/>
<path d="M144.419 761.653L147.519 744.106L150.674 761.653H144.419ZM140.821 737.131L132.352 776.654H141.817L143.09 769.458H152.113L153.386 776.654H162.852L154.161 737.131H140.821Z" fill="white"/>
<path d="M227.736 758.941C227.57 767.244 226.628 769.625 223.418 769.625C220.263 769.625 219.322 767.244 219.156 758.941L219.101 756.893L219.156 754.845C219.377 746.542 220.318 744.162 223.418 744.162C226.573 744.162 227.514 746.542 227.736 754.845L227.791 756.893L227.736 758.941ZM179.072 737.132V763.425C179.072 768.407 177.798 769.625 175.474 769.625C172.983 769.625 171.875 767.743 171.875 763.425V737.132H162.41V763.425C162.41 774.44 166.285 777.429 175.474 777.429C185.271 777.429 188.593 773.61 188.593 763.425V744.937H194.634V776.654H204.1V744.937H210.816C210.151 747.505 209.792 750.759 209.635 754.845L209.579 756.893L209.635 758.941C210.078 773.278 213.233 777.429 223.418 777.429C233.769 777.429 236.814 773.333 237.201 758.941L237.256 756.893L237.201 754.845C236.869 740.508 233.714 736.357 223.418 736.357C217.473 736.357 213.964 737.757 211.96 741.782V737.132H179.072Z" fill="white"/>
<path d="M259.897 754.291H257.129V744.936H259.897C262.443 744.936 264.104 746.099 264.104 749.641C264.104 752.464 263.107 754.291 259.897 754.291ZM273.569 749.641C273.569 742.113 270.303 737.131 259.897 737.131H247.664V776.654H257.129V762.096H259.897C268.089 762.096 273.569 759.162 273.569 749.641Z" fill="#FBC421"/>
<path d="M313.21 752.963H309.501V744.937H313.21C315.756 744.937 317.362 745.988 317.362 749.144C317.362 751.468 316.421 752.963 313.21 752.963ZM282.156 761.654L285.256 744.106L288.411 761.654H282.156ZM309.501 776.654V760.768H311.882L317.196 776.654H327.103L320.351 759.716C324.392 758.277 326.829 755.067 326.829 749.144C326.829 747.628 326.68 746.219 326.355 744.937H332.925V776.654H342.388V744.937H348.864C348.616 745.908 348.484 746.945 348.484 748.036C348.484 754.125 351.363 757.613 359.112 760.934C363.376 762.761 365.422 764.587 365.422 766.691C365.422 768.296 364.26 769.403 362.157 769.403C359.722 769.403 357.287 767.244 355.072 762.927L347.766 767.078C351.031 774.385 355.295 777.429 361.991 777.429C369.964 777.429 375 773.223 375 766.801C375 759.163 371.403 756.007 364.704 753.074C359.61 750.86 357.785 749.088 357.785 747.317C357.785 745.767 359.058 744.66 360.941 744.66C363.211 744.66 365.588 746.653 367.529 750.583L374.445 746.653C372.01 740.01 368.027 736.412 361.327 736.412C356.593 736.412 352.793 738.222 350.588 741.246V737.132H324.78V741.474C322.791 738.737 319.181 737.132 313.21 737.132H300.036V774.141L291.898 737.132H278.558L270.088 776.654H279.554L280.827 769.459H289.85L291.123 776.654H309.501Z" fill="#FBC421"/>
<path fill-rule="evenodd" clip-rule="evenodd" d="M136.64 726.583L141.406 725.767C141.406 725.767 141.338 725.926 141.244 726.039C141.188 726.107 140.374 726.391 139.881 726.527C139.486 726.634 139.256 726.77 139.296 727.053C139.307 727.133 139.339 727.206 139.409 727.263C139.443 727.286 139.461 727.286 139.585 727.263C141.847 726.827 144.113 726.374 146.376 725.988C147.542 725.796 155.537 724.77 157.29 724.594C160.304 724.288 165.359 723.858 167.927 723.682C169.739 723.563 177.341 723.246 178.914 723.229C185.769 723.149 196.157 723.557 203.055 724.039C207.134 724.328 218.707 725.308 223.647 726.102C227.231 726.679 233.622 727.716 234.107 727.745C234.767 727.784 235.177 727.739 235.211 727.144C235.217 727.025 235.191 726.935 235.098 726.736C235.018 726.566 234.888 726.317 234.888 726.317C234.888 726.317 236.073 726.238 236.608 726.102C236.971 726.011 237.091 725.711 236.85 725.371C236.789 725.286 236.711 725.218 236.608 725.144C236.3 724.94 235.906 724.793 235.957 724.611C236.037 724.339 236.619 724.498 236.977 724.464C237.245 724.436 237.466 724.311 237.306 724.107C237.155 723.909 236.4 723.71 236.185 723.654C232.323 722.588 222.345 721.308 219.945 721.002C216.567 720.577 212.311 720.095 209.47 719.818C207.618 719.642 194.542 718.707 192.158 718.582C184.191 718.175 169.663 717.823 160.051 718.339C155.353 718.594 143.636 719.704 140.855 720.112C138.766 720.413 136.701 720.792 134.627 721.144C134.503 721.166 134.482 721.172 134.425 721.2C134.216 721.297 134.17 721.534 134.278 721.637C134.434 721.789 135.048 721.88 135.236 722.044C135.357 722.152 135.308 722.254 135.171 722.333C134.927 722.481 133.348 722.719 133.125 722.855C132.936 722.974 132.856 723.268 133.125 723.421C133.479 723.625 134.672 723.965 134.672 723.965C134.672 723.965 134.569 724.084 134.456 724.186C134.3 724.328 132.981 724.64 132.589 724.855C132.38 724.968 132.203 725.461 132.54 725.631C132.608 725.671 132.714 725.705 132.806 725.728C132.929 725.762 132.956 725.762 133.08 725.739C142.378 724.011 142.979 723.75 150.079 722.906C152.135 722.662 158.591 722.039 159.905 721.965C160.547 721.926 170.381 721.353 172.894 721.603C173.291 721.648 173.725 721.699 173.725 721.699C173.725 721.699 166.839 721.931 161.935 722.22C160.603 722.299 152.564 723.064 151.005 723.263C145.608 723.937 145.312 724.067 138.646 725.274C138.085 725.376 136.397 725.83 136.275 725.909C136.054 726.056 135.965 726.345 136.307 726.544C136.347 726.566 136.39 726.583 136.435 726.595C136.495 726.606 136.516 726.606 136.64 726.583Z" fill="#D30026"/>
<path d="M136.64 726.583L141.406 725.767C141.406 725.767 141.338 725.926 141.244 726.039C141.188 726.107 140.374 726.391 139.881 726.527C139.486 726.634 139.256 726.77 139.296 727.053C139.307 727.133 139.339 727.206 139.409 727.263C139.443 727.286 139.461 727.286 139.585 727.263C141.847 726.827 144.113 726.374 146.376 725.988C147.542 725.796 155.537 724.77 157.29 724.594C160.304 724.288 165.359 723.858 167.927 723.682C169.739 723.563 177.341 723.246 178.914 723.229C185.769 723.149 196.157 723.557 203.055 724.039C207.134 724.328 218.707 725.308 223.647 726.102C227.231 726.679 233.622 727.716 234.107 727.745C234.767 727.784 235.177 727.739 235.211 727.144C235.217 727.025 235.191 726.935 235.098 726.736C235.018 726.566 234.888 726.317 234.888 726.317C234.888 726.317 236.073 726.238 236.608 726.102C236.971 726.011 237.091 725.711 236.85 725.371C236.789 725.286 236.711 725.218 236.608 725.144C236.3 724.94 235.906 724.793 235.957 724.611C236.037 724.339 236.619 724.498 236.977 724.464C237.245 724.436 237.466 724.311 237.306 724.107C237.155 723.909 236.4 723.71 236.185 723.654C232.323 722.588 222.345 721.308 219.945 721.002C216.567 720.577 212.311 720.095 209.47 719.818C207.618 719.642 194.542 718.707 192.158 718.582C184.191 718.175 169.663 717.823 160.051 718.339C155.353 718.594 143.636 719.704 140.855 720.112C138.766 720.413 136.701 720.792 134.627 721.144C134.503 721.166 134.482 721.172 134.425 721.2C134.216 721.297 134.17 721.534 134.278 721.637C134.434 721.789 135.048 721.88 135.236 722.044C135.357 722.152 135.308 722.254 135.171 722.333C134.927 722.481 133.348 722.719 133.125 722.855C132.936 722.974 132.856 723.268 133.125 723.421C133.479 723.625 134.672 723.965 134.672 723.965C134.672 723.965 134.569 724.084 134.456 724.186C134.3 724.328 132.981 724.64 132.589 724.855C132.38 724.968 132.203 725.461 132.54 725.631C132.608 725.671 132.714 725.705 132.806 725.728C132.929 725.762 132.956 725.762 133.08 725.739C142.378 724.011 142.979 723.75 150.079 722.906C152.135 722.662 158.591 722.039 159.905 721.965C160.547 721.926 170.381 721.353 172.894 721.603C173.291 721.648 173.725 721.699 173.725 721.699C173.725 721.699 166.839 721.931 161.935 722.22C160.603 722.299 152.564 723.064 151.005 723.263C145.608 723.937 145.312 724.067 138.646 725.274C138.085 725.376 136.397 725.83 136.275 725.909C136.054 726.056 135.965 726.345 136.307 726.544C136.347 726.566 136.39 726.583 136.435 726.595C136.495 726.606 136.516 726.606 136.64 726.583Z" stroke="#D30026" stroke-width="0.133333"/>
<path fill-rule="evenodd" clip-rule="evenodd" d="M153.404 709.103C152.799 709.522 152.152 709.953 151.464 710.383C150.775 710.814 150.103 711.211 149.444 711.568C148.786 711.93 148.174 712.219 147.606 712.452C147.039 712.678 146.574 712.797 146.211 712.809C146.045 712.809 145.806 712.792 145.496 712.758C145.186 712.718 144.842 712.65 144.464 712.554C144.086 712.452 143.696 712.321 143.295 712.151C142.894 711.987 142.516 711.772 142.16 711.511C141.805 711.256 141.499 710.944 141.242 710.587C140.985 710.23 140.811 709.811 140.72 709.324C140.569 708.536 140.621 707.726 140.879 706.887C141.136 706.054 141.536 705.227 142.081 704.405C142.625 703.584 143.291 702.779 144.078 701.997C144.864 701.21 145.719 700.467 146.642 699.771C147.565 699.073 148.529 698.428 149.535 697.833C150.541 697.243 151.54 696.733 152.53 696.314C153.521 695.895 154.478 695.566 155.401 695.322C156.324 695.084 157.155 694.96 157.897 694.96C158.82 694.96 159.602 695.084 160.245 695.334C160.888 695.577 161.406 695.866 161.8 696.184C162.193 696.507 162.48 696.824 162.662 697.13C162.843 697.442 162.934 697.663 162.934 697.799C162.889 698.394 162.745 698.926 162.503 699.408C162.261 699.889 161.966 700.32 161.618 700.7C161.27 701.074 160.9 701.408 160.506 701.697C160.113 701.992 159.75 702.247 159.417 702.468C159.296 702.553 159.183 702.626 159.076 702.689C158.971 702.751 158.88 702.813 158.804 702.876C158.456 703.125 158.12 703.21 157.795 703.136C157.469 703.063 157.182 702.921 156.932 702.717C156.683 702.513 156.49 702.292 156.354 702.043C156.218 701.793 156.164 701.629 156.195 701.544C156.225 701.482 156.278 701.419 156.354 701.368C156.43 701.312 156.512 701.266 156.603 701.227C156.754 701.176 156.936 701.102 157.147 701.006C157.359 700.904 157.605 700.728 157.885 700.467C158.165 700.207 158.483 699.838 158.838 699.357C159.194 698.875 159.591 698.212 160.029 697.374L160.075 697.391L160.143 697.17C160.113 697.215 160.022 697.255 159.871 697.277C159.613 697.317 159.198 697.43 158.623 697.623C158.048 697.816 157.375 698.071 156.603 698.394C155.832 698.711 154.992 699.096 154.085 699.538C153.177 699.986 152.261 700.49 151.339 701.062C150.416 701.629 149.52 702.247 148.65 702.921C147.78 703.595 147.005 704.321 146.324 705.091C145.643 705.862 145.08 706.683 144.634 707.545C144.188 708.411 143.926 709.318 143.851 710.27C143.836 710.395 143.874 710.536 143.964 710.701C144.055 710.859 144.154 710.944 144.26 710.956C144.864 710.91 145.549 710.752 146.313 710.485C147.077 710.219 147.848 709.902 148.627 709.528C149.406 709.159 150.167 708.768 150.908 708.355C151.649 707.941 152.307 707.556 152.882 707.193L151.566 707.511C151.354 707.562 151.169 707.607 151.01 707.647C150.851 707.692 150.711 707.726 150.59 707.749C150.393 707.788 150.159 707.732 149.887 707.584C149.615 707.437 149.376 707.25 149.172 707.029C148.968 706.808 148.828 706.57 148.752 706.326C148.677 706.077 148.737 705.867 148.934 705.692H148.911C149.214 705.448 149.693 705.216 150.352 705C151.01 704.779 151.759 704.598 152.599 704.445C153.438 704.286 154.33 704.162 155.276 704.071C156.221 703.98 157.14 703.935 158.033 703.935C159.016 703.935 159.92 703.998 160.744 704.128C161.569 704.258 162.223 704.468 162.707 704.768C163.1 705.012 163.308 705.238 163.331 705.442C163.354 705.646 163.282 705.822 163.116 705.964C162.949 706.105 162.741 706.207 162.491 706.27C162.242 706.332 162.041 706.349 161.89 706.326C161.331 706.224 160.71 706.173 160.029 706.173C159.909 706.173 159.791 706.179 159.678 706.185C159.565 706.19 159.447 706.196 159.326 706.196C158.615 707.108 158.007 707.964 157.499 708.763C156.993 709.556 156.566 710.281 156.218 710.927C155.87 711.579 155.59 712.151 155.378 712.644C155.166 713.137 154.999 713.551 154.879 713.885C154.758 714.231 154.618 714.503 154.459 714.701C154.3 714.899 154.115 714.996 153.903 714.996C153.767 714.973 153.612 714.922 153.438 714.843C153.264 714.758 153.094 714.65 152.927 714.508C152.761 714.367 152.606 714.197 152.462 713.998C152.318 713.8 152.201 713.579 152.111 713.33C152.035 713.098 151.993 712.837 151.986 712.554C151.978 712.265 152.012 711.964 152.087 711.641L153.404 709.103Z" fill="#F7B500"/>
<path fill-rule="evenodd" clip-rule="evenodd" d="M195.966 695.109C196.118 695.092 196.329 695.121 196.602 695.189C196.874 695.257 197.158 695.353 197.453 695.466C197.748 695.585 198.032 695.721 198.304 695.874C198.576 696.033 198.792 696.192 198.95 696.356C199.11 696.526 199.193 696.69 199.2 696.849C199.208 697.008 199.091 697.149 198.848 697.274C198.395 697.495 197.813 697.92 197.101 698.544C196.39 699.167 195.615 699.91 194.775 700.771C193.935 701.627 193.058 702.568 192.143 703.588C191.228 704.608 190.331 705.616 189.454 706.62C190.316 706.348 191.16 705.985 191.984 705.526C192.808 705.067 193.614 704.557 194.401 703.984C195.188 703.418 195.948 702.823 196.681 702.199C197.415 701.576 198.114 700.958 198.78 700.352C199.431 699.745 200.081 699.161 200.732 698.6C201.382 698.039 202.026 697.529 202.661 697.07C203.296 696.617 203.928 696.231 204.556 695.92C205.184 695.614 205.815 695.41 206.451 695.313C206.693 695.274 206.954 695.245 207.233 695.228C207.513 695.211 207.782 695.2 208.039 695.2C208.674 695.2 209.227 695.268 209.695 695.41C210.165 695.557 210.437 695.75 210.513 695.999C210.588 696.18 210.516 696.356 210.297 696.515C210.077 696.673 209.688 696.81 209.128 696.923C208.705 697.008 208.27 697.184 207.824 697.444C207.377 697.705 206.919 698.022 206.451 698.408C205.981 698.787 205.498 699.224 204.998 699.706C204.499 700.187 203.992 700.686 203.478 701.207C202.751 701.933 201.961 702.686 201.106 703.469C200.252 704.245 199.329 704.993 198.338 705.713C197.347 706.427 196.292 707.084 195.172 707.674C194.053 708.269 192.866 708.739 191.61 709.085C191.942 709.742 192.29 710.326 192.654 710.836C193.017 711.352 193.368 711.8 193.709 712.191C194.049 712.582 194.367 712.91 194.662 713.182C194.956 713.455 195.202 713.67 195.399 713.829C195.747 714.129 195.982 714.361 196.103 714.537C196.224 714.707 196.141 714.86 195.853 714.996C195.747 715.036 195.543 715.03 195.24 714.979C194.938 714.928 194.583 714.837 194.174 714.69C193.765 714.548 193.334 714.361 192.88 714.118C192.427 713.88 192.003 713.585 191.61 713.239C191.02 712.695 190.498 712.106 190.044 711.465C189.59 710.83 189.212 710.201 188.909 709.584C188.834 709.595 188.762 709.606 188.694 709.612C188.626 709.618 188.554 709.623 188.478 709.623C188.327 709.635 188.164 709.64 187.99 709.64C187.817 709.64 187.661 709.64 187.525 709.64C187.404 709.64 187.295 709.64 187.196 709.64C187.097 709.64 186.995 709.635 186.889 709.623C186.088 710.576 185.403 711.391 184.836 712.077C184.269 712.763 183.894 713.222 183.713 713.46C183.591 713.573 183.399 713.636 183.134 713.653C182.87 713.676 182.601 713.642 182.328 713.551C182.056 713.466 181.822 713.335 181.625 713.154C181.429 712.973 181.345 712.74 181.375 712.457C181.391 712.372 181.61 712.026 182.034 711.42C182.457 710.814 183.017 710.048 183.713 709.119C182.835 708.853 182.09 708.501 181.477 708.076C180.865 707.646 180.35 707.192 179.934 706.71C179.518 706.229 179.193 705.747 178.958 705.254C178.724 704.766 178.546 704.33 178.425 703.95C178.319 703.627 178.247 703.361 178.21 703.151C178.172 702.942 178.153 702.806 178.153 702.743C178.138 702.573 178.199 702.392 178.335 702.199C178.471 702.006 178.637 701.887 178.834 701.848C179.03 701.802 179.246 701.87 179.481 702.052C179.715 702.227 179.931 702.602 180.128 703.168C180.173 703.344 180.282 703.622 180.456 704.007C180.63 704.387 180.91 704.789 181.296 705.209C181.682 705.628 182.196 706.019 182.839 706.37C183.482 706.722 184.303 706.948 185.301 707.045C185.952 706.206 186.64 705.327 187.366 704.415C188.092 703.497 188.818 702.602 189.545 701.723C190.271 700.845 190.978 700.011 191.666 699.213C192.355 698.413 192.986 697.716 193.561 697.115C194.136 696.52 194.632 696.039 195.048 695.67C195.464 695.308 195.77 695.121 195.966 695.109Z" fill="#F7B500"/>
<path fill-rule="evenodd" clip-rule="evenodd" d="M167.988 703.876C167.854 703.578 167.761 703.253 167.71 702.897C167.659 702.541 167.625 702.154 167.609 701.74C167.631 701.673 167.651 701.607 167.667 701.544C167.682 701.482 167.689 701.406 167.687 701.326C167.689 701.166 167.755 700.997 167.884 700.823C168.014 700.65 168.183 700.476 168.393 700.312C168.603 700.142 168.848 699.982 169.13 699.831C169.412 699.675 169.71 699.542 170.024 699.426C170.337 699.31 170.659 699.221 170.99 699.154C171.321 699.088 171.645 699.052 171.963 699.052C172.375 699.052 172.712 699.114 172.972 699.235C173.232 699.359 173.436 699.506 173.584 699.68C173.732 699.853 173.832 700.036 173.883 700.223C173.935 700.409 173.958 700.574 173.951 700.712C173.938 701.001 173.88 701.233 173.777 701.415C173.673 701.598 173.539 701.745 173.375 701.851C173.212 701.958 173.034 702.034 172.842 702.074C172.65 702.118 172.463 702.136 172.28 702.136C172.125 702.136 171.992 702.109 171.881 702.056C171.771 701.998 171.706 701.94 171.688 701.873C171.751 701.767 171.842 701.656 171.964 701.535C172.086 701.42 172.211 701.295 172.34 701.17C172.469 701.046 172.591 700.926 172.706 700.806C172.82 700.69 172.902 700.574 172.952 700.463C172.9 700.445 172.838 700.427 172.767 700.409C172.695 700.392 172.608 700.378 172.507 700.378C172.054 700.378 171.669 700.409 171.353 700.467C171.038 700.525 170.777 700.645 170.573 700.823C170.368 701.001 170.218 701.26 170.12 701.589C170.023 701.923 169.966 702.363 169.949 702.915C169.948 703.017 169.956 703.097 169.971 703.155C169.986 703.218 169.992 703.28 169.99 703.347C169.987 703.364 169.987 703.378 169.989 703.391C169.991 703.4 169.991 703.413 169.988 703.431C169.999 703.502 170.025 703.565 170.068 703.622C170.111 703.676 170.159 703.734 170.211 703.796C170.263 703.858 170.315 703.925 170.364 704.001C170.415 704.081 170.456 704.17 170.488 704.277L170.967 705.207C171.047 705.402 171.161 705.58 171.308 705.736C171.455 705.892 171.607 706.026 171.763 706.146C171.918 706.266 172.068 706.368 172.211 706.457C172.354 706.546 172.462 706.626 172.533 706.697L172.835 706.996C172.881 706.911 172.934 706.827 172.993 706.738C173.053 706.649 173.107 706.56 173.153 706.466C173.123 706.35 173.071 706.235 172.999 706.119C172.927 706.008 172.845 705.896 172.751 705.79C172.658 705.683 172.559 705.58 172.454 705.483C172.35 705.385 172.252 705.3 172.162 705.22C172.134 705.22 172.089 705.198 172.025 705.144C171.961 705.095 171.883 705.038 171.791 704.966C171.699 704.9 171.6 704.828 171.492 704.753C171.384 704.677 171.276 704.615 171.169 704.557C171.223 704.464 171.288 704.397 171.365 704.357C171.442 704.312 171.522 704.285 171.604 704.277H171.767C171.88 704.285 171.998 704.294 172.119 704.294C172.241 704.294 172.36 704.294 172.474 704.294C172.562 704.294 172.648 704.281 172.733 704.259C172.817 704.237 172.909 704.21 173.007 704.179C173.107 704.152 173.214 704.121 173.329 704.099C173.444 704.072 173.573 704.054 173.717 704.045L174.882 703.912C174.985 703.898 175.085 703.894 175.183 703.894C175.281 703.894 175.378 703.894 175.473 703.894C175.626 703.907 175.778 703.934 175.928 703.974C176.078 704.014 176.21 704.068 176.327 704.13C176.443 704.196 176.536 704.268 176.605 704.352C176.675 704.432 176.71 704.526 176.709 704.624C176.707 704.686 176.688 704.739 176.651 704.784C176.615 704.824 176.571 704.864 176.52 704.891C176.469 704.917 176.41 704.94 176.344 704.953C176.277 704.966 176.21 704.971 176.143 704.971C176.082 704.971 176.029 704.966 175.983 704.958C175.937 704.944 175.883 704.94 175.823 704.94C175.721 704.94 175.616 704.944 175.505 704.962C175.395 704.975 175.285 704.989 175.174 705.006C175.067 705.051 174.959 705.082 174.851 705.1C174.744 705.122 174.637 705.136 174.531 705.144C174.425 705.149 174.317 705.158 174.208 705.167C174.099 705.176 173.991 705.193 173.886 705.22C173.902 705.247 173.915 705.282 173.923 705.318C173.932 705.354 173.937 705.389 173.939 705.42C173.936 705.443 173.937 705.46 173.943 705.469C173.936 705.514 173.954 705.549 173.994 705.572C174.034 705.598 174.08 705.625 174.131 705.647C174.181 705.674 174.228 705.701 174.27 705.736C174.313 705.767 174.334 705.812 174.333 705.87L174.326 705.919C174.328 705.95 174.333 705.985 174.342 706.026C174.349 706.066 174.365 706.101 174.387 706.132C174.385 706.195 174.383 706.248 174.379 706.297C174.375 706.35 174.373 706.399 174.373 706.448C174.371 706.511 174.37 706.564 174.371 706.609C174.371 706.657 174.375 706.702 174.382 706.747C174.345 706.96 174.288 707.187 174.212 707.418C174.135 707.65 174.033 707.881 173.907 708.104C174.14 708.326 174.376 708.495 174.618 708.607C174.858 708.722 175.084 708.802 175.294 708.851C175.503 708.9 175.681 708.927 175.83 708.931C175.979 708.931 176.08 708.936 176.134 708.936C176.242 708.936 176.324 708.931 176.38 708.918C176.436 708.909 176.477 708.896 176.506 708.887C176.535 708.874 176.557 708.865 176.572 708.851C176.587 708.842 176.611 708.834 176.645 708.834C176.719 708.834 176.773 708.86 176.807 708.909C176.84 708.958 176.859 709.016 176.864 709.083C176.827 709.15 176.777 709.216 176.714 709.283C176.65 709.35 176.582 709.381 176.507 709.381C176.503 709.417 176.467 709.466 176.4 709.532C176.333 709.599 176.229 709.666 176.088 709.732C175.947 709.795 175.771 709.857 175.561 709.906C175.351 709.955 175.105 709.977 174.82 709.977C174.758 709.942 174.709 709.919 174.673 709.915C174.636 709.906 174.601 709.902 174.568 709.897C174.535 709.893 174.497 709.875 174.453 709.857C174.408 709.835 174.344 709.786 174.259 709.715C174.173 709.746 174.087 709.737 174 709.679C173.913 709.626 173.825 709.555 173.735 709.474C173.645 709.39 173.555 709.314 173.463 709.243C173.372 709.172 173.279 709.132 173.184 709.132C173.09 709.132 172.995 709.176 172.902 709.265C172.808 709.354 172.712 709.448 172.614 709.55C172.515 709.648 172.416 709.737 172.318 709.808C172.22 709.884 172.122 709.906 172.024 709.879C171.804 710.008 171.571 710.111 171.326 710.195C171.081 710.28 170.827 710.342 170.563 710.391C170.299 710.436 170.033 710.467 169.763 710.485C169.494 710.502 169.227 710.511 168.963 710.511C168.531 710.511 168.122 710.458 167.738 710.351C167.353 710.249 167.001 710.106 166.681 709.933C166.36 709.759 166.072 709.559 165.816 709.336C165.56 709.114 165.343 708.887 165.166 708.656C164.988 708.429 164.854 708.202 164.763 707.984C164.673 707.761 164.629 707.565 164.633 707.392C164.704 706.889 164.942 706.377 165.347 705.852C165.438 705.732 165.561 705.58 165.714 705.407C165.867 705.233 166.05 705.055 166.265 704.873C166.481 704.69 166.731 704.513 167.016 704.334C167.301 704.157 167.625 704.005 167.988 703.876ZM171.923 708.793C171.971 708.745 172.007 708.691 172.031 708.642C172.055 708.589 172.078 708.531 172.101 708.469C171.849 708.286 171.577 708.082 171.284 707.855C170.992 707.623 170.714 707.401 170.451 707.183C170.187 706.965 169.961 706.764 169.773 706.591C169.585 706.413 169.469 706.284 169.427 706.199C169.408 706.244 169.388 706.284 169.37 706.319C169.351 706.355 169.338 706.399 169.331 706.448L168.981 706.706C168.935 706.786 168.871 706.867 168.789 706.947C168.708 707.022 168.616 707.107 168.516 707.196C168.369 707.325 168.244 707.472 168.14 707.632C168.036 707.792 167.951 707.952 167.885 708.113C167.818 708.273 167.773 708.429 167.75 708.571C167.726 708.713 167.717 708.838 167.723 708.945C167.74 709.105 167.779 709.212 167.838 709.274C167.897 709.336 167.981 709.39 168.09 709.434L168.523 709.599C168.7 709.644 168.883 709.67 169.074 709.684C169.265 709.697 169.467 709.697 169.678 709.679C169.857 709.666 170.045 709.635 170.243 709.594C170.442 709.555 170.641 709.497 170.84 709.425C171.04 709.354 171.231 709.265 171.415 709.163C171.598 709.061 171.768 708.936 171.923 708.793Z" fill="#F7B500"/>
<path fill-rule="evenodd" clip-rule="evenodd" d="M221.866 695.107C222.017 695.09 222.229 695.118 222.5 695.187C222.773 695.254 223.056 695.351 223.353 695.464C223.647 695.583 223.93 695.719 224.203 695.872C224.475 696.031 224.691 696.19 224.85 696.354C225.009 696.524 225.092 696.689 225.099 696.847C225.107 697.006 224.989 697.148 224.748 697.273C224.294 697.494 223.711 697.919 223 698.542C222.288 699.166 221.513 699.908 220.673 700.77C219.834 701.626 218.956 702.567 218.04 703.587C217.125 704.608 216.228 705.617 215.351 706.62C216.213 706.348 217.056 705.985 217.881 705.526C218.706 705.067 219.512 704.557 220.299 703.984C221.086 703.417 221.847 702.822 222.58 702.198C223.315 701.575 224.015 700.957 224.68 700.35C225.33 699.744 225.981 699.16 226.631 698.599C227.282 698.038 227.927 697.528 228.561 697.068C229.197 696.615 229.829 696.23 230.456 695.918C231.085 695.612 231.717 695.408 232.353 695.311C232.594 695.272 232.855 695.243 233.136 695.226C233.416 695.209 233.684 695.198 233.942 695.198C234.578 695.198 235.129 695.266 235.598 695.408C236.067 695.555 236.34 695.748 236.416 695.997C236.491 696.178 236.42 696.354 236.201 696.513C235.98 696.672 235.591 696.808 235.031 696.921C234.607 697.006 234.172 697.182 233.725 697.443C233.279 697.703 232.822 698.021 232.353 698.406C231.884 698.786 231.399 699.222 230.899 699.704C230.4 700.186 229.893 700.685 229.379 701.207C228.653 701.932 227.861 702.686 227.006 703.468C226.152 704.245 225.229 704.993 224.237 705.713C223.247 706.427 222.191 707.085 221.071 707.674C219.95 708.269 218.763 708.74 217.507 709.086C217.839 709.743 218.188 710.327 218.551 710.837C218.914 711.353 219.266 711.801 219.606 712.192C219.947 712.583 220.265 712.912 220.56 713.184C220.855 713.456 221.102 713.672 221.298 713.83C221.645 714.131 221.88 714.363 222.002 714.539C222.123 714.709 222.04 714.862 221.751 714.998C221.645 715.038 221.442 715.032 221.138 714.981C220.836 714.93 220.48 714.839 220.072 714.692C219.663 714.55 219.232 714.363 218.778 714.119C218.324 713.881 217.9 713.586 217.507 713.241C216.916 712.697 216.394 712.107 215.941 711.466C215.487 710.832 215.108 710.202 214.805 709.584C214.73 709.596 214.658 709.607 214.59 709.613C214.522 709.618 214.45 709.624 214.374 709.624C214.223 709.635 214.06 709.641 213.886 709.641C213.712 709.641 213.557 709.641 213.421 709.641C213.3 709.641 213.19 709.641 213.092 709.641C212.993 709.641 212.891 709.635 212.785 709.624C211.983 710.576 211.298 711.393 210.731 712.079C210.163 712.765 209.789 713.224 209.607 713.462C209.486 713.575 209.293 713.638 209.028 713.655C208.763 713.677 208.494 713.643 208.222 713.552C207.95 713.468 207.716 713.337 207.519 713.156C207.322 712.974 207.239 712.742 207.269 712.458C207.284 712.373 207.504 712.028 207.927 711.421C208.351 710.815 208.911 710.049 209.607 709.12C208.73 708.853 207.984 708.502 207.371 708.077C206.758 707.646 206.243 707.192 205.827 706.711C205.411 706.229 205.086 705.747 204.851 705.254C204.617 704.766 204.439 704.33 204.318 703.95C204.212 703.627 204.14 703.36 204.103 703.151C204.064 702.941 204.046 702.805 204.046 702.743C204.031 702.573 204.091 702.391 204.227 702.198C204.363 702.006 204.53 701.887 204.727 701.847C204.923 701.802 205.139 701.87 205.373 702.051C205.608 702.227 205.823 702.601 206.021 703.168C206.066 703.343 206.175 703.621 206.349 704.007C206.524 704.386 206.804 704.789 207.19 705.208C207.576 705.628 208.09 706.019 208.733 706.37C209.376 706.722 210.197 706.949 211.196 707.045C211.847 706.206 212.536 705.327 213.262 704.415C213.988 703.497 214.714 702.601 215.441 701.722C216.167 700.844 216.875 700.01 217.563 699.211C218.252 698.412 218.884 697.715 219.459 697.114C220.034 696.519 220.529 696.037 220.946 695.668C221.362 695.306 221.668 695.118 221.866 695.107Z" fill="#F7B500"/>
</svg>
