<svg width="640" height="800" viewBox="0 0 640 800" fill="none" xmlns="http://www.w3.org/2000/svg">
<path d="M640 327.602L367.263 800H0V0H640V327.602Z" fill="#1D3489"/>
<path d="M124.699 62.3018L102.822 25.2023C101.654 23.2225 99.4955 22 97.1678 22H53.4148C51.0791 22 48.9205 23.2225 47.7523 25.2023L25.8758 62.3018C24.7081 64.2815 24.7081 66.7188 25.8758 68.6982L37.4665 88.3521L47.7523 105.798C48.9205 107.778 51.0791 109 53.4148 109H97.1678C99.4955 109 101.654 107.778 102.822 105.798L113.108 88.3521L124.699 68.6982C125.867 66.7188 125.867 64.2815 124.699 62.3018Z" fill="white"/>
<path d="M112.521 104.659V105.668H113.165C113.448 105.668 113.665 105.621 113.802 105.542C113.947 105.463 114.019 105.321 114.019 105.132C114.019 104.966 113.955 104.848 113.826 104.769C113.705 104.698 113.544 104.659 113.351 104.659H112.521ZM111.949 107.719V104.154H113.335C114.164 104.154 114.583 104.485 114.583 105.155C114.583 105.329 114.559 105.471 114.511 105.589C114.462 105.707 114.398 105.802 114.309 105.881C114.221 105.96 114.124 106.023 114.011 106.07C113.899 106.11 113.778 106.141 113.649 106.157L114.696 107.719H114.003L112.964 106.173H112.521V107.719H111.949ZM115.638 105.936C115.638 105.589 115.574 105.266 115.437 104.966C115.308 104.659 115.131 104.39 114.905 104.169C114.68 103.941 114.414 103.767 114.108 103.633C113.802 103.499 113.48 103.428 113.133 103.428C112.787 103.428 112.465 103.499 112.159 103.633C111.852 103.767 111.587 103.941 111.361 104.169C111.135 104.39 110.958 104.659 110.83 104.966C110.693 105.266 110.628 105.589 110.628 105.936C110.628 106.283 110.693 106.607 110.83 106.907C110.958 107.214 111.135 107.474 111.361 107.703C111.587 107.932 111.852 108.105 112.159 108.239C112.465 108.374 112.787 108.437 113.133 108.437C113.48 108.437 113.802 108.374 114.108 108.239C114.414 108.105 114.68 107.932 114.905 107.703C115.131 107.474 115.308 107.214 115.437 106.907C115.574 106.607 115.638 106.283 115.638 105.936ZM110.008 105.936C110.008 105.51 110.089 105.116 110.258 104.745C110.419 104.374 110.644 104.043 110.926 103.767C111.208 103.491 111.538 103.278 111.917 103.113C112.295 102.955 112.706 102.876 113.133 102.876C113.568 102.876 113.971 102.955 114.35 103.113C114.736 103.278 115.066 103.491 115.349 103.767C115.63 104.043 115.848 104.374 116.017 104.745C116.178 105.116 116.259 105.51 116.259 105.936C116.259 106.362 116.178 106.757 116.017 107.127C115.848 107.498 115.63 107.821 115.349 108.098C115.066 108.374 114.736 108.594 114.35 108.76C113.971 108.918 113.568 108.997 113.133 108.997C112.706 108.997 112.295 108.918 111.917 108.76C111.538 108.594 111.208 108.374 110.926 108.098C110.644 107.821 110.419 107.498 110.258 107.127C110.089 106.757 110.008 106.362 110.008 105.936Z" fill="white"/>
<path d="M124.699 62.302L116.217 47.9245H112.496V82.958H116.29L124.699 68.6984C125.867 66.719 125.867 64.2817 124.699 62.302Z" fill="#FBC421"/>
<path d="M34.3562 47.923L25.8749 62.3008C24.7149 64.2806 24.7149 66.7175 25.8749 68.6973L34.2839 82.9565H37.9004V47.923H34.3562Z" fill="#FBC421"/>
<path d="M102.822 25.1997C101.653 23.2202 99.4947 22.0055 97.167 22.0055H53.414C51.078 22.0055 48.9194 23.2202 47.7515 25.1997L37.5381 42.5195H113.035L102.822 25.1997Z" fill="#FBC421"/>
<path d="M113.107 88.356H37.4658L47.7516 105.802C48.9195 107.781 51.0781 108.996 53.4141 108.996H97.1671C99.4948 108.996 101.653 107.781 102.821 105.802L113.107 88.356Z" fill="#FBC421"/>
<path d="M43.415 47.8357H48.6023L53.5158 68.255V47.8357H58.3162V83.043H53.1289L48.4009 63.2705V83.043H43.415V47.8357Z" fill="#2B2F84"/>
<path d="M70.1884 70.5556L68.6337 55.9097L67.0874 70.5556H70.1884ZM75.0455 70.5556L76.7369 83.0483H71.4933L70.72 75.5793H66.5638L65.7745 83.0483H60.5469L62.2383 70.6108L65.0979 47.8332H72.2103L75.0455 70.5556Z" fill="#2B2F84"/>
<path d="M102.805 70.5556L101.25 55.9097L99.7036 70.5556H102.805ZM107.661 70.5556L109.353 83.0483H104.11L103.336 75.5793H99.18L98.3907 83.0483H93.1631L94.8545 70.6108L97.7141 47.8332H104.826L107.661 70.5556Z" fill="#2B2F84"/>
<path d="M84.1531 52.8421V65.5481H84.749C85.466 65.5481 85.9652 65.5007 86.231 65.406C87.1734 65.0354 87.9144 64.286 87.9144 63.166V55.2476C87.9144 53.6467 86.8916 52.8421 85.3853 52.8421H84.1531ZM78.9658 47.8341L85.9168 47.8497C90.5242 47.8497 92.8279 50.3183 92.8279 55.2476V63.166C92.8279 66.8019 91.1765 69.1445 87.866 70.2011C87.0687 70.4535 86.239 70.5796 84.725 70.5796H84.1531V83.0488H78.9658V47.8341Z" fill="#2B2F84"/>
<path d="M144.419 92.6537L147.519 75.1063L150.674 92.6537H144.419ZM140.821 68.1318L132.352 107.655H141.817L143.09 100.459H152.113L153.386 107.655H162.852L154.161 68.1318H140.821Z" fill="white"/>
<path d="M227.736 89.9412C227.57 98.2444 226.628 100.625 223.418 100.625C220.263 100.625 219.322 98.2444 219.156 89.9412L219.101 87.8931L219.156 85.8451C219.377 77.5422 220.318 75.1619 223.418 75.1619C226.573 75.1619 227.514 77.5422 227.736 85.8451L227.791 87.8931L227.736 89.9412ZM179.072 68.1317V94.4251C179.072 99.4068 177.798 100.625 175.474 100.625C172.983 100.625 171.875 98.7426 171.875 94.4251V68.1317H162.41V94.4251C162.41 105.441 166.285 108.429 175.474 108.429C185.271 108.429 188.593 104.61 188.593 94.4251V75.9368H194.634V107.655H204.1V75.9368H210.816C210.151 78.5047 209.792 81.7592 209.635 85.8451L209.579 87.8931L209.635 89.9412C210.078 104.278 213.233 108.429 223.418 108.429C233.769 108.429 236.814 104.333 237.201 89.9412L237.256 87.8931L237.201 85.8451C236.869 71.5085 233.714 67.3568 223.418 67.3568C217.473 67.3568 213.964 68.7573 211.96 72.7816V68.1317H179.072Z" fill="white"/>
<path d="M259.897 85.2917H257.129V75.9368H259.897C262.443 75.9368 264.104 77.0992 264.104 80.6419C264.104 83.4648 263.107 85.2917 259.897 85.2917ZM273.569 80.6419C273.569 73.1135 270.303 68.1318 259.897 68.1318H247.664V107.655H257.129V93.0964H259.897C268.089 93.0964 273.569 90.1627 273.569 80.6419Z" fill="#FBC421"/>
<path d="M313.21 83.963H309.501V75.9368H313.21C315.756 75.9368 317.362 76.9884 317.362 80.1436C317.362 82.4684 316.421 83.963 313.21 83.963ZM282.156 92.6537L285.256 75.1063L288.411 92.6537H282.156ZM309.501 107.655V91.7681H311.882L317.196 107.655H327.103L320.351 90.7164C324.392 89.277 326.829 86.0666 326.829 80.1436C326.829 78.6277 326.68 77.2187 326.355 75.9368H332.925V107.655H342.388V75.9368H348.864C348.616 76.9085 348.484 77.9449 348.484 79.0365C348.484 85.1254 351.363 88.6128 359.112 91.934C363.376 93.7609 365.422 95.5874 365.422 97.691C365.422 99.2961 364.26 100.403 362.157 100.403C359.722 100.403 357.287 98.2444 355.072 93.9269L347.766 98.0785C351.031 105.385 355.295 108.429 361.991 108.429C369.964 108.429 375 104.223 375 97.8014C375 90.1627 371.403 87.0075 364.704 84.0738C359.61 81.8598 357.785 80.0884 357.785 78.3171C357.785 76.7669 359.058 75.6601 360.941 75.6601C363.211 75.6601 365.588 77.6526 367.529 81.5827L374.445 77.6526C372.01 71.0103 368.027 67.412 361.327 67.412C356.593 67.412 352.793 69.2223 350.588 72.2461V68.1317H324.78V72.4741C322.791 69.7368 319.181 68.1317 313.21 68.1317H300.036V105.141L291.898 68.1317H278.558L270.088 107.655H279.554L280.827 100.459H289.85L291.123 107.655H309.501Z" fill="#FBC421"/>
<path fill-rule="evenodd" clip-rule="evenodd" d="M136.64 57.568L141.406 56.7521C141.406 56.7521 141.338 56.9108 141.244 57.0241C141.188 57.0921 140.374 57.3754 139.881 57.5114C139.486 57.619 139.256 57.7551 139.296 58.0383C139.307 58.1177 139.339 58.1913 139.409 58.248C139.443 58.2707 139.461 58.2707 139.585 58.248C141.847 57.8117 144.113 57.3584 146.376 56.9731C147.542 56.7805 155.537 55.7548 157.29 55.5792C160.304 55.2732 165.359 54.8426 167.927 54.6669C169.739 54.548 177.341 54.2306 178.914 54.2137C185.769 54.1343 196.157 54.5422 203.055 55.0239C207.134 55.3129 218.707 56.2932 223.647 57.0864C227.231 57.6644 233.622 58.7013 234.107 58.7296C234.767 58.7693 235.177 58.724 235.211 58.129C235.217 58.01 235.191 57.9194 235.098 57.721C235.018 57.5511 234.888 57.3017 234.888 57.3017C234.888 57.3017 236.073 57.2224 236.608 57.0864C236.971 56.9957 237.091 56.6954 236.85 56.3555C236.789 56.2705 236.711 56.2025 236.608 56.1288C236.3 55.9249 235.906 55.7775 235.957 55.5962C236.037 55.3242 236.619 55.4828 236.977 55.4489C237.245 55.4206 237.466 55.2959 237.306 55.0919C237.155 54.8936 236.4 54.6952 236.185 54.6386C232.323 53.5733 222.345 52.2928 219.945 51.9867C216.567 51.5618 212.311 51.0801 209.47 50.8025C207.618 50.6269 194.542 49.692 192.158 49.5673C184.191 49.1594 169.663 48.808 160.051 49.3236C155.353 49.5786 143.636 50.6892 140.855 51.0973C138.766 51.3976 136.701 51.7772 134.627 52.1284C134.503 52.1511 134.482 52.1568 134.425 52.1851C134.216 52.2815 134.17 52.5194 134.278 52.6214C134.434 52.7743 135.048 52.8651 135.236 53.0293C135.357 53.1371 135.308 53.239 135.171 53.3183C134.927 53.4657 133.348 53.7037 133.125 53.8396C132.936 53.9587 132.856 54.2534 133.125 54.4063C133.479 54.6103 134.672 54.9503 134.672 54.9503C134.672 54.9503 134.569 55.0692 134.456 55.1712C134.3 55.3129 132.981 55.6245 132.589 55.8398C132.38 55.9532 132.203 56.4461 132.54 56.6161C132.608 56.6558 132.714 56.6898 132.806 56.7125C132.929 56.7464 132.956 56.7464 133.08 56.7238C142.378 54.9956 142.979 54.7349 150.079 53.8906C152.135 53.6471 158.591 53.0237 159.905 52.9501C160.547 52.9104 170.381 52.3381 172.894 52.5875C173.291 52.6328 173.725 52.6837 173.725 52.6837C173.725 52.6837 166.839 52.9161 161.935 53.2051C160.603 53.2843 152.564 54.0493 151.005 54.2477C145.608 54.9219 145.312 55.0523 138.646 56.2592C138.085 56.3611 136.397 56.8144 136.275 56.8937C136.054 57.0411 135.965 57.3301 136.307 57.5284C136.347 57.5511 136.39 57.568 136.435 57.5794C136.495 57.5907 136.516 57.5907 136.64 57.568Z" fill="#D30026"/>
<path d="M136.64 57.568L141.406 56.7521C141.406 56.7521 141.338 56.9108 141.244 57.0241C141.188 57.0921 140.374 57.3754 139.881 57.5114C139.486 57.619 139.256 57.7551 139.296 58.0383C139.307 58.1177 139.339 58.1913 139.409 58.248C139.443 58.2707 139.461 58.2707 139.585 58.248C141.847 57.8117 144.113 57.3584 146.376 56.9731C147.542 56.7805 155.537 55.7548 157.29 55.5792C160.304 55.2732 165.359 54.8426 167.927 54.6669C169.739 54.548 177.341 54.2306 178.914 54.2137C185.769 54.1343 196.157 54.5422 203.055 55.0239C207.134 55.3129 218.707 56.2932 223.647 57.0864C227.231 57.6644 233.622 58.7013 234.107 58.7296C234.767 58.7693 235.177 58.724 235.211 58.129C235.217 58.01 235.191 57.9194 235.098 57.721C235.018 57.5511 234.888 57.3017 234.888 57.3017C234.888 57.3017 236.073 57.2224 236.608 57.0864C236.971 56.9957 237.091 56.6954 236.85 56.3555C236.789 56.2705 236.711 56.2025 236.608 56.1288C236.3 55.9249 235.906 55.7775 235.957 55.5962C236.037 55.3242 236.619 55.4828 236.977 55.4489C237.245 55.4206 237.466 55.2959 237.306 55.0919C237.155 54.8936 236.4 54.6952 236.185 54.6386C232.323 53.5733 222.345 52.2928 219.945 51.9867C216.567 51.5618 212.311 51.0801 209.47 50.8025C207.618 50.6269 194.542 49.692 192.158 49.5673C184.191 49.1594 169.663 48.808 160.051 49.3236C155.353 49.5786 143.636 50.6892 140.855 51.0973C138.766 51.3976 136.701 51.7772 134.627 52.1284C134.503 52.1511 134.482 52.1568 134.425 52.1851C134.216 52.2815 134.17 52.5194 134.278 52.6214C134.434 52.7743 135.048 52.8651 135.236 53.0293C135.357 53.1371 135.308 53.239 135.171 53.3183C134.927 53.4657 133.348 53.7037 133.125 53.8396C132.936 53.9587 132.856 54.2534 133.125 54.4063C133.479 54.6103 134.672 54.9503 134.672 54.9503C134.672 54.9503 134.569 55.0692 134.456 55.1712C134.3 55.3129 132.981 55.6245 132.589 55.8398C132.38 55.9532 132.203 56.4461 132.54 56.6161C132.608 56.6558 132.714 56.6898 132.806 56.7125C132.929 56.7464 132.956 56.7464 133.08 56.7238C142.378 54.9956 142.979 54.7349 150.079 53.8906C152.135 53.6471 158.591 53.0237 159.905 52.9501C160.547 52.9104 170.381 52.3381 172.894 52.5875C173.291 52.6328 173.725 52.6837 173.725 52.6837C173.725 52.6837 166.839 52.9161 161.935 53.2051C160.603 53.2843 152.564 54.0493 151.005 54.2477C145.608 54.9219 145.312 55.0523 138.646 56.2592C138.085 56.3611 136.397 56.8144 136.275 56.8937C136.054 57.0411 135.965 57.3301 136.307 57.5284C136.347 57.5511 136.39 57.568 136.435 57.5794C136.495 57.5907 136.516 57.5907 136.64 57.568Z" stroke="#D30026" stroke-width="0.133333"/>
<path fill-rule="evenodd" clip-rule="evenodd" d="M153.404 40.0877C152.799 40.5069 152.152 40.9376 151.464 41.3682C150.775 41.7989 150.103 42.1955 149.444 42.5524C148.786 42.9152 148.174 43.2041 147.606 43.4365C147.039 43.663 146.574 43.7821 146.211 43.7934C146.045 43.7934 145.806 43.7764 145.496 43.7424C145.186 43.7028 144.842 43.6347 144.464 43.5384C144.086 43.4365 143.696 43.3061 143.295 43.136C142.894 42.9718 142.516 42.7564 142.16 42.4958C141.805 42.2408 141.499 41.9291 141.242 41.5722C140.985 41.2151 140.811 40.7959 140.72 40.3087C140.569 39.5211 140.621 38.7108 140.879 37.8722C141.136 37.0392 141.536 36.2119 142.081 35.3903C142.625 34.5687 143.291 33.7641 144.078 32.9821C144.864 32.1946 145.719 31.4523 146.642 30.7554C147.565 30.0584 148.529 29.4124 149.535 28.8175C150.541 28.2282 151.54 27.7182 152.53 27.299C153.521 26.8796 154.478 26.551 155.401 26.3073C156.324 26.0693 157.155 25.9446 157.897 25.9446C158.82 25.9446 159.602 26.0693 160.245 26.3187C160.888 26.5623 161.406 26.8513 161.8 27.1686C162.193 27.4916 162.48 27.8088 162.662 28.1148C162.843 28.4266 162.934 28.6475 162.934 28.7835C162.889 29.3785 162.745 29.9111 162.503 30.3926C162.261 30.8743 161.966 31.305 161.618 31.6846C161.27 32.0585 160.9 32.393 160.506 32.6818C160.113 32.9764 159.75 33.2314 159.417 33.4524C159.296 33.5375 159.183 33.6112 159.076 33.6735C158.971 33.7357 158.88 33.7982 158.804 33.8605C158.456 34.1098 158.12 34.1948 157.795 34.1211C157.469 34.0474 157.182 33.9058 156.932 33.7018C156.683 33.4977 156.49 33.2769 156.354 33.0275C156.218 32.7782 156.164 32.6138 156.195 32.5289C156.225 32.4666 156.278 32.4041 156.354 32.3532C156.43 32.2965 156.512 32.2512 156.603 32.2116C156.754 32.1606 156.936 32.087 157.147 31.9906C157.359 31.8886 157.605 31.7129 157.885 31.4523C158.165 31.1916 158.483 30.8233 158.838 30.3417C159.194 29.86 159.591 29.1971 160.029 28.3585L160.075 28.3755L160.143 28.1545C160.113 28.1999 160.022 28.2395 159.871 28.2622C159.613 28.3018 159.198 28.4151 158.623 28.6078C158.048 28.8005 157.375 29.0555 156.603 29.3785C155.832 29.6958 154.992 30.081 154.085 30.523C153.177 30.9706 152.261 31.4749 151.339 32.0472C150.416 32.6138 149.52 33.2314 148.65 33.9058C147.78 34.58 147.005 35.3054 146.324 36.0759C145.643 36.8465 145.08 37.6681 144.634 38.5294C144.188 39.3963 143.926 40.3029 143.851 41.2549C143.836 41.3795 143.874 41.5212 143.964 41.6855C144.055 41.8442 144.154 41.9291 144.26 41.9405C144.864 41.8952 145.549 41.7364 146.313 41.4701C147.077 41.204 147.848 40.8867 148.627 40.5126C149.406 40.1443 150.167 39.7533 150.908 39.3397C151.649 38.926 152.307 38.5407 152.882 38.1781L151.566 38.4954C151.354 38.5464 151.169 38.5917 151.01 38.6315C150.851 38.6768 150.711 38.7108 150.59 38.7334C150.393 38.7731 150.159 38.7164 149.887 38.569C149.615 38.4218 149.376 38.2348 149.172 38.0137C148.968 37.7929 148.828 37.5549 148.752 37.3112C148.677 37.0619 148.737 36.8522 148.934 36.6766H148.911C149.214 36.4329 149.693 36.2006 150.352 35.9853C151.01 35.7642 151.759 35.583 152.599 35.43C153.438 35.2712 154.33 35.1466 155.276 35.056C156.221 34.9653 157.14 34.92 158.033 34.92C159.016 34.92 159.92 34.9824 160.744 35.1127C161.569 35.2431 162.223 35.4526 162.707 35.7529C163.1 35.9966 163.308 36.2233 163.331 36.4273C163.354 36.6312 163.282 36.8069 163.116 36.9485C162.949 37.0902 162.741 37.1923 162.491 37.2544C162.242 37.3169 162.041 37.3339 161.89 37.3112C161.331 37.2091 160.71 37.1581 160.029 37.1581C159.909 37.1581 159.791 37.1638 159.678 37.1695C159.565 37.1751 159.447 37.1808 159.326 37.1808C158.615 38.093 158.007 38.9488 157.499 39.7476C156.993 40.5409 156.566 41.2662 156.218 41.9122C155.87 42.5637 155.59 43.136 155.378 43.629C155.166 44.122 154.999 44.5356 154.879 44.8699C154.758 45.2156 154.618 45.4876 154.459 45.6858C154.3 45.8842 154.115 45.9805 153.903 45.9805C153.767 45.9578 153.612 45.9068 153.438 45.8276C153.264 45.7425 153.094 45.6349 152.927 45.4933C152.761 45.3515 152.606 45.1816 152.462 44.9833C152.318 44.7849 152.201 44.5639 152.111 44.3147C152.035 44.0824 151.993 43.8217 151.986 43.5384C151.978 43.2494 152.012 42.9491 152.087 42.626L153.404 40.0877Z" fill="#F7B500"/>
<path fill-rule="evenodd" clip-rule="evenodd" d="M195.966 26.0952C196.118 26.0782 196.329 26.1064 196.602 26.1745C196.874 26.2424 197.158 26.3389 197.453 26.4521C197.748 26.5712 198.032 26.7073 198.304 26.8602C198.576 27.0189 198.792 27.1776 198.95 27.342C199.11 27.5119 199.193 27.6763 199.2 27.835C199.208 27.9937 199.091 28.1353 198.848 28.26C198.395 28.4811 197.813 28.9061 197.101 29.5295C196.39 30.1529 195.615 30.8954 194.775 31.7568C193.935 32.6125 193.058 33.5534 192.143 34.5735C191.228 35.5935 190.331 36.6023 189.454 37.6056C190.316 37.3334 191.16 36.9707 191.984 36.5117C192.808 36.0527 193.614 35.5425 194.401 34.9701C195.188 34.4035 195.948 33.8084 196.681 33.185C197.415 32.5616 198.114 31.9438 198.78 31.3374C199.431 30.731 200.081 30.1472 200.732 29.5861C201.382 29.0252 202.026 28.515 202.661 28.056C203.296 27.6027 203.928 27.2173 204.556 26.9056C205.184 26.5995 205.815 26.3955 206.451 26.2991C206.693 26.2594 206.954 26.2311 207.233 26.2141C207.513 26.1971 207.782 26.1858 208.039 26.1858C208.674 26.1858 209.227 26.2538 209.695 26.3955C210.165 26.5429 210.437 26.7354 210.513 26.9849C210.588 27.1663 210.516 27.342 210.297 27.5006C210.077 27.6593 209.688 27.7954 209.128 27.9086C208.705 27.9937 208.27 28.1694 207.824 28.4301C207.377 28.6907 206.919 29.0082 206.451 29.3934C205.981 29.7732 205.498 30.2097 204.998 30.6914C204.499 31.173 203.992 31.6717 203.478 32.1932C202.751 32.9186 201.961 33.6723 201.106 34.4544C200.252 35.2309 199.329 35.9789 198.338 36.6987C197.347 37.4129 196.292 38.0703 195.172 38.6597C194.053 39.2546 192.866 39.7251 191.61 40.0707C191.942 40.7281 192.29 41.3119 192.654 41.822C193.017 42.3377 193.368 42.7855 193.709 43.1764C194.049 43.5675 194.367 43.8962 194.662 44.1682C194.956 44.4404 195.202 44.6557 195.399 44.8144C195.747 45.1147 195.982 45.3471 196.103 45.5228C196.224 45.6928 196.141 45.8457 195.853 45.9818C195.747 46.0214 195.543 46.0158 195.24 45.9648C194.938 45.9138 194.583 45.8231 194.174 45.6758C193.765 45.5341 193.334 45.3471 192.88 45.1034C192.427 44.8654 192.003 44.5706 191.61 44.225C191.02 43.6809 190.498 43.0915 190.044 42.4511C189.59 41.8163 189.212 41.1873 188.909 40.5695C188.834 40.5809 188.762 40.5922 188.694 40.5978C188.626 40.6035 188.554 40.6092 188.478 40.6092C188.327 40.6205 188.164 40.6262 187.99 40.6262C187.817 40.6262 187.661 40.6262 187.525 40.6262C187.404 40.6262 187.295 40.6262 187.196 40.6262C187.097 40.6262 186.995 40.6205 186.889 40.6092C186.088 41.5613 185.403 42.3773 184.836 43.0631C184.269 43.7488 183.894 44.2079 183.713 44.4459C183.591 44.5593 183.399 44.6217 183.134 44.6387C182.87 44.6614 182.601 44.6274 182.328 44.5366C182.056 44.4515 181.822 44.3213 181.625 44.1399C181.429 43.9585 181.345 43.7262 181.375 43.4429C181.391 43.3578 181.61 43.0122 182.034 42.4058C182.457 41.7993 183.017 41.0342 183.713 40.1047C182.835 39.8384 182.09 39.4871 181.477 39.0621C180.865 38.6314 180.35 38.1779 179.934 37.6962C179.518 37.2145 179.193 36.7327 178.958 36.2397C178.724 35.7522 178.546 35.3158 178.425 34.9362C178.319 34.6131 178.247 34.3468 178.21 34.1371C178.172 33.9274 178.153 33.7914 178.153 33.7291C178.138 33.559 178.199 33.3777 178.335 33.185C178.471 32.9923 178.637 32.8732 178.834 32.8336C179.03 32.7882 179.246 32.8562 179.481 33.0376C179.715 33.2133 179.931 33.5874 180.128 34.1541C180.173 34.3297 180.282 34.6075 180.456 34.9929C180.63 35.3726 180.91 35.775 181.296 36.1944C181.682 36.6136 182.196 37.0047 182.839 37.3561C183.482 37.7075 184.303 37.9342 185.301 38.0305C185.952 37.1917 186.64 36.3133 187.366 35.4009C188.092 34.4827 188.818 33.5874 189.545 32.709C190.271 31.8304 190.978 30.9973 191.666 30.1984C192.355 29.3991 192.986 28.7021 193.561 28.1013C194.136 27.5062 194.632 27.0246 195.048 26.6562C195.464 26.2936 195.77 26.1064 195.966 26.0952Z" fill="#F7B500"/>
<path fill-rule="evenodd" clip-rule="evenodd" d="M167.988 34.861C167.854 34.5629 167.761 34.2379 167.71 33.8819C167.659 33.5259 167.625 33.1387 167.609 32.7249C167.631 32.6582 167.651 32.5914 167.667 32.5291C167.682 32.4668 167.689 32.3912 167.687 32.311C167.689 32.1509 167.755 31.9817 167.884 31.8081C168.014 31.6346 168.183 31.4611 168.393 31.2964C168.603 31.1272 168.848 30.9671 169.13 30.8158C169.412 30.6601 169.71 30.5265 170.024 30.4108C170.337 30.2952 170.659 30.2062 170.99 30.1394C171.321 30.0726 171.645 30.037 171.963 30.037C172.375 30.037 172.712 30.0993 172.972 30.2195C173.232 30.3441 173.436 30.4909 173.584 30.6644C173.732 30.8381 173.832 31.0205 173.883 31.2074C173.935 31.3943 173.958 31.559 173.951 31.6969C173.938 31.9862 173.88 32.2177 173.777 32.4C173.673 32.5824 173.539 32.7294 173.375 32.8361C173.212 32.943 173.034 33.0187 172.842 33.0587C172.65 33.1032 172.463 33.121 172.28 33.121C172.125 33.121 171.992 33.0943 171.881 33.0409C171.771 32.9831 171.706 32.9251 171.688 32.8583C171.751 32.7516 171.842 32.6404 171.964 32.5203C172.086 32.4045 172.211 32.2798 172.34 32.1554C172.469 32.0306 172.591 31.9105 172.706 31.7904C172.82 31.6747 172.902 31.559 172.952 31.4477C172.9 31.4299 172.838 31.4122 172.767 31.3943C172.695 31.3766 172.608 31.3632 172.507 31.3632C172.054 31.3632 171.669 31.3943 171.353 31.4521C171.038 31.51 170.777 31.6301 170.573 31.8081C170.368 31.9862 170.218 32.2444 170.12 32.5736C170.023 32.9074 169.966 33.348 169.949 33.8998C169.948 34.0022 169.956 34.0822 169.971 34.14C169.986 34.2024 169.992 34.2646 169.99 34.3314C169.987 34.3492 169.987 34.3626 169.989 34.3758C169.991 34.3848 169.991 34.3982 169.988 34.4159C169.999 34.4872 170.025 34.5495 170.068 34.6073C170.111 34.6607 170.159 34.7185 170.211 34.781C170.263 34.8431 170.315 34.9099 170.364 34.9856C170.415 35.0657 170.456 35.1547 170.488 35.2615L170.967 36.1916C171.047 36.3873 171.161 36.5654 171.308 36.7212C171.455 36.877 171.607 37.0104 171.763 37.1305C171.918 37.2508 172.068 37.353 172.211 37.442C172.354 37.531 172.462 37.6112 172.533 37.6823L172.835 37.9806C172.881 37.896 172.934 37.8114 172.993 37.7224C173.053 37.6334 173.107 37.5444 173.153 37.451C173.123 37.3353 173.071 37.2195 172.999 37.1038C172.927 36.9926 172.845 36.8813 172.751 36.7745C172.658 36.6677 172.559 36.5654 172.454 36.4675C172.35 36.3696 172.252 36.2849 172.162 36.2049C172.134 36.2049 172.089 36.1827 172.025 36.1293C171.961 36.0803 171.883 36.0225 171.791 35.9512C171.699 35.8846 171.6 35.8133 171.492 35.7376C171.384 35.662 171.276 35.5997 171.169 35.5419C171.223 35.4484 171.288 35.3817 171.365 35.3416C171.442 35.2971 171.522 35.2703 171.604 35.2615H171.767C171.88 35.2703 171.998 35.2793 172.119 35.2793C172.241 35.2793 172.36 35.2793 172.474 35.2793C172.562 35.2793 172.648 35.266 172.733 35.2438C172.817 35.2214 172.909 35.1948 173.007 35.1636C173.107 35.1369 173.214 35.1058 173.329 35.0834C173.444 35.0569 173.573 35.039 173.717 35.0302L174.882 34.8966C174.985 34.8832 175.085 34.8788 175.183 34.8788C175.281 34.8788 175.378 34.8788 175.473 34.8788C175.626 34.8922 175.778 34.9189 175.928 34.9589C176.078 34.9989 176.21 35.0524 176.327 35.1147C176.443 35.1813 176.536 35.2526 176.605 35.3371C176.675 35.4173 176.71 35.5107 176.709 35.6087C176.707 35.6708 176.688 35.7243 176.651 35.7689C176.615 35.8088 176.571 35.8489 176.52 35.8756C176.469 35.9023 176.41 35.9245 176.344 35.9379C176.277 35.9512 176.21 35.9557 176.143 35.9557C176.082 35.9557 176.029 35.9512 175.983 35.9424C175.937 35.929 175.883 35.9245 175.823 35.9245C175.721 35.9245 175.616 35.929 175.505 35.9467C175.395 35.9602 175.285 35.9735 175.174 35.9913C175.067 36.0358 174.959 36.067 174.851 36.0847C174.744 36.1071 174.637 36.1204 174.531 36.1293C174.425 36.1338 174.317 36.1426 174.208 36.1515C174.099 36.1605 173.991 36.1782 173.886 36.2049C173.902 36.2317 173.915 36.2672 173.923 36.3028C173.932 36.3384 173.937 36.3741 173.939 36.4052C173.936 36.4274 173.937 36.4453 173.943 36.4541C173.936 36.4986 173.954 36.5343 173.994 36.5565C174.034 36.5832 174.08 36.6099 174.131 36.6322C174.181 36.6589 174.228 36.6856 174.27 36.7212C174.313 36.7522 174.334 36.7968 174.333 36.8546L174.326 36.9036C174.328 36.9348 174.333 36.9704 174.342 37.0104C174.349 37.0504 174.365 37.0861 174.387 37.1172C174.385 37.1795 174.383 37.2329 174.379 37.2818C174.375 37.3353 174.373 37.3842 174.373 37.4332C174.371 37.4955 174.37 37.5489 174.371 37.5935C174.371 37.6423 174.375 37.6868 174.382 37.7314C174.345 37.9449 174.288 38.1719 174.212 38.4033C174.135 38.6347 174.033 38.8661 173.907 39.0886C174.14 39.3111 174.376 39.4802 174.618 39.5915C174.858 39.7072 175.084 39.7874 175.294 39.8362C175.503 39.8852 175.681 39.912 175.83 39.9163C175.979 39.9163 176.08 39.9208 176.134 39.9208C176.242 39.9208 176.324 39.9163 176.38 39.903C176.436 39.8941 176.477 39.8807 176.506 39.8719C176.535 39.8585 176.557 39.8497 176.572 39.8362C176.587 39.8273 176.611 39.8184 176.645 39.8184C176.719 39.8184 176.773 39.8452 176.807 39.8941C176.84 39.943 176.859 40.0008 176.864 40.0676C176.827 40.1344 176.777 40.2012 176.714 40.2679C176.65 40.3347 176.582 40.3657 176.507 40.3657C176.503 40.4015 176.467 40.4504 176.4 40.5171C176.333 40.5839 176.229 40.6507 176.088 40.7173C175.947 40.7796 175.771 40.842 175.561 40.891C175.351 40.9399 175.105 40.9621 174.82 40.9621C174.758 40.9266 174.709 40.9043 174.673 40.8998C174.636 40.891 174.601 40.8865 174.568 40.882C174.535 40.8776 174.497 40.8598 174.453 40.842C174.408 40.8197 174.344 40.7707 174.259 40.6996C174.173 40.7307 174.087 40.7218 174 40.664C173.913 40.6106 173.825 40.5394 173.735 40.4593C173.645 40.3748 173.555 40.2991 173.463 40.2278C173.372 40.1566 173.279 40.1166 173.184 40.1166C173.09 40.1166 172.995 40.1611 172.902 40.2502C172.808 40.3392 172.712 40.4325 172.614 40.5349C172.515 40.6328 172.416 40.7218 172.318 40.793C172.22 40.8688 172.122 40.891 172.024 40.8643C171.804 40.9932 171.571 41.0956 171.326 41.1803C171.081 41.2648 170.827 41.3271 170.563 41.376C170.299 41.4204 170.033 41.4517 169.763 41.4695C169.494 41.4872 169.227 41.4961 168.963 41.4961C168.531 41.4961 168.122 41.4428 167.738 41.3359C167.353 41.2335 167.001 41.0912 166.681 40.9177C166.36 40.744 166.072 40.5438 165.816 40.3213C165.56 40.0988 165.343 39.8719 165.166 39.6404C164.988 39.4134 164.854 39.1865 164.763 38.9685C164.673 38.746 164.629 38.5501 164.633 38.3766C164.704 37.8737 164.942 37.362 165.347 36.8369C165.438 36.7167 165.561 36.5654 165.714 36.3918C165.867 36.2183 166.05 36.0403 166.265 35.8579C166.481 35.6753 166.731 35.4975 167.016 35.3193C167.301 35.1414 167.625 34.9901 167.988 34.861ZM171.923 39.7784C171.971 39.7294 172.007 39.676 172.031 39.627C172.055 39.5738 172.078 39.5158 172.101 39.4535C171.849 39.2711 171.577 39.0664 171.284 38.8394C170.992 38.6081 170.714 38.3855 170.451 38.1675C170.187 37.9494 169.961 37.7491 169.773 37.5756C169.585 37.3976 169.469 37.2685 169.427 37.184C169.408 37.2284 169.388 37.2685 169.37 37.3041C169.351 37.3398 169.338 37.3842 169.331 37.4332L168.981 37.6912C168.935 37.7714 168.871 37.8515 168.789 37.9315C168.708 38.0072 168.616 38.0918 168.516 38.1807C168.369 38.3098 168.244 38.4566 168.14 38.6169C168.036 38.7771 167.951 38.9373 167.885 39.0975C167.818 39.2578 167.773 39.4134 167.75 39.5559C167.726 39.6982 167.717 39.8229 167.723 39.9297C167.74 40.0898 167.779 40.1967 167.838 40.259C167.897 40.3213 167.981 40.3748 168.09 40.4192L168.523 40.5839C168.7 40.6284 168.883 40.655 169.074 40.6684C169.265 40.6817 169.467 40.6817 169.678 40.664C169.857 40.6507 170.045 40.6194 170.243 40.5794C170.442 40.5394 170.641 40.4815 170.84 40.4103C171.04 40.3392 171.231 40.2502 171.415 40.1478C171.598 40.0454 171.768 39.9208 171.923 39.7784Z" fill="#F7B500"/>
<path fill-rule="evenodd" clip-rule="evenodd" d="M221.866 26.0931C222.017 26.0759 222.229 26.1043 222.5 26.1724C222.773 26.2403 223.056 26.3367 223.353 26.4502C223.647 26.5692 223.93 26.7052 224.203 26.8582C224.475 27.0169 224.691 27.1756 224.85 27.34C225.009 27.5101 225.092 27.6745 225.099 27.8332C225.107 27.9919 224.989 28.1336 224.748 28.2584C224.294 28.4794 223.711 28.9046 223 29.5281C222.288 30.1517 221.513 30.8943 220.673 31.7558C219.834 32.6117 218.956 33.5527 218.04 34.5731C217.125 35.5934 216.228 36.6024 215.351 37.6056C216.213 37.3337 217.056 36.9709 217.881 36.5117C218.706 36.0526 219.512 35.5424 220.299 34.9699C221.086 34.4029 221.847 33.8079 222.58 33.1843C223.315 32.5608 224.015 31.9429 224.68 31.3363C225.33 30.7298 225.981 30.146 226.631 29.5847C227.282 29.0236 227.927 28.5135 228.561 28.0543C229.197 27.6008 229.829 27.2154 230.456 26.9037C231.085 26.5974 231.717 26.3934 232.353 26.2971C232.594 26.2575 232.855 26.229 233.136 26.212C233.416 26.195 233.684 26.1837 233.942 26.1837C234.578 26.1837 235.129 26.2518 235.598 26.3934C236.067 26.5408 236.34 26.7336 236.416 26.9829C236.491 27.1643 236.42 27.34 236.201 27.4987C235.98 27.6575 235.591 27.7935 235.031 27.9069C234.607 27.9919 234.172 28.1676 233.725 28.4284C233.279 28.6892 232.822 29.0066 232.353 29.392C231.884 29.7719 231.399 30.2083 230.899 30.6901C230.4 31.1719 229.893 31.6709 229.379 32.1924C228.653 32.9178 227.861 33.6718 227.006 34.4541C226.152 35.2307 225.229 35.9788 224.237 36.6988C223.247 37.4131 222.191 38.0706 221.071 38.66C219.95 39.2553 218.763 39.7258 217.507 40.0715C217.839 40.729 218.188 41.3129 218.551 41.8231C218.914 42.3389 219.266 42.7867 219.606 43.1778C219.947 43.569 220.265 43.8978 220.56 44.1699C220.855 44.4419 221.102 44.6574 221.298 44.8161C221.645 45.1165 221.88 45.3489 222.002 45.5246C222.123 45.6946 222.04 45.8477 221.751 45.9837C221.645 46.0234 221.442 46.0177 221.138 45.9668C220.836 45.9158 220.48 45.825 220.072 45.6776C219.663 45.5359 219.232 45.3489 218.778 45.1052C218.324 44.8671 217.9 44.5723 217.507 44.2265C216.916 43.6824 216.394 43.0928 215.941 42.4523C215.487 41.8174 215.108 41.1882 214.805 40.5703C214.73 40.5816 214.658 40.593 214.59 40.5986C214.522 40.6043 214.45 40.6101 214.374 40.6101C214.223 40.6213 214.06 40.627 213.886 40.627C213.712 40.627 213.557 40.627 213.421 40.627C213.3 40.627 213.19 40.627 213.092 40.627C212.993 40.627 212.891 40.6213 212.785 40.6101C211.983 41.5623 211.298 42.3785 210.731 43.0645C210.163 43.7504 209.789 44.2095 209.607 44.4477C209.486 44.5609 209.293 44.6234 209.028 44.6404C208.763 44.663 208.494 44.6291 208.222 44.5383C207.95 44.4533 207.716 44.3229 207.519 44.1416C207.322 43.96 207.239 43.7277 207.269 43.4442C207.284 43.3593 207.504 43.0134 207.927 42.407C208.351 41.8004 208.911 41.0352 209.607 40.1055C208.73 39.8392 207.984 39.4876 207.371 39.0626C206.758 38.6317 206.243 38.1782 205.827 37.6964C205.411 37.2146 205.086 36.7328 204.851 36.2396C204.617 35.7521 204.439 35.3156 204.318 34.9359C204.212 34.6128 204.14 34.3463 204.103 34.1366C204.064 33.9269 204.046 33.7909 204.046 33.7284C204.031 33.5584 204.091 33.377 204.227 33.1843C204.363 32.9915 204.53 32.8725 204.727 32.8329C204.923 32.7874 205.139 32.8555 205.373 33.0369C205.608 33.2126 205.823 33.5867 206.021 34.1536C206.066 34.3293 206.175 34.6071 206.349 34.9925C206.524 35.3722 206.804 35.7748 207.19 36.1943C207.576 36.6137 208.09 37.0049 208.733 37.3563C209.376 37.7077 210.197 37.9345 211.196 38.0308C211.847 37.1919 212.536 36.3132 213.262 35.4007C213.988 34.4824 214.714 33.5867 215.441 32.7082C216.167 31.8295 216.875 30.9962 217.563 30.197C218.252 29.3977 218.884 28.7005 219.459 28.0996C220.034 27.5044 220.529 27.0226 220.946 26.6542C221.362 26.2914 221.668 26.1043 221.866 26.0931Z" fill="#F7B500"/>
</svg>
