<svg width="1378" height="341" viewBox="0 0 1378 341" fill="none" xmlns="http://www.w3.org/2000/svg">
<path d="M470.123 278.147L482.327 209.067L494.749 278.147H470.123ZM455.959 181.609L422.618 337.201H459.882L464.894 308.873H500.414L505.426 337.201H542.69L508.478 181.609H455.959Z" fill="white"/>
<path d="M798.122 267.468C797.467 300.156 793.762 309.527 781.125 309.527C768.702 309.527 764.998 300.156 764.345 267.468L764.127 259.405L764.345 251.343C765.215 218.656 768.919 209.285 781.125 209.285C793.545 209.285 797.249 218.656 798.122 251.343L798.339 259.405L798.122 267.468ZM606.542 181.609V285.12C606.542 304.732 601.53 309.527 592.378 309.527C582.571 309.527 578.213 302.117 578.213 285.12V181.609H540.95V285.12C540.95 328.485 556.203 340.252 592.378 340.252C630.949 340.252 644.025 325.216 644.025 285.12V212.336H667.806V337.201H705.071V212.336H731.513C728.894 222.445 727.481 235.257 726.862 251.343L726.645 259.405L726.862 267.468C728.606 323.909 741.027 340.252 781.125 340.252C821.874 340.252 833.859 324.127 835.385 267.468L835.602 259.405L835.385 251.343C834.078 194.903 821.655 178.559 781.125 178.559C757.719 178.559 743.905 184.072 736.015 199.915V181.609H606.542Z" fill="white"/>
<path d="M924.733 249.164H913.837V212.336H924.733C934.755 212.336 941.294 216.912 941.294 230.859C941.294 241.972 937.37 249.164 924.733 249.164ZM978.557 230.859C978.557 201.221 965.699 181.609 924.733 181.609H876.573V337.201H913.837V279.889H924.733C956.983 279.889 978.557 268.34 978.557 230.859Z" fill="#FBC421"/>
<path d="M1134.62 243.933H1120.01V212.336H1134.62C1144.64 212.336 1150.96 216.476 1150.96 228.897C1150.96 238.049 1147.25 243.933 1134.62 243.933ZM1012.36 278.147L1024.56 209.067L1036.98 278.147H1012.36ZM1120.01 337.201V274.66H1129.38L1150.3 337.201H1189.31L1162.73 270.52C1178.63 264.853 1188.23 252.215 1188.23 228.897C1188.23 222.929 1187.64 217.383 1186.36 212.336H1212.23V337.201H1249.48V212.336H1274.97C1274 216.161 1273.48 220.241 1273.48 224.539C1273.48 248.509 1284.81 262.239 1315.32 275.313C1332.11 282.505 1340.16 289.696 1340.16 297.977C1340.16 304.296 1335.59 308.655 1327.31 308.655C1317.72 308.655 1308.13 300.156 1299.41 283.159L1270.65 299.503C1283.51 328.268 1300.29 340.252 1326.65 340.252C1358.04 340.252 1377.87 323.691 1377.87 298.412C1377.87 268.34 1363.71 255.919 1337.33 244.369C1317.28 235.653 1310.09 228.68 1310.09 221.707C1310.09 215.604 1315.11 211.247 1322.52 211.247C1331.45 211.247 1340.81 219.091 1348.45 234.563L1375.68 219.091C1366.09 192.941 1350.41 178.776 1324.04 178.776C1305.4 178.776 1290.44 185.903 1281.76 197.807V181.609H1180.16V198.704C1172.33 187.928 1158.12 181.609 1134.62 181.609H1082.75V327.307L1050.71 181.609H998.195L964.854 337.201H1002.12L1007.13 308.873H1042.65L1047.66 337.201H1120.01Z" fill="#FBC421"/>
<path d="M382.118 157.752L298.271 12.5347C293.795 4.78537 285.521 -4.72064e-08 276.599 -4.72064e-08H108.906C99.954 -4.72064e-08 91.6807 4.78537 87.2034 12.5347L3.3567 157.752C-1.1189 165.501 -1.1189 175.041 3.3567 182.789L47.7807 259.72L87.2034 328.008C91.6807 335.757 99.954 340.541 108.906 340.541H276.599C285.521 340.541 293.795 335.757 298.271 328.008L337.694 259.72L382.118 182.789C386.594 175.041 386.594 165.501 382.118 157.752Z" fill="white"/>
<path d="M335.443 323.551V327.503H337.913C338.994 327.503 339.827 327.316 340.351 327.008C340.907 326.7 341.185 326.144 341.185 325.403C341.185 324.755 340.938 324.291 340.445 323.983C339.981 323.705 339.363 323.551 338.623 323.551H335.443ZM333.251 335.528V321.575H338.561C341.741 321.575 343.346 322.871 343.346 325.495C343.346 326.175 343.254 326.731 343.069 327.193C342.883 327.656 342.637 328.027 342.297 328.336C341.957 328.644 341.586 328.891 341.154 329.076C340.722 329.231 340.259 329.355 339.765 329.416L343.778 335.528H341.123L337.141 329.477H335.443V335.528H333.251ZM347.39 328.552C347.39 327.193 347.143 325.928 346.618 324.755C346.125 323.551 345.446 322.501 344.581 321.636C343.717 320.741 342.698 320.061 341.525 319.537C340.351 319.012 339.117 318.735 337.79 318.735C336.462 318.735 335.227 319.012 334.054 319.537C332.881 320.061 331.862 320.741 330.998 321.636C330.133 322.501 329.454 323.551 328.961 324.755C328.435 325.928 328.189 327.193 328.189 328.552C328.189 329.909 328.435 331.176 328.961 332.349C329.454 333.553 330.133 334.572 330.998 335.467C331.862 336.361 332.881 337.041 334.054 337.565C335.227 338.091 336.462 338.337 337.79 338.337C339.117 338.337 340.351 338.091 341.525 337.565C342.698 337.041 343.717 336.361 344.581 335.467C345.446 334.572 346.125 333.553 346.618 332.349C347.143 331.176 347.39 329.909 347.39 328.552ZM325.811 328.552C325.811 326.884 326.121 325.341 326.769 323.889C327.386 322.439 328.25 321.143 329.33 320.061C330.411 318.981 331.677 318.148 333.127 317.5C334.578 316.883 336.153 316.573 337.79 316.573C339.457 316.573 340.999 316.883 342.451 317.5C343.933 318.148 345.198 318.981 346.279 320.061C347.359 321.143 348.193 322.439 348.841 323.889C349.458 325.341 349.767 326.884 349.767 328.552C349.767 330.219 349.458 331.763 348.841 333.213C348.193 334.664 347.359 335.929 346.279 337.011C345.198 338.091 343.933 338.955 342.451 339.604C340.999 340.221 339.457 340.529 337.79 340.529C336.153 340.529 334.578 340.221 333.127 339.604C331.677 338.955 330.411 338.091 329.33 337.011C328.25 335.929 327.386 334.664 326.769 333.213C326.121 331.763 325.811 330.219 325.811 328.552Z" fill="white"/>
<path d="M382.118 157.752L349.61 101.475H335.347V238.605H349.887L382.118 182.789C386.594 175.041 386.594 165.501 382.118 157.752Z" fill="#FBC421"/>
<path d="M35.858 101.471L3.35137 157.749C-1.0945 165.499 -1.0945 175.037 3.35137 182.787L35.5807 238.601H49.442V101.471H35.858Z" fill="#FBC421"/>
<path d="M298.269 12.524C293.791 4.77601 285.518 0.0213386 276.597 0.0213386H108.903C99.95 0.0213386 91.6767 4.77601 87.2007 12.524L48.0554 80.3187H337.413L298.269 12.524Z" fill="#FBC421"/>
<path d="M337.69 259.736H47.778L87.2007 328.024C91.6767 335.772 99.95 340.527 108.903 340.527H276.597C285.518 340.527 293.791 335.772 298.267 328.024L337.69 259.736Z" fill="#FBC421"/>
<path d="M70.5793 101.128H90.4607L109.293 181.055V101.128H127.691V238.939H107.81L89.6887 161.544V238.939H70.5793V101.128Z" fill="#2B2F84"/>
<path d="M173.193 190.06L167.234 132.732L161.307 190.06H173.193ZM191.809 190.06L198.291 238.96H178.194L175.23 209.724H159.301L156.275 238.96H136.239L142.722 190.276L153.682 101.119H180.942L191.809 190.06Z" fill="#2B2F84"/>
<path d="M298.203 190.06L292.245 132.732L286.318 190.06H298.203ZM316.818 190.06L323.302 238.96H303.205L300.241 209.724H284.311L281.286 238.96H261.25L267.733 190.276L278.693 101.119H305.951L316.818 190.06Z" fill="#2B2F84"/>
<path d="M226.718 120.725V170.46H229.002C231.75 170.46 233.663 170.275 234.682 169.904C238.294 168.453 241.134 165.52 241.134 161.136V130.141C241.134 123.875 237.214 120.725 231.441 120.725H226.718ZM206.837 101.123L233.478 101.184C251.137 101.184 259.966 110.847 259.966 130.141V161.136C259.966 175.368 253.637 184.537 240.949 188.673C237.893 189.661 234.713 190.155 228.91 190.155H226.718V238.963H206.837V101.123Z" fill="#2B2F84"/>
<path fill-rule="evenodd" clip-rule="evenodd" d="M439.5 140.053L458.265 136.841C458.265 136.841 457.997 137.465 457.627 137.911C457.406 138.179 454.2 139.294 452.258 139.83C450.703 140.253 449.8 140.789 449.956 141.904C450 142.216 450.127 142.506 450.402 142.729C450.535 142.819 450.607 142.819 451.093 142.729C460.001 141.012 468.919 139.227 477.83 137.71C482.419 136.952 513.896 132.914 520.795 132.223C532.66 131.018 552.56 129.323 562.671 128.632C569.805 128.163 599.729 126.914 605.924 126.847C632.908 126.535 673.806 128.141 700.961 130.037C717.018 131.175 762.579 135.034 782.029 138.157C796.138 140.432 821.297 144.514 823.206 144.626C825.802 144.782 827.42 144.603 827.551 142.261C827.574 141.793 827.471 141.436 827.105 140.655C826.791 139.986 826.282 139.004 826.282 139.004C826.282 139.004 830.947 138.692 833.051 138.157C834.48 137.8 834.954 136.617 834.005 135.279C833.765 134.944 833.456 134.677 833.051 134.387C831.839 133.584 830.289 133.004 830.489 132.29C830.804 131.219 833.096 131.844 834.503 131.71C835.56 131.599 836.429 131.108 835.8 130.305C835.206 129.524 832.233 128.743 831.387 128.52C816.18 124.326 776.901 119.285 767.453 118.08C754.154 116.407 737.4 114.511 726.215 113.418C718.923 112.727 667.448 109.047 658.061 108.556C626.698 106.95 569.506 105.566 531.665 107.596C513.171 108.6 467.042 112.972 456.094 114.579C447.872 115.761 439.741 117.255 431.575 118.638C431.086 118.727 431.006 118.75 430.781 118.861C429.957 119.241 429.777 120.177 430.201 120.579C430.814 121.181 433.233 121.538 433.973 122.185C434.448 122.609 434.256 123.01 433.716 123.322C432.757 123.903 426.541 124.84 425.661 125.375C424.919 125.844 424.602 127.003 425.661 127.605C427.056 128.409 431.753 129.747 431.753 129.747C431.753 129.747 431.349 130.215 430.904 130.617C430.288 131.175 425.097 132.402 423.551 133.249C422.73 133.695 422.035 135.636 423.359 136.305C423.629 136.461 424.046 136.595 424.408 136.684C424.892 136.818 424.999 136.818 425.487 136.729C462.088 129.926 464.455 128.899 492.408 125.575C500.5 124.617 525.917 122.163 531.088 121.873C533.615 121.717 572.333 119.464 582.223 120.445C583.787 120.624 585.495 120.824 585.495 120.824C585.495 120.824 558.386 121.739 539.08 122.877C533.836 123.189 502.191 126.2 496.053 126.981C474.805 129.635 473.641 130.149 447.399 134.9C445.188 135.301 438.543 137.086 438.064 137.398C437.192 137.978 436.841 139.116 438.191 139.897C438.347 139.986 438.517 140.053 438.693 140.097C438.929 140.142 439.012 140.142 439.5 140.053Z" fill="#D30026"/>
<path d="M439.5 140.053L458.265 136.841C458.265 136.841 457.997 137.465 457.627 137.911C457.406 138.179 454.2 139.294 452.258 139.83C450.703 140.253 449.8 140.789 449.956 141.904C450 142.216 450.127 142.506 450.402 142.729C450.535 142.819 450.607 142.819 451.093 142.729C460.001 141.012 468.919 139.227 477.83 137.71C482.419 136.952 513.896 132.914 520.795 132.223C532.66 131.018 552.56 129.323 562.671 128.632C569.805 128.163 599.729 126.914 605.924 126.847C632.908 126.535 673.806 128.141 700.961 130.037C717.018 131.175 762.579 135.034 782.029 138.157C796.138 140.432 821.297 144.514 823.206 144.626C825.802 144.782 827.42 144.603 827.551 142.261C827.574 141.793 827.471 141.436 827.105 140.655C826.791 139.986 826.282 139.004 826.282 139.004C826.282 139.004 830.947 138.692 833.051 138.157C834.48 137.8 834.954 136.617 834.005 135.279C833.765 134.944 833.456 134.677 833.051 134.387C831.839 133.584 830.289 133.004 830.489 132.29C830.804 131.219 833.096 131.844 834.503 131.71C835.56 131.599 836.429 131.108 835.8 130.305C835.206 129.524 832.233 128.743 831.387 128.52C816.18 124.326 776.901 119.285 767.453 118.08C754.154 116.407 737.4 114.511 726.215 113.418C718.923 112.727 667.448 109.047 658.061 108.556C626.698 106.95 569.506 105.566 531.665 107.596C513.171 108.6 467.042 112.972 456.094 114.579C447.872 115.761 439.741 117.255 431.575 118.638C431.086 118.727 431.006 118.75 430.781 118.861C429.957 119.241 429.777 120.177 430.201 120.579C430.814 121.181 433.233 121.538 433.973 122.185C434.448 122.609 434.256 123.01 433.716 123.322C432.757 123.903 426.541 124.84 425.661 125.375C424.919 125.844 424.602 127.003 425.661 127.605C427.056 128.409 431.753 129.747 431.753 129.747C431.753 129.747 431.349 130.215 430.904 130.617C430.288 131.175 425.097 132.402 423.551 133.249C422.73 133.695 422.035 135.636 423.359 136.305C423.629 136.461 424.046 136.595 424.408 136.684C424.892 136.818 424.999 136.818 425.487 136.729C462.088 129.926 464.455 128.899 492.408 125.575C500.5 124.617 525.917 122.163 531.088 121.873C533.615 121.717 572.333 119.464 582.223 120.445C583.787 120.624 585.495 120.824 585.495 120.824C585.495 120.824 558.386 121.739 539.08 122.877C533.836 123.189 502.191 126.2 496.053 126.981C474.805 129.635 473.641 130.149 447.399 134.9C445.188 135.301 438.543 137.086 438.064 137.398C437.192 137.978 436.841 139.116 438.191 139.897C438.347 139.986 438.517 140.053 438.693 140.097C438.929 140.142 439.012 140.142 439.5 140.053Z" stroke="#D30026" stroke-width="0.133333"/>
<path fill-rule="evenodd" clip-rule="evenodd" d="M505.497 71.2368C503.114 72.8872 500.569 74.5828 497.859 76.2778C495.149 77.9734 492.501 79.5346 489.909 80.9398C487.32 82.3679 484.908 83.5055 482.673 84.4202C480.44 85.312 478.609 85.7807 477.181 85.8253C476.525 85.8253 475.586 85.7584 474.366 85.6247C473.146 85.4686 471.792 85.2005 470.302 84.8215C468.814 84.4202 467.279 83.9068 465.702 83.2374C464.123 82.5908 462.635 81.743 461.234 80.7169C459.835 79.713 458.631 78.4862 457.618 77.081C456.605 75.6753 455.921 74.0249 455.563 72.1069C454.968 69.0061 455.175 65.8162 456.188 62.5148C457.201 59.2357 458.778 55.9789 460.922 52.7443C463.065 49.5098 465.686 46.3422 468.783 43.2637C471.879 40.1635 475.245 37.2411 478.876 34.4977C482.51 31.7536 486.307 29.2108 490.266 26.8687C494.228 24.5488 498.158 22.5411 502.057 20.8907C505.959 19.2397 509.726 17.946 513.358 16.9867C516.992 16.0498 520.266 15.5587 523.184 15.5587C526.818 15.5587 529.899 16.0498 532.43 17.0313C534.962 17.9906 537.001 19.1282 538.549 20.3773C540.097 21.6487 541.228 22.8978 541.944 24.1024C542.658 25.3297 543.015 26.1993 543.015 26.7349C542.837 29.0771 542.272 31.1739 541.317 33.0696C540.365 34.9659 539.205 36.6614 537.835 38.1558C536.463 39.6278 535.006 40.9444 533.457 42.0815C531.908 43.2414 530.48 44.2453 529.169 45.1153C528.694 45.4503 528.248 45.7402 527.828 45.9854C527.413 46.2307 527.057 46.4765 526.758 46.7217C525.388 47.7033 524.063 48.0377 522.782 47.7479C521.502 47.4575 520.371 46.9001 519.388 46.0969C518.406 45.2937 517.645 44.4242 517.11 43.4426C516.574 42.4611 516.365 41.8139 516.485 41.4795C516.604 41.2343 516.813 40.9884 517.11 40.7878C517.409 40.5648 517.734 40.3865 518.093 40.2304C518.687 40.0297 519.403 39.7399 520.235 39.3603C521.07 38.959 522.037 38.2673 523.14 37.2411C524.242 36.215 525.493 34.7652 526.891 32.869C528.29 30.9727 529.854 28.363 531.58 25.0616L531.761 25.1285L532.029 24.2584C531.908 24.4374 531.551 24.5934 530.956 24.6826C529.943 24.8387 528.306 25.2846 526.044 26.0432C523.78 26.8018 521.13 27.8057 518.093 29.0771C515.056 30.3262 511.75 31.8428 508.178 33.583C504.605 35.3449 501 37.3303 497.369 39.5833C493.734 41.8139 490.208 44.2453 486.784 46.9001C483.358 49.5544 480.306 52.4099 477.627 55.4432C474.946 58.4771 472.729 61.7116 470.971 65.1022C469.215 68.5151 468.187 72.084 467.89 75.8319C467.83 76.3224 467.979 76.8804 468.336 77.5269C468.693 78.1518 469.081 78.4862 469.498 78.5308C471.879 78.3524 474.575 77.7276 477.582 76.6791C480.589 75.6313 483.626 74.3821 486.693 72.9095C489.76 71.4598 492.753 69.9202 495.671 68.2921C498.589 66.6634 501.18 65.1468 503.443 63.7193L498.261 64.9684C497.426 65.1691 496.699 65.3474 496.073 65.5041C495.448 65.6824 494.897 65.8162 494.42 65.9054C493.646 66.0615 492.724 65.8385 491.651 65.2582C490.581 64.6786 489.641 63.9423 488.839 63.0722C488.033 62.2027 487.482 61.2657 487.185 60.3064C486.887 59.3249 487.125 58.4994 487.899 57.8082H487.81C489.001 56.8489 490.89 55.9343 493.483 55.0865C496.073 54.2164 499.021 53.5029 502.327 52.9004C505.631 52.2756 509.144 51.7851 512.867 51.4283C516.588 51.071 520.206 50.8927 523.722 50.8927C527.592 50.8927 531.15 51.1385 534.395 51.6513C537.641 52.1646 540.217 52.9896 542.123 54.1718C543.671 55.1311 544.489 56.0234 544.578 56.8266C544.668 57.6293 544.384 58.321 543.731 58.8784C543.075 59.4363 542.256 59.8382 541.273 60.0829C540.291 60.3287 539.501 60.3956 538.906 60.3064C536.704 59.9045 534.262 59.7039 531.58 59.7039C531.105 59.7039 530.643 59.7262 530.197 59.7485C529.751 59.7708 529.29 59.793 528.812 59.793C526.013 63.3843 523.617 66.7532 521.62 69.8979C519.626 73.021 517.944 75.8765 516.575 78.4193C515.205 80.9844 514.103 83.2374 513.269 85.1782C512.434 87.119 511.779 88.7472 511.304 90.0631C510.829 91.4243 510.278 92.495 509.65 93.2754C509.026 94.0563 508.297 94.4353 507.462 94.4353C506.927 94.3461 506.316 94.1455 505.631 93.8333C504.946 93.4983 504.277 93.0747 503.621 92.5173C502.965 91.9594 502.356 91.2905 501.79 90.5096C501.223 89.7287 500.764 88.8586 500.407 87.8776C500.108 86.963 499.945 85.9368 499.914 84.8215C499.884 83.6838 500.019 82.5016 500.315 81.2297L505.497 71.2368Z" fill="#F7B500"/>
<path fill-rule="evenodd" clip-rule="evenodd" d="M673.054 16.1497C673.652 16.0828 674.484 16.1937 675.557 16.4618C676.628 16.7294 677.745 17.109 678.908 17.5549C680.068 18.0237 681.186 18.5593 682.256 19.1613C683.329 19.7861 684.177 20.411 684.801 21.0581C685.429 21.727 685.757 22.3741 685.785 22.9989C685.814 23.6238 685.355 24.1812 684.4 24.6722C682.615 25.5423 680.322 27.2156 677.522 29.6698C674.723 32.124 671.671 35.0469 668.365 38.4381C665.059 41.807 661.606 45.5109 658.003 49.5269C654.4 53.5423 650.871 57.5137 647.417 61.4634C650.81 60.3921 654.132 58.964 657.378 57.157C660.622 55.3499 663.794 53.3416 666.893 51.0881C669.989 48.8574 672.98 46.5147 675.87 44.0605C678.758 41.6063 681.511 39.1744 684.133 36.7871C686.693 34.3998 689.254 32.1017 691.815 29.8927C694.376 27.6844 696.908 25.6761 699.409 23.869C701.91 22.0843 704.397 20.567 706.869 19.3402C709.34 18.1351 711.828 17.3319 714.329 16.9523C715.281 16.7963 716.31 16.6848 717.41 16.6179C718.512 16.551 719.569 16.5064 720.582 16.5064C723.082 16.5064 725.258 16.774 727.102 17.3319C728.949 17.9122 730.02 18.6702 730.319 19.6524C730.618 20.3664 730.335 21.0581 729.471 21.6824C728.606 22.3072 727.073 22.8429 724.869 23.2888C723.203 23.6238 721.49 24.3155 719.734 25.3417C717.976 26.3678 716.174 27.6175 714.329 29.1341C712.481 30.6291 710.576 32.3475 708.611 34.2437C706.646 36.14 704.649 38.1031 702.626 40.156C699.766 43.0121 696.654 45.9791 693.29 49.0581C689.926 52.1148 686.292 55.0595 682.39 57.8933C678.491 60.7048 674.337 63.2927 669.929 65.6132C665.523 67.9553 660.847 69.8075 655.903 71.1681C657.213 73.7561 658.583 76.0542 660.013 78.0625C661.443 80.0925 662.826 81.8556 664.166 83.3945C665.507 84.934 666.757 86.2283 667.919 87.299C669.079 88.3703 670.047 89.2181 670.821 89.843C672.191 91.0252 673.114 91.9399 673.591 92.6316C674.067 93.301 673.741 93.903 672.608 94.4387C672.191 94.5947 671.388 94.5724 670.196 94.3718C669.005 94.1711 667.607 93.8138 665.998 93.2341C664.389 92.6762 662.692 91.9399 660.905 90.9806C659.12 90.0436 657.452 88.8831 655.903 87.5225C653.581 85.3805 651.527 83.0601 649.74 80.539C647.953 78.0402 646.463 75.5637 645.271 73.1318C644.975 73.1764 644.692 73.221 644.424 73.2433C644.156 73.2656 643.872 73.2879 643.576 73.2879C642.978 73.3325 642.338 73.3548 641.653 73.3548C640.971 73.3548 640.359 73.3548 639.824 73.3548C639.347 73.3548 638.916 73.3548 638.528 73.3548C638.14 73.3548 637.738 73.3325 637.321 73.2879C634.164 77.0363 631.469 80.2486 629.236 82.9486C627.003 85.648 625.529 87.4551 624.815 88.3921C624.337 88.8385 623.579 89.0844 622.537 89.1512C621.495 89.2404 620.438 89.1067 619.365 88.7494C618.292 88.4144 617.371 87.9016 616.594 87.1875C615.823 86.4735 615.495 85.5589 615.612 84.4435C615.673 84.1085 616.536 82.7479 618.205 80.3606C619.871 77.9733 622.075 74.9612 624.815 71.3019C621.359 70.2534 618.428 68.8706 616.014 67.1973C613.603 65.5017 611.577 63.7164 609.94 61.8201C608.302 59.9239 607.022 58.0271 606.098 56.0862C605.175 54.1671 604.476 52.4493 603.999 50.9549C603.582 49.6829 603.299 48.6345 603.152 47.809C603.002 46.9835 602.928 46.4478 602.928 46.2026C602.868 45.5331 603.107 44.8191 603.642 44.0605C604.178 43.3019 604.833 42.8331 605.608 42.6771C606.382 42.4987 607.229 42.7663 608.155 43.4803C609.076 44.172 609.927 45.6446 610.701 47.8759C610.879 48.567 611.309 49.6606 611.994 51.1778C612.679 52.6728 613.781 54.2569 615.3 55.9079C616.82 57.5583 618.843 59.0978 621.375 60.4813C623.907 61.8647 627.137 62.7571 631.068 63.1361C633.629 59.8341 636.34 56.3761 639.197 52.7843C642.057 49.1696 644.915 45.6446 647.774 42.1866C650.632 38.7279 653.416 35.4483 656.127 32.3029C658.837 29.1564 661.322 26.4124 663.587 24.0474C665.848 21.7047 667.8 19.8084 669.438 18.3581C671.076 16.9306 672.282 16.1937 673.054 16.1497Z" fill="#F7B500"/>
<path fill-rule="evenodd" clip-rule="evenodd" d="M562.91 50.6594C562.383 49.4857 562.019 48.2063 561.816 46.8052C561.615 45.4034 561.482 43.8793 561.418 42.2501C561.507 41.9877 561.583 41.7247 561.646 41.4795C561.708 41.2342 561.734 40.9364 561.727 40.6208C561.735 39.9902 561.994 39.3242 562.503 38.6411C563.012 37.9579 563.679 37.2748 564.504 36.6265C565.331 35.9605 566.297 35.33 567.406 34.7343C568.517 34.1214 569.689 33.5955 570.925 33.1399C572.159 32.6848 573.427 32.3344 574.728 32.0714C576.032 31.8084 577.307 31.6684 578.559 31.6684C580.183 31.6684 581.507 31.9136 582.531 32.387C583.556 32.8775 584.359 33.4554 584.943 34.1386C585.525 34.8223 585.918 35.5403 586.12 36.2761C586.321 37.0118 586.412 37.6601 586.388 38.2032C586.335 39.342 586.106 40.2532 585.699 40.9712C585.293 41.6892 584.766 42.2678 584.12 42.688C583.475 43.1087 582.775 43.4066 582.02 43.5643C581.265 43.7393 580.528 43.8096 579.808 43.8096C579.197 43.8096 578.673 43.7044 578.237 43.494C577.802 43.2665 577.549 43.0384 577.479 42.7754C577.723 42.3552 578.084 41.9173 578.563 41.4446C579.042 40.9889 579.535 40.4979 580.043 40.008C580.552 39.5169 581.032 39.0441 581.484 38.5713C581.934 38.1157 582.258 37.6601 582.452 37.2222C582.249 37.1519 582.006 37.0821 581.724 37.0118C581.44 36.9421 581.1 36.8895 580.701 36.8895C578.917 36.8895 577.403 37.0118 576.16 37.2394C574.917 37.4675 573.892 37.9402 573.086 38.6411C572.282 39.342 571.688 40.3584 571.305 41.6544C570.921 42.9687 570.697 44.7031 570.631 46.8755C570.629 47.2785 570.659 47.5935 570.718 47.821C570.778 48.0668 570.802 48.3115 570.792 48.5745C570.783 48.6448 570.781 48.6974 570.79 48.7494C570.797 48.7849 570.795 48.8375 570.786 48.9072C570.827 49.1879 570.932 49.4331 571.1 49.6607C571.27 49.871 571.457 50.0986 571.664 50.3444C571.869 50.5891 572.07 50.852 572.266 51.1499C572.464 51.4654 572.627 51.8159 572.755 52.236L574.638 55.8976C574.953 56.6682 575.401 57.3691 575.983 57.9825C576.561 58.5959 577.158 59.1213 577.771 59.5941C578.384 60.0674 578.973 60.4699 579.536 60.8203C580.1 61.1707 580.522 61.4863 580.803 61.7664L581.993 62.9406C582.174 62.6073 582.381 62.2746 582.615 61.9242C582.851 61.5738 583.062 61.2233 583.246 60.8557C583.125 60.4001 582.922 59.9445 582.638 59.4889C582.354 59.051 582.03 58.6131 581.662 58.1923C581.296 57.7721 580.908 57.3691 580.494 56.9838C580.083 56.5985 579.697 56.2652 579.342 55.9502C579.235 55.9502 579.055 55.8627 578.803 55.6524C578.552 55.4597 578.244 55.2322 577.883 54.9515C577.522 54.6891 577.13 54.4084 576.704 54.1106C576.281 53.8127 575.856 53.5675 575.435 53.34C575.647 52.9718 575.904 52.7094 576.205 52.5516C576.508 52.3761 576.822 52.2709 577.147 52.236H577.787C578.233 52.2709 578.698 52.3064 579.176 52.3064C579.655 52.3064 580.121 52.3064 580.573 52.3064C580.92 52.3064 581.258 52.2538 581.591 52.1663C581.922 52.0783 582.283 51.9737 582.671 51.8507C583.062 51.7456 583.484 51.6232 583.936 51.5352C584.389 51.4306 584.899 51.3602 585.465 51.3254L590.05 50.7994C590.456 50.7468 590.852 50.7297 591.237 50.7297C591.623 50.7297 592.003 50.7297 592.376 50.7297C592.981 50.7823 593.581 50.8875 594.169 51.0447C594.759 51.2025 595.281 51.4128 595.74 51.6581C596.197 51.9205 596.563 52.2012 596.836 52.5339C597.11 52.8495 597.246 53.217 597.244 53.6029C597.238 53.8476 597.162 54.058 597.017 54.2335C596.873 54.3907 596.7 54.5485 596.498 54.6537C596.297 54.7588 596.066 54.8463 595.805 54.8989C595.544 54.9515 595.281 54.9692 595.015 54.9692C594.775 54.9692 594.565 54.9515 594.384 54.9166C594.204 54.864 593.994 54.8463 593.755 54.8463C593.355 54.8463 592.94 54.864 592.505 54.9338C592.072 54.9869 591.639 55.039 591.202 55.1093C590.778 55.2842 590.355 55.4071 589.931 55.4769C589.509 55.5649 589.088 55.6175 588.67 55.6524C588.253 55.6701 587.829 55.705 587.398 55.7398C586.967 55.7753 586.546 55.845 586.131 55.9502C586.195 56.0554 586.244 56.1955 586.277 56.3355C586.311 56.4756 586.332 56.6162 586.34 56.7385C586.328 56.826 586.332 56.8963 586.353 56.9312C586.328 57.1061 586.396 57.2468 586.554 57.3342C586.714 57.4394 586.894 57.5446 587.094 57.6321C587.292 57.7373 587.475 57.8424 587.643 57.9825C587.812 58.1048 587.894 58.2803 587.89 58.5079L587.863 58.7005C587.871 58.8234 587.89 58.9635 587.924 59.1213C587.954 59.2785 588.015 59.4191 588.102 59.5415C588.095 59.7867 588.085 59.9971 588.071 60.1897C588.056 60.4001 588.048 60.5928 588.048 60.7854C588.041 61.0307 588.038 61.2411 588.039 61.4166C588.039 61.6086 588.055 61.7841 588.083 61.9596C587.938 62.8 587.713 63.6935 587.412 64.6048C587.109 65.5155 586.71 66.4267 586.213 67.3025C587.129 68.1783 588.06 68.8443 589.011 69.2822C589.958 69.7378 590.847 70.0534 591.672 70.2455C592.495 70.4387 593.199 70.5439 593.783 70.561C594.369 70.561 594.766 70.5788 594.98 70.5788C595.405 70.5788 595.728 70.561 595.948 70.5084C596.167 70.4736 596.332 70.421 596.446 70.3861C596.558 70.3335 596.644 70.2986 596.703 70.2455C596.763 70.2106 596.859 70.1757 596.992 70.1757C597.285 70.1757 597.497 70.2809 597.63 70.4736C597.761 70.6662 597.836 70.8938 597.852 71.1567C597.709 71.4197 597.513 71.6827 597.264 71.9451C597.013 72.208 596.742 72.3304 596.449 72.3304C596.432 72.471 596.29 72.6637 596.027 72.926C595.764 73.189 595.354 73.452 594.799 73.7144C594.244 73.9596 593.553 74.2055 592.726 74.3981C591.899 74.5908 590.927 74.6782 589.808 74.6782C589.565 74.5382 589.37 74.4507 589.227 74.433C589.083 74.3981 588.947 74.3804 588.817 74.3627C588.685 74.3455 588.535 74.2752 588.362 74.2055C588.186 74.1174 587.932 73.9248 587.6 73.6446C587.262 73.767 586.922 73.7321 586.58 73.5046C586.237 73.2942 585.89 73.0141 585.537 72.6985C585.183 72.3658 584.825 72.068 584.466 71.7873C584.107 71.5072 583.74 71.3494 583.368 71.3494C582.995 71.3494 582.624 71.5249 582.256 71.8753C581.886 72.2257 581.509 72.5933 581.122 72.9964C580.733 73.3817 580.345 73.7321 579.958 74.0122C579.571 74.3106 579.185 74.3981 578.801 74.2929C577.932 74.8006 577.016 75.2036 576.051 75.5369C575.086 75.8696 574.086 76.1148 573.047 76.3075C572.011 76.4824 570.96 76.6053 569.9 76.6757C568.839 76.7454 567.79 76.7803 566.751 76.7803C565.047 76.7803 563.438 76.5705 561.926 76.1497C560.413 75.7467 559.026 75.1864 557.765 74.5033C556.502 73.8196 555.368 73.0312 554.36 72.1554C553.351 71.2796 552.498 70.3861 551.802 69.4749C551.101 68.5813 550.574 67.6878 550.217 66.8297C549.86 65.9539 549.689 65.1827 549.703 64.4996C549.982 62.5199 550.919 60.5053 552.514 58.4381C552.873 57.9648 553.355 57.3691 553.957 56.686C554.56 56.0028 555.284 55.3019 556.129 54.5839C556.977 53.8653 557.961 53.165 559.084 52.4636C560.206 51.7633 561.483 51.1676 562.91 50.6594ZM578.403 70.0179C578.591 69.8253 578.732 69.6149 578.829 69.4223C578.923 69.2125 579.014 68.9844 579.102 68.7391C578.111 68.0211 577.039 67.215 575.888 66.3215C574.738 65.4108 573.643 64.5345 572.606 63.6764C571.568 62.8177 570.678 62.0294 569.937 61.3462C569.198 60.6454 568.742 60.1372 568.576 59.8044C568.5 59.9794 568.424 60.1372 568.35 60.2772C568.277 60.4178 568.226 60.5928 568.198 60.7854L566.82 61.8013C566.639 62.1169 566.389 62.4324 566.066 62.7474C565.744 63.0453 565.385 63.3785 564.991 63.7284C564.412 64.2366 563.918 64.8146 563.509 65.4457C563.101 66.0763 562.767 66.7068 562.504 67.3374C562.243 67.9685 562.065 68.5813 561.974 69.1421C561.881 69.7024 561.844 70.1935 561.867 70.6136C561.937 71.2442 562.089 71.6649 562.322 71.9102C562.555 72.1554 562.885 72.3658 563.313 72.5407L565.019 73.189C565.713 73.3645 566.436 73.4691 567.188 73.5217C567.939 73.5743 568.732 73.5743 569.566 73.5046C570.268 73.452 571.009 73.3291 571.79 73.1713C572.573 73.0141 573.356 72.786 574.14 72.5059C574.927 72.2258 575.68 71.8753 576.401 71.4723C577.125 71.0693 577.792 70.5788 578.403 70.0179Z" fill="#F7B500"/>
<path fill-rule="evenodd" clip-rule="evenodd" d="M775.014 16.1417C775.609 16.0743 776.444 16.1857 777.513 16.4538C778.587 16.7214 779.702 17.101 780.868 17.5474C782.029 18.0162 783.144 18.5513 784.218 19.1539C785.287 19.7787 786.139 20.4035 786.762 21.0507C787.391 21.7201 787.717 22.3672 787.745 22.9921C787.774 23.6169 787.311 24.1749 786.362 24.6659C784.573 25.536 782.28 27.2099 779.479 29.6646C776.678 32.1194 773.625 35.0429 770.32 38.4347C767.015 41.8041 763.559 45.5086 759.955 49.5257C756.351 53.5423 752.82 57.5143 749.366 61.464C752.76 60.3932 756.08 58.9652 759.328 57.1576C762.577 55.3499 765.748 53.3416 768.845 51.0875C771.944 48.8557 774.94 46.513 777.827 44.0582C780.72 41.6035 783.475 39.171 786.093 36.7831C788.654 34.3952 791.216 32.0971 793.777 29.8876C796.338 27.6786 798.876 25.6704 801.374 23.8627C803.878 22.0774 806.365 20.5602 808.834 19.3328C811.31 18.1271 813.797 17.3239 816.301 16.9449C817.25 16.7889 818.279 16.6768 819.382 16.6099C820.485 16.543 821.543 16.4984 822.555 16.4984C825.059 16.4984 827.231 16.7665 829.077 17.3239C830.924 17.9042 831.999 18.6634 832.296 19.6449C832.593 20.3589 832.313 21.0507 831.45 21.6755C830.581 22.3004 829.049 22.836 826.842 23.2825C825.173 23.6169 823.464 24.3086 821.703 25.3354C819.948 26.3621 818.147 27.6118 816.301 29.129C814.454 30.6245 812.545 32.3424 810.578 34.2392C808.612 36.136 806.616 38.1003 804.593 40.1531C801.734 43.0092 798.619 45.9773 795.252 49.0569C791.89 52.1143 788.254 55.0595 784.35 57.8939C780.451 60.7059 776.295 63.2945 771.887 65.6149C767.475 67.9582 762.8 69.8104 757.855 71.1716C759.165 73.7601 760.535 76.0588 761.965 78.0671C763.396 80.0977 764.78 81.8607 766.121 83.4002C767.462 84.9403 768.712 86.2346 769.874 87.3059C771.035 88.3766 772.007 89.225 772.779 89.8498C774.145 91.0326 775.072 91.9473 775.552 92.639C776.026 93.3085 775.7 93.911 774.563 94.4467C774.145 94.6027 773.345 94.5804 772.15 94.3798C770.961 94.1791 769.562 93.8218 767.953 93.2416C766.344 92.6836 764.646 91.9473 762.858 90.988C761.071 90.0505 759.404 88.89 757.855 87.5288C755.529 85.3868 753.474 83.0658 751.689 80.5441C749.902 78.0448 748.411 75.5677 747.22 73.1352C746.923 73.1798 746.639 73.2244 746.371 73.2467C746.104 73.269 745.82 73.2919 745.521 73.2919C744.928 73.3359 744.285 73.3582 743.6 73.3582C742.915 73.3582 742.305 73.3582 741.77 73.3582C741.292 73.3582 740.86 73.3582 740.473 73.3582C740.085 73.3582 739.683 73.3359 739.266 73.2919C736.108 77.0403 733.413 80.2537 731.179 82.9543C728.945 85.6543 727.47 87.462 726.756 88.3995C726.279 88.8454 725.519 89.0912 724.476 89.1581C723.433 89.2473 722.375 89.1135 721.304 88.7562C720.233 88.4218 719.309 87.9084 718.535 87.1944C717.761 86.4798 717.433 85.5651 717.551 84.4492C717.611 84.1148 718.475 82.7531 720.142 80.3658C721.811 77.9779 724.016 74.9652 726.756 71.3053C723.301 70.2569 720.367 68.8728 717.952 67.1996C715.54 65.5034 713.514 63.7181 711.876 61.8213C710.238 59.9245 708.957 58.0276 708.033 56.0862C707.109 54.1671 706.411 52.4487 705.933 50.9538C705.516 49.6818 705.232 48.6328 705.085 47.8073C704.936 46.9818 704.862 46.4461 704.862 46.2003C704.802 45.5309 705.04 44.8168 705.577 44.0582C706.112 43.299 706.768 42.8308 707.543 42.6748C708.317 42.4958 709.167 42.764 710.089 43.478C711.013 44.1697 711.86 45.6423 712.637 47.8741C712.815 48.5659 713.246 49.6595 713.931 51.1767C714.616 52.6716 715.719 54.2563 717.239 55.9079C718.758 57.5589 720.782 59.099 723.315 60.4824C725.848 61.8659 729.079 62.7588 733.011 63.1378C735.573 59.8353 738.284 56.3761 741.143 52.7837C744.002 49.1684 746.862 45.6423 749.723 42.1837C752.582 38.7245 755.367 35.4443 758.078 32.2978C760.789 29.1513 763.276 26.4067 765.541 24.0411C767.803 21.6978 769.754 19.801 771.396 18.3507C773.031 16.9226 774.237 16.1857 775.014 16.1417Z" fill="#F7B500"/>
</svg>
