<svg width="175" height="151" viewBox="0 0 175 151" fill="none" xmlns="http://www.w3.org/2000/svg">
<path d="M171.26 70.0364L156.861 45.1064H150.542V105.852H156.983L171.26 81.1266C173.243 77.6945 173.243 73.4685 171.26 70.0364Z" fill="#FBC421"/>
<path d="M17.877 45.1052L3.47687 70.0345C1.50771 73.4673 1.50771 77.6927 3.47687 81.1254L17.7536 105.85H151.066V45.1052H17.877Z" fill="#FBC421"/>
<path d="M158.375 103.434H16.4021L40.6197 145.462C42.6031 148.894 46.2679 151 50.2334 151H124.517C128.469 151 132.134 148.894 134.117 145.462L158.375 103.434Z" fill="#FBC421"/>
<path d="M16.4022 47.5658L158.375 47.5658L134.157 5.53834C132.174 2.1056 128.509 -2.61096e-06 124.544 -2.95763e-06L50.2601 -9.45171e-06C46.3081 -9.7972e-06 42.6427 2.10559 40.6599 5.53833L16.4022 47.5658Z" fill="#FBC421"/>
<path d="M64.1484 43.448C60.2764 43.448 57.8124 41.688 55.9244 37.464L60.1484 35.064C61.4284 37.56 62.8364 38.808 64.2444 38.808C65.4604 38.808 66.1324 38.168 66.1324 37.24C66.1324 36.024 64.9484 34.968 62.4844 33.912C58.0044 31.992 56.3404 29.976 56.3404 26.456C56.3404 22.456 59.3484 19.736 63.7644 19.736C67.6364 19.736 69.9404 21.816 71.3484 25.656L67.3484 27.928C66.2284 25.656 64.8524 24.504 63.5404 24.504C62.4524 24.504 61.7164 25.144 61.7164 26.04C61.7164 27.064 62.7724 28.088 65.7164 29.368C69.5884 31.064 71.6684 32.888 71.6684 37.304C71.6684 41.016 68.7564 43.448 64.1484 43.448ZM89.6351 43H84.1631L83.4271 38.84H78.2111L77.4751 43H72.0031L76.8991 20.152H84.6111L89.6351 43ZM80.7711 24.184L78.9791 34.328H82.5951L80.7711 24.184ZM96.1756 35.16L99.2476 20.152H104.72L99.6956 43H92.6236L87.5996 20.152H93.0716L96.1756 35.16ZM118.553 20.152V24.664H110.905V28.888H117.209V33.4L110.905 33.368V38.488H118.553V43H105.433V20.152H118.553Z" fill="#2B2F84"/>
<path d="M62.1429 54.152H67.6469V69.352C67.6469 75.24 65.7269 77.448 60.0629 77.448C54.7509 77.448 52.5109 75.72 52.5109 69.352V54.152H57.9829V69.352C57.9829 71.848 58.6229 72.936 60.0629 72.936C61.4069 72.936 62.1429 72.232 62.1429 69.352V54.152ZM76.6989 54.152C82.7149 54.152 84.6029 57.032 84.6029 61.384C84.6029 66.888 81.4349 68.584 76.6989 68.584H75.0989V77H69.6269V54.152H76.6989ZM75.0989 64.072H76.6989C78.5549 64.072 79.1309 63.016 79.1309 61.384C79.1309 59.336 78.1709 58.664 76.6989 58.664H75.0989V64.072ZM106.384 54.152V58.664H101.84V77H96.3676V58.664H91.8556V54.152H106.384ZM122.908 64.392L122.94 65.576L122.908 66.76C122.684 75.08 120.924 77.448 114.94 77.448C109.052 77.448 107.228 75.048 106.972 66.76L106.94 65.576L106.972 64.392C107.292 56.072 109.052 53.704 114.94 53.704C120.892 53.704 122.716 56.104 122.908 64.392ZM117.436 66.76L117.468 65.576L117.436 64.392C117.308 59.592 116.764 58.216 114.94 58.216C113.148 58.216 112.604 59.592 112.476 64.392L112.444 65.576L112.476 66.76C112.572 71.56 113.116 72.936 114.94 72.936C116.796 72.936 117.34 71.56 117.436 66.76Z" fill="#2B2F84"/>
<path d="M124.114 104.837L134.725 84.506H137.722L127.084 104.837H124.114ZM129.217 89.015V90.743C129.217 94.388 127.354 95.252 124.978 95.252C122.98 95.252 120.793 94.739 120.793 90.743V89.015C120.793 85.262 122.521 84.668 125.005 84.668C126.922 84.668 129.217 84.911 129.217 89.015ZM123.682 89.015V90.743C123.682 91.958 123.925 92.768 124.978 92.768C125.95 92.768 126.328 92.174 126.328 90.743V89.015C126.328 87.746 126.112 87.152 125.005 87.152C124.06 87.152 123.682 87.53 123.682 89.015ZM137.02 93.794C139.018 93.794 141.205 94.037 141.205 98.141V99.869C141.205 103.514 139.342 104.378 136.993 104.378C134.941 104.378 132.781 103.865 132.781 99.869V98.141C132.781 94.388 134.644 93.794 137.02 93.794ZM136.993 101.894C137.938 101.894 138.316 101.3 138.316 99.869V98.141C138.316 96.872 138.073 96.278 137.02 96.278C136.048 96.278 135.67 96.656 135.67 98.141V99.869C135.67 101.084 135.886 101.894 136.993 101.894Z" fill="#2B2F84"/>
<path d="M79.6254 109.215C83.7794 110.019 86.7944 113.168 86.7944 119.801C86.7944 128.779 80.8314 133.938 71.2504 133.938C63.5454 133.938 58.9224 130.923 56.7784 124.156L65.7564 118.863C67.0294 123.151 68.1684 124.491 71.2504 124.491C73.3944 124.491 75.2704 123.687 75.2704 119.801C75.2704 118.059 75.1364 114.709 69.8434 114.709H68.1684V104.458H69.8434C75.3374 104.458 75.2704 101.845 75.2704 99.701C75.2704 96.485 73.8634 95.078 71.3174 95.078C68.5034 95.078 67.1634 95.212 65.6894 100.438L56.9124 95.279C59.2574 88.579 64.0814 85.631 71.3174 85.631C81.0994 85.631 86.7944 90.79 86.7944 99.701C86.7944 105.396 84.2484 107.473 79.6254 109.215ZM111.084 109.215C115.238 110.019 118.253 113.168 118.253 119.801C118.253 128.779 112.29 133.938 102.709 133.938C95.004 133.938 90.381 130.923 88.237 124.156L97.215 118.863C98.488 123.151 99.627 124.491 102.709 124.491C104.853 124.491 106.729 123.687 106.729 119.801C106.729 118.059 106.595 114.709 101.302 114.709H99.627V104.458H101.302C106.796 104.458 106.729 101.845 106.729 99.701C106.729 96.485 105.322 95.078 102.776 95.078C99.962 95.078 98.622 95.212 97.148 100.438L88.371 95.279C90.716 88.579 95.54 85.631 102.776 85.631C112.558 85.631 118.253 90.79 118.253 99.701C118.253 105.396 115.707 107.473 111.084 109.215Z" fill="#2B2F84"/>
</svg>
