<svg width="171" height="151" viewBox="0 0 171 151" fill="none" xmlns="http://www.w3.org/2000/svg">
<path d="M169.26 70.0364L154.861 45.1065H148.542V105.852H154.983L169.26 81.1266C171.243 77.6945 171.243 73.4685 169.26 70.0364Z" fill="#1D3489"/>
<path d="M15.877 45.1052L1.47687 70.0345C-0.492291 73.4673 -0.492291 77.6927 1.47687 81.1254L15.7536 105.85H149.066V45.1052H15.877Z" fill="#1D3489"/>
<path d="M156.375 103.434H14.4021L38.6197 145.462C40.6031 148.894 44.2679 151 48.2334 151H122.517C126.469 151 130.134 148.894 132.117 145.462L156.375 103.434Z" fill="#1D3489"/>
<path d="M14.4022 47.5658L156.375 47.5658L132.157 5.53836C130.174 2.10561 126.509 1.26478e-05 122.544 1.23012e-05L48.2601 5.80708e-06C44.3081 5.46159e-06 40.6427 2.1056 38.6599 5.53835L14.4022 47.5658Z" fill="#1D3489"/>
</svg>
