<svg width="272" height="800" viewBox="0 0 272 800" fill="none" xmlns="http://www.w3.org/2000/svg">
<mask id="mask0_12_2066" style="mask-type:alpha" maskUnits="userSpaceOnUse" x="0" y="0" width="272" height="800">
<mask id="mask1_12_2066" style="mask-type:luminance" maskUnits="userSpaceOnUse" x="0" y="0" width="272" height="800">
<path d="M0 0H271.525V800H0V0Z" fill="white"/>
</mask>
<g mask="url(#mask1_12_2066)">
<path d="M92.6855 639.841L211.783 433.556C223.773 412.792 223.773 387.208 211.783 366.444L0.220215 0H271.528V800H0.220215L92.6855 639.841Z" fill="#FFC936"/>
</g>
</mask>
<g mask="url(#mask0_12_2066)">
<mask id="mask2_12_2066" style="mask-type:luminance" maskUnits="userSpaceOnUse" x="1" y="0" width="272" height="800">
<path d="M1 0H272.525V800H1V0Z" fill="white"/>
</mask>
<g mask="url(#mask2_12_2066)">
<path d="M93.6855 639.841L212.783 433.556C224.773 412.792 224.773 387.208 212.783 366.444L1.22021 0H272.528V800H1.22021L93.6855 639.841Z" fill="#F8C841"/>
</g>
<mask id="mask3_12_2066" style="mask-type:luminance" maskUnits="userSpaceOnUse" x="26" y="0" width="272" height="800">
<path d="M26 0H297.525V800H26V0Z" fill="white"/>
</mask>
<g mask="url(#mask3_12_2066)">
<path d="M118.685 639.841L237.783 433.556C249.773 412.792 249.773 387.208 237.783 366.444L26.2202 0H297.528V800H26.2202L118.685 639.841Z" fill="#2D3282"/>
</g>
<mask id="mask4_12_2066" style="mask-type:luminance" maskUnits="userSpaceOnUse" x="25" y="0" width="272" height="800">
<path d="M25 0H296.525V800H25V0Z" fill="white"/>
</mask>
<g mask="url(#mask4_12_2066)">
<path d="M117.685 639.841L236.783 433.556C248.773 412.792 248.773 387.208 236.783 366.444L25.2202 0H296.528V800H25.2202L117.685 639.841Z" fill="#2D3282"/>
</g>
<mask id="mask5_12_2066" style="mask-type:luminance" maskUnits="userSpaceOnUse" x="38" y="0" width="272" height="800">
<path d="M38 0H309.525V800H38V0Z" fill="white"/>
</mask>
<g mask="url(#mask5_12_2066)">
<path d="M130.685 639.841L249.783 433.556C261.773 412.792 261.773 387.208 249.783 366.444L38.2202 0H309.528V800H38.2202L130.685 639.841Z" fill="#F8C841"/>
</g>
<mask id="mask6_12_2066" style="mask-type:luminance" maskUnits="userSpaceOnUse" x="107" y="0" width="272" height="800">
<path d="M107 0H378.525V800H107V0Z" fill="white"/>
</mask>
<g mask="url(#mask6_12_2066)">
<path d="M199.685 639.841L318.783 433.556C330.773 412.792 330.773 387.208 318.783 366.444L107.22 0H378.528V800H107.22L199.685 639.841Z" fill="white"/>
</g>
<mask id="mask7_12_2066" style="mask-type:luminance" maskUnits="userSpaceOnUse" x="111" y="0" width="272" height="800">
<path d="M111 0H382.525V800H111V0Z" fill="white"/>
</mask>
<g mask="url(#mask7_12_2066)">
<path d="M203.685 639.841L322.783 433.556C334.773 412.792 334.773 387.208 322.783 366.444L111.22 0H382.528V800H111.22L203.685 639.841Z" fill="#F8C841"/>
</g>
</g>
</svg>
